<svg viewBox="0 0 246 44" xmlns="http://www.w3.org/2000/svg" xmlns:xlink="http://www.w3.org/1999/xlink" width="246.000000" height="44.000000" fill="none" clip-path="url(#clipPath_4)" customFrame="url(#clipPath_4)">
	<defs>
		<clipPath id="clipPath_4">
			<rect width="246.000000" height="44.000000" x="0.000000" y="0.000000" rx="22.000000" fill="rgb(255,255,255)" />
		</clipPath>
	</defs>
	<rect id="фрейм 2" width="246.000000" height="44.000000" x="0.000000" y="0.000000" rx="22.000000" fill="rgb(26,26,26)" fill-opacity="0" />
	<path id="" d="M60.7578 18.7832C60.7031 18.1543 60.4512 17.666 60.002 17.3184C59.5527 16.9668 58.916 16.791 58.0918 16.791C57.5488 16.791 57.0957 16.8633 56.7324 17.0078C56.3691 17.1484 56.0957 17.3438 55.9121 17.5938C55.7285 17.8398 55.6348 18.1191 55.6309 18.4316C55.623 18.6934 55.6758 18.9258 55.7891 19.1289C55.9062 19.3281 56.0762 19.5039 56.2988 19.6562C56.5254 19.8047 56.7969 19.9375 57.1133 20.0547C57.4336 20.168 57.793 20.2656 58.1914 20.3477L59.6914 20.6934C60.5547 20.8809 61.3164 21.1289 61.9766 21.4375C62.6406 21.7461 63.1973 22.1172 63.6465 22.5508C64.0996 22.9844 64.4434 23.4824 64.6777 24.0449C64.9121 24.6074 65.0312 25.2363 65.0352 25.9316C65.0312 27.041 64.752 27.9902 64.1973 28.7793C63.6465 29.5684 62.8555 30.1738 61.8242 30.5957C60.793 31.0137 59.5508 31.2227 58.0977 31.2227C56.6367 31.2227 55.3633 31.0039 54.2773 30.5664C53.1914 30.125 52.3477 29.459 51.7461 28.5684C51.1445 27.6738 50.8359 26.5488 50.8203 25.1934L54.8574 25.1934C54.8887 25.752 55.0391 26.2207 55.3086 26.5996C55.5781 26.9746 55.9453 27.2578 56.4102 27.4492C56.8789 27.6406 57.4238 27.7363 58.0449 27.7363C58.6113 27.7363 59.0938 27.6602 59.4922 27.5078C59.8945 27.3516 60.2031 27.1387 60.418 26.8691C60.6367 26.5957 60.748 26.2812 60.752 25.9258C60.748 25.5977 60.6465 25.3164 60.4473 25.082C60.248 24.8477 59.9434 24.6426 59.5332 24.4668C59.123 24.291 58.5977 24.1309 57.957 23.9863L56.1348 23.5586C54.627 23.2148 53.4375 22.6562 52.5664 21.8828C51.6953 21.1055 51.2617 20.0527 51.2656 18.7246C51.2617 17.6426 51.5527 16.6973 52.1387 15.8887C52.7246 15.0762 53.5332 14.4434 54.5645 13.9902C55.5996 13.5332 56.7812 13.3047 58.1094 13.3047C59.4609 13.3047 60.6348 13.5352 61.6309 13.9961C62.6309 14.4531 63.4043 15.0938 63.9512 15.918C64.502 16.7383 64.7832 17.6934 64.7949 18.7832L60.7578 18.7832ZM75.5593 17.9102L75.5593 20.9746L67.3034 20.9746L67.3034 17.9102L75.5593 17.9102ZM69.032 14.7754L73.198 14.7754L73.198 26.8809C73.198 27.1387 73.239 27.3457 73.321 27.502C73.407 27.6543 73.5281 27.7637 73.6843 27.8301C73.8445 27.8965 74.0359 27.9297 74.2585 27.9297C74.4148 27.9297 74.5827 27.9141 74.7624 27.8828C74.946 27.8516 75.0827 27.8242 75.1726 27.8008L75.7995 30.8066C75.6042 30.8691 75.3249 30.9414 74.9616 31.0234C74.6023 31.1094 74.1726 31.1621 73.6726 31.1816C72.6921 31.2285 71.8542 31.1152 71.1589 30.8418C70.4675 30.5684 69.9382 30.1387 69.571 29.5527C69.2038 28.9668 69.0241 28.2305 69.032 27.3438L69.032 14.7754ZM82.3819 31.2227C81.5499 31.2227 80.8097 31.082 80.1612 30.8008C79.5167 30.5156 79.0089 30.0879 78.6378 29.5176C78.2667 28.9473 78.0811 28.2305 78.0811 27.3672C78.0811 26.6445 78.2081 26.0332 78.462 25.5332C78.7159 25.0293 79.0675 24.6211 79.5167 24.3086C79.9659 23.9961 80.4835 23.7598 81.0694 23.5996C81.6554 23.4355 82.2804 23.3242 82.9444 23.2656C83.6905 23.2031 84.2901 23.1328 84.7433 23.0547C85.2003 22.9766 85.5304 22.8652 85.7335 22.7207C85.9405 22.5723 86.044 22.3652 86.044 22.0996L86.044 22.0586C86.044 21.6211 85.8936 21.2832 85.5929 21.0449C85.2921 20.8027 84.8858 20.6816 84.3741 20.6816C83.8233 20.6816 83.38 20.8027 83.044 21.0449C82.712 21.2871 82.5011 21.6172 82.4112 22.0352L78.5675 21.9004C78.6808 21.1035 78.9737 20.3906 79.4464 19.7617C79.9229 19.1328 80.5772 18.6387 81.4093 18.2793C82.2413 17.9199 83.2433 17.7402 84.4151 17.7402C85.2511 17.7402 86.0206 17.8379 86.7237 18.0332C87.4308 18.2246 88.044 18.5078 88.5636 18.8828C89.0831 19.2539 89.4874 19.7109 89.7765 20.2539C90.0655 20.793 90.2101 21.4082 90.2101 22.0996L90.2101 31L86.2901 31L86.2901 29.1719L86.1905 29.1719C85.9522 29.6211 85.6515 29.998 85.2882 30.3027C84.9288 30.6074 84.5069 30.8379 84.0226 30.9941C83.5382 31.1465 82.9913 31.2227 82.3819 31.2227ZM83.671 28.4922C84.1163 28.4922 84.5206 28.4023 84.8839 28.2227C85.2472 28.0391 85.5362 27.7871 85.7511 27.4668C85.9659 27.1465 86.0733 26.7715 86.0733 26.3418L86.0733 25.0996C85.9561 25.1621 85.8116 25.2207 85.6397 25.2754C85.4718 25.3262 85.2882 25.375 85.089 25.4219C84.8897 25.4648 84.6866 25.5039 84.4796 25.5391C84.2726 25.5742 84.0714 25.6055 83.8761 25.6328C83.4815 25.6914 83.1456 25.7871 82.8683 25.9199C82.5948 26.0527 82.3858 26.2227 82.2413 26.4297C82.1007 26.6367 82.0304 26.8828 82.0304 27.168C82.0304 27.5977 82.1847 27.9258 82.4933 28.1523C82.8018 28.3789 83.1944 28.4922 83.671 28.4922ZM93.7504 31L93.7504 17.9102L97.7933 17.9102L97.7933 20.2949L97.9281 20.2949C98.1664 19.4277 98.555 18.7852 99.0941 18.3672C99.6371 17.9453 100.266 17.7344 100.981 17.7344C101.176 17.7344 101.375 17.748 101.578 17.7754C101.786 17.7988 101.975 17.834 102.147 17.8809L102.147 21.502C101.948 21.4355 101.688 21.3828 101.368 21.3438C101.047 21.3047 100.762 21.2852 100.512 21.2852C100.016 21.2852 99.5707 21.3945 99.1761 21.6133C98.7855 21.832 98.4769 22.1367 98.2504 22.5273C98.0277 22.918 97.9164 23.3711 97.9164 23.8867L97.9164 31L93.7504 31ZM104.858 31L104.858 13.5449L112.065 13.5449C113.374 13.5449 114.503 13.7812 115.452 14.2539C116.405 14.7227 117.14 15.3926 117.655 16.2637C118.175 17.1309 118.434 18.1641 118.434 19.3633C118.434 20.5664 118.171 21.5918 117.643 22.4395C117.116 23.2832 116.366 23.9258 115.393 24.3672C114.421 24.8086 113.268 25.0293 111.936 25.0293L107.378 25.0293L107.378 21.7012L111.157 21.7012C111.79 21.7012 112.321 21.6191 112.751 21.4551C113.181 21.2871 113.507 21.0312 113.729 20.6875C113.952 20.3398 114.063 19.8984 114.063 19.3633C114.063 18.8203 113.952 18.3711 113.729 18.0156C113.507 17.6602 113.179 17.3945 112.745 17.2188C112.315 17.0391 111.784 16.9492 111.151 16.9492L109.071 16.9492L109.071 31L104.858 31ZM114.684 23.0254L119.032 31L114.421 31L110.167 23.0254L114.684 23.0254ZM127.603 31.2461C126.232 31.2461 125.052 30.9648 124.064 30.4023C123.08 29.8359 122.322 29.0469 121.79 28.0352C121.259 27.0195 120.994 25.8398 120.994 24.4961C120.994 23.1484 121.259 21.9688 121.79 20.957C122.322 19.9414 123.08 19.1523 124.064 18.5898C125.052 18.0234 126.232 17.7402 127.603 17.7402C128.978 17.7402 130.158 18.0234 131.142 18.5898C132.13 19.1523 132.89 19.9414 133.421 20.957C133.953 21.9688 134.218 23.1484 134.218 24.4961C134.218 25.8398 133.953 27.0195 133.421 28.0352C132.89 29.0469 132.13 29.8359 131.142 30.4023C130.158 30.9648 128.978 31.2461 127.603 31.2461ZM127.632 28.0996C128.128 28.0996 128.55 27.9473 128.898 27.6426C129.246 27.3379 129.511 26.9141 129.695 26.3711C129.878 25.8242 129.97 25.1895 129.97 24.4668C129.97 23.7441 129.878 23.1113 129.695 22.5684C129.511 22.0215 129.246 21.5957 128.898 21.291C128.55 20.9824 128.128 20.8281 127.632 20.8281C127.117 20.8281 126.679 20.9824 126.32 21.291C125.964 21.5957 125.695 22.0215 125.511 22.5684C125.331 23.1113 125.242 23.7441 125.242 24.4668C125.242 25.1895 125.331 25.8242 125.511 26.3711C125.695 26.9141 125.964 27.3379 126.32 27.6426C126.679 27.9473 127.117 28.0996 127.632 28.0996ZM143.467 31.2461C142.088 31.2461 140.904 30.9629 139.916 30.3965C138.931 29.8262 138.176 29.0332 137.648 28.0176C137.121 27.002 136.857 25.8281 136.857 24.4961C136.857 23.1562 137.121 21.9785 137.648 20.9629C138.18 19.9473 138.937 19.1562 139.922 18.5898C140.91 18.0234 142.09 17.7402 143.461 17.7402C144.672 17.7402 145.726 17.959 146.625 18.3965C147.527 18.834 148.232 19.4531 148.74 20.2539C149.248 21.0508 149.515 21.9844 149.543 23.0547L145.652 23.0547C145.57 22.3867 145.344 21.8633 144.972 21.4844C144.601 21.1016 144.119 20.9102 143.525 20.9102C143.041 20.9102 142.617 21.0449 142.254 21.3145C141.89 21.584 141.607 21.9824 141.404 22.5098C141.205 23.0371 141.105 23.6855 141.105 24.4551C141.105 25.2285 141.205 25.8809 141.404 26.4121C141.603 26.9395 141.885 27.3398 142.248 27.6133C142.611 27.8828 143.037 28.0176 143.525 28.0176C143.904 28.0176 144.242 27.9355 144.539 27.7715C144.84 27.6074 145.086 27.3652 145.277 27.0449C145.472 26.7207 145.597 26.3301 145.652 25.873L149.543 25.873C149.508 26.9512 149.24 27.8945 148.74 28.7031C148.244 29.5078 147.549 30.1328 146.654 30.5781C145.76 31.0234 144.697 31.2461 143.467 31.2461ZM156.444 27.5664L156.461 22.5918L157.036 22.5918L160.721 17.9102L165.444 17.9102L159.971 24.625L158.87 24.625L156.444 27.5664ZM152.688 31L152.688 13.5449L156.854 13.5449L156.854 31L152.688 31ZM160.815 31L157.393 25.5566L160.129 22.6094L165.637 31L160.815 31ZM179.372 21.9062L175.546 22.0059C175.507 21.7324 175.4 21.4902 175.224 21.2793C175.048 21.0684 174.819 20.9023 174.538 20.7812C174.257 20.6562 173.933 20.5938 173.566 20.5938C173.081 20.5938 172.669 20.6895 172.329 20.8809C171.993 21.0723 171.827 21.334 171.831 21.666C171.827 21.9199 171.931 22.1426 172.142 22.334C172.353 22.5215 172.735 22.6719 173.29 22.7852L175.804 23.2598C177.112 23.5137 178.087 23.9297 178.728 24.5078C179.368 25.0859 179.691 25.8516 179.694 26.8047C179.691 27.7031 179.425 28.4863 178.898 29.1543C178.374 29.8184 177.657 30.334 176.747 30.7012C175.837 31.0645 174.796 31.2461 173.624 31.2461C171.757 31.2461 170.284 30.8613 169.206 30.0918C168.132 29.3184 167.519 28.2852 167.366 26.9922L171.485 26.8926C171.571 27.3652 171.804 27.7266 172.183 27.9766C172.566 28.2266 173.054 28.3516 173.648 28.3516C174.179 28.3516 174.612 28.2539 174.948 28.0586C175.284 27.8594 175.454 27.5938 175.458 27.2617C175.454 26.9727 175.323 26.7383 175.066 26.5586C174.808 26.3789 174.409 26.2363 173.87 26.1309L171.579 25.7031C170.271 25.4609 169.294 25.0195 168.65 24.3789C168.009 23.7344 167.691 22.9102 167.694 21.9062C167.691 21.0312 167.923 20.2832 168.392 19.6621C168.864 19.041 169.536 18.5664 170.407 18.2383C171.278 17.9062 172.304 17.7402 173.483 17.7402C175.253 17.7402 176.65 18.1113 177.673 18.8535C178.696 19.5918 179.263 20.6094 179.372 21.9062Z" fill="rgb(245,247,250)" fill-rule="nonzero" />
	<path id="" d="M188.909 31L188.909 13.5449L196.116 13.5449C197.425 13.5449 198.554 13.7988 199.503 14.3066C200.456 14.8145 201.191 15.5234 201.706 16.4336C202.226 17.3398 202.486 18.3906 202.486 19.5859C202.486 20.793 202.222 21.8477 201.695 22.75C201.167 23.6484 200.417 24.3457 199.445 24.8418C198.472 25.334 197.32 25.5801 195.988 25.5801L191.54 25.5801L191.54 22.2578L195.208 22.2578C195.841 22.2578 196.372 22.1484 196.802 21.9297C197.232 21.707 197.558 21.3945 197.781 20.9922C198.003 20.5898 198.115 20.1211 198.115 19.5859C198.115 19.0469 198.003 18.5801 197.781 18.1855C197.558 17.791 197.23 17.4863 196.796 17.2715C196.366 17.0566 195.835 16.9492 195.202 16.9492L193.122 16.9492L193.122 31L188.909 31ZM205.557 31L205.557 13.5449L212.764 13.5449C214.073 13.5449 215.202 13.7812 216.151 14.2539C217.104 14.7227 217.838 15.3926 218.354 16.2637C218.874 17.1309 219.133 18.1641 219.133 19.3633C219.133 20.5664 218.87 21.5918 218.342 22.4395C217.815 23.2832 217.065 23.9258 216.092 24.3672C215.12 24.8086 213.967 25.0293 212.635 25.0293L208.077 25.0293L208.077 21.7012L211.856 21.7012C212.489 21.7012 213.02 21.6191 213.45 21.4551C213.879 21.2871 214.206 21.0312 214.428 20.6875C214.651 20.3398 214.762 19.8984 214.762 19.3633C214.762 18.8203 214.651 18.3711 214.428 18.0156C214.206 17.6602 213.878 17.3945 213.444 17.2188C213.014 17.0391 212.483 16.9492 211.85 16.9492L209.77 16.9492L209.77 31L205.557 31ZM215.383 23.0254L219.731 31L215.12 31L210.866 23.0254L215.383 23.0254ZM238.914 22.2754C238.914 24.1973 238.545 25.8262 237.807 27.1621C237.072 28.4941 236.074 29.5078 234.813 30.2031C233.555 30.8945 232.145 31.2402 230.582 31.2402C229.012 31.2402 227.598 30.8906 226.34 30.1914C225.086 29.4922 224.09 28.4766 223.352 27.1445C222.617 25.8086 222.25 24.1855 222.25 22.2754C222.25 20.3496 222.617 18.7207 223.352 17.3887C224.09 16.0527 225.086 15.0391 226.34 14.3477C227.598 13.6523 229.012 13.3047 230.582 13.3047C232.145 13.3047 233.555 13.6523 234.813 14.3477C236.074 15.0391 237.072 16.0527 237.807 17.3887C238.545 18.7207 238.914 20.3496 238.914 22.2754ZM234.608 22.2754C234.608 21.1348 234.446 20.1738 234.121 19.3926C233.801 18.6074 233.34 18.0137 232.738 17.6113C232.141 17.2051 231.422 17.002 230.582 17.002C229.742 17.002 229.022 17.2051 228.42 17.6113C227.822 18.0137 227.363 18.6074 227.043 19.3926C226.723 20.1738 226.563 21.1348 226.563 22.2754C226.563 23.4121 226.723 24.373 227.043 25.1582C227.363 25.9395 227.822 26.5332 228.42 26.9395C229.022 27.3418 229.742 27.543 230.582 27.543C231.422 27.543 232.141 27.3418 232.738 26.9395C233.34 26.5332 233.801 25.9395 234.121 25.1582C234.446 24.373 234.608 23.4121 234.608 22.2754Z" fill="rgb(245,247,250)" fill-rule="nonzero" />
	<path id="" d="M188.909 31L188.909 13.5449L196.116 13.5449C197.425 13.5449 198.554 13.7988 199.503 14.3066C200.456 14.8145 201.191 15.5234 201.706 16.4336C202.226 17.3398 202.486 18.3906 202.486 19.5859C202.486 20.793 202.222 21.8477 201.695 22.75C201.167 23.6484 200.417 24.3457 199.445 24.8418C198.472 25.334 197.32 25.5801 195.988 25.5801L191.54 25.5801L191.54 22.2578L195.208 22.2578C195.841 22.2578 196.372 22.1484 196.802 21.9297C197.232 21.707 197.558 21.3945 197.781 20.9922C198.003 20.5898 198.115 20.1211 198.115 19.5859C198.115 19.0469 198.003 18.5801 197.781 18.1855C197.558 17.791 197.23 17.4863 196.796 17.2715C196.366 17.0566 195.835 16.9492 195.202 16.9492L193.122 16.9492L193.122 31L188.909 31ZM205.557 31L205.557 13.5449L212.764 13.5449C214.073 13.5449 215.202 13.7812 216.151 14.2539C217.104 14.7227 217.838 15.3926 218.354 16.2637C218.874 17.1309 219.133 18.1641 219.133 19.3633C219.133 20.5664 218.87 21.5918 218.342 22.4395C217.815 23.2832 217.065 23.9258 216.092 24.3672C215.12 24.8086 213.967 25.0293 212.635 25.0293L208.077 25.0293L208.077 21.7012L211.856 21.7012C212.489 21.7012 213.02 21.6191 213.45 21.4551C213.879 21.2871 214.206 21.0312 214.428 20.6875C214.651 20.3398 214.762 19.8984 214.762 19.3633C214.762 18.8203 214.651 18.3711 214.428 18.0156C214.206 17.6602 213.878 17.3945 213.444 17.2188C213.014 17.0391 212.483 16.9492 211.85 16.9492L209.77 16.9492L209.77 31L205.557 31ZM215.383 23.0254L219.731 31L215.12 31L210.866 23.0254L215.383 23.0254ZM238.914 22.2754C238.914 24.1973 238.545 25.8262 237.807 27.1621C237.072 28.4941 236.074 29.5078 234.813 30.2031C233.555 30.8945 232.145 31.2402 230.582 31.2402C229.012 31.2402 227.598 30.8906 226.34 30.1914C225.086 29.4922 224.09 28.4766 223.352 27.1445C222.617 25.8086 222.25 24.1855 222.25 22.2754C222.25 20.3496 222.617 18.7207 223.352 17.3887C224.09 16.0527 225.086 15.0391 226.34 14.3477C227.598 13.6523 229.012 13.3047 230.582 13.3047C232.145 13.3047 233.555 13.6523 234.813 14.3477C236.074 15.0391 237.072 16.0527 237.807 17.3887C238.545 18.7207 238.914 20.3496 238.914 22.2754ZM234.608 22.2754C234.608 21.1348 234.446 20.1738 234.121 19.3926C233.801 18.6074 233.34 18.0137 232.738 17.6113C232.141 17.2051 231.422 17.002 230.582 17.002C229.742 17.002 229.022 17.2051 228.42 17.6113C227.822 18.0137 227.363 18.6074 227.043 19.3926C226.723 20.1738 226.563 21.1348 226.563 22.2754C226.563 23.4121 226.723 24.373 227.043 25.1582C227.363 25.9395 227.822 26.5332 228.42 26.9395C229.022 27.3418 229.742 27.543 230.582 27.543C231.422 27.543 232.141 27.3418 232.738 26.9395C233.34 26.5332 233.801 25.9395 234.121 25.1582C234.446 24.373 234.608 23.4121 234.608 22.2754Z" fill="rgb(218,41,28)" fill-rule="nonzero" />
	<path id="Форма 2" d="M24.6173 4L33 8.26447L41.3826 12.5289L36.3205 15.1041L24.6173 9.15054L24.6173 4ZM42 13.4711L42 22L42 30.5289L36.9378 27.9536L36.9378 16.0463L42 13.4711ZM41.3826 31.471L33 35.7355L24.6173 40L24.6173 34.8494L36.3204 28.8958L41.3826 31.471ZM23.3827 40L15 35.7355L6.61735 31.4711L11.6796 28.8958L23.3827 34.8494L23.3827 40ZM6 30.5289L6 22L6 13.4711L11.0622 16.0463L11.0622 27.9536L6 30.5289ZM6.61735 12.5289L15 8.26447L23.3827 4L23.3827 9.15054L11.6795 15.1041L6.61735 12.5289ZM24 11.2233L13.4081 16.6116L13.4081 27.3883L24 32.7766L34.5919 27.3883L34.5919 16.6116L24 11.2233ZM24 12.7308L14.8898 17.3654L14.8898 26.6346L24 31.2692L33.1102 26.6346L33.1102 17.3654L24 12.7308Z" fill="rgb(218,41,28)" fill-rule="evenodd" />
</svg>
