<svg viewBox="0 0 1086 175" xmlns="http://www.w3.org/2000/svg" xmlns:xlink="http://www.w3.org/1999/xlink" width="1086.000000" height="175.000000" fill="none" clip-path="url(#clipPath_8)" customFrame="url(#clipPath_8)">
	<defs>
		<clipPath id="clipPath_8">
			<rect width="1086.000000" height="175.000000" x="0.000000" y="0.000000" rx="25.000000" fill="rgb(255,255,255)" />
		</clipPath>
	</defs>
	<rect id="фрейм 2" width="1086.000000" height="175.000000" x="0.000000" y="0.000000" rx="25.000000" fill="rgb(26,26,26)" fill-opacity="0" />
	<path id="" d="M64.5469 66.6992Q64.0547 61.0391 60.0117 57.9102Q55.9688 54.7461 48.5508 54.7461Q43.6641 54.7461 40.3945 56.0469Q37.125 57.3125 35.4727 59.5625Q33.8203 61.7773 33.7852 64.5898Q33.7148 66.9453 34.7344 68.7734Q35.7891 70.5664 37.793 71.9375Q39.832 73.2734 42.6797 74.3281Q45.5625 75.3477 49.1484 76.0859L58.1484 78.1602Q65.918 79.8477 71.8594 82.625Q77.8359 85.4023 81.8789 89.3047Q85.957 93.207 88.0664 98.2695Q90.1758 103.332 90.2109 109.59Q90.1758 119.574 85.1836 126.676Q80.2266 133.777 70.9453 137.574Q61.6641 141.336 48.5859 141.336Q35.4375 141.336 25.6641 137.398Q15.8906 133.426 10.4766 125.41Q5.0625 117.359 4.92188 105.16L29.1445 105.16Q29.4258 110.188 31.8516 113.598Q34.2773 116.973 38.4609 118.695Q42.6797 120.418 48.2695 120.418Q53.3672 120.418 56.9531 119.047Q60.5742 117.641 62.5078 115.215Q64.4766 112.754 64.5117 109.555Q64.4766 106.602 62.6836 104.492Q60.8906 102.383 57.1992 100.801Q53.5078 99.2188 47.7422 97.918L36.8086 95.3516Q23.2383 92.2578 15.3984 85.2969Q7.55859 78.3008 7.59375 66.3477Q7.55859 56.6094 12.832 49.332Q18.1055 42.0195 27.3867 37.9414Q36.7031 33.8281 48.6562 33.8281Q60.8203 33.8281 69.7852 37.9766Q78.7852 42.0898 83.707 49.5078Q88.6641 56.8906 88.7695 66.6992L64.5469 66.6992ZM148.356 61.4609L148.356 79.8477L98.8207 79.8477L98.8207 61.4609L148.356 61.4609ZM109.192 42.6523L134.188 42.6523L134.188 115.285Q134.188 117.605 134.926 119.012Q135.7 120.383 137.106 120.98Q138.547 121.578 140.551 121.578Q141.957 121.578 143.575 121.297Q145.227 121.016 146.036 120.805L149.797 138.84Q148.039 139.402 144.77 140.141Q141.536 140.914 137.036 141.09Q128.211 141.512 121.953 139.051Q115.731 136.59 112.426 131.316Q109.121 126.043 109.192 118.062L109.192 42.6523ZM184.292 141.336Q176.803 141.336 170.967 138.805Q165.167 136.238 161.827 131.105Q158.487 125.973 158.487 118.203Q158.487 111.699 160.772 107.199Q163.057 102.664 167.1 99.8516Q171.143 97.0391 176.417 95.5977Q181.69 94.1211 187.667 93.5938Q194.381 93.0312 198.46 92.3281Q202.573 91.625 204.401 90.3242Q206.264 88.9883 206.264 86.5977L206.264 86.3516Q206.264 82.4141 203.557 80.2695Q200.85 78.0898 196.245 78.0898Q191.288 78.0898 188.264 80.2695Q185.276 82.4492 184.467 86.2109L161.405 85.4023Q162.424 78.2305 166.678 72.5703Q170.967 66.9102 178.456 63.6758Q185.944 60.4414 196.491 60.4414Q204.014 60.4414 210.342 62.1992Q216.706 63.9219 221.381 67.2969Q226.057 70.6367 228.659 75.5234Q231.26 80.375 231.26 86.5977L231.26 140L207.741 140L207.741 129.031L207.143 129.031Q204.999 133.074 201.729 135.816Q198.495 138.559 194.135 139.965Q189.776 141.336 184.292 141.336ZM192.026 124.953Q196.034 124.953 199.303 123.336Q202.573 121.684 204.506 118.801Q206.44 115.918 206.44 112.051L206.44 104.598Q205.385 105.16 203.838 105.652Q202.327 106.109 200.534 106.531Q198.741 106.918 196.877 107.234Q195.014 107.551 193.256 107.797Q189.706 108.324 187.21 109.52Q184.749 110.715 183.448 112.578Q182.182 114.441 182.182 117.008Q182.182 120.875 184.96 122.914Q187.737 124.953 192.026 124.953ZM247.502 140L247.502 61.4609L271.76 61.4609L271.76 75.7695L272.569 75.7695Q274.713 67.9648 279.565 64.2031Q284.451 60.4062 290.885 60.4062Q292.643 60.4062 294.471 60.6523Q296.334 60.8633 297.881 61.2852L297.881 83.0117Q296.088 82.4141 293.205 82.0625Q290.322 81.7109 288.072 81.7109Q283.608 81.7109 280.057 83.6797Q276.541 85.6484 274.502 89.1641Q272.498 92.6797 272.498 97.3203L272.498 140L247.502 140ZM309.15 140L309.15 35.2695L352.392 35.2695Q364.169 35.2695 372.712 39.5234Q381.29 43.7422 385.931 51.582Q390.607 59.3867 390.607 70.1797Q390.607 81.0078 385.861 88.6367Q381.115 96.2305 372.361 100.203Q363.607 104.176 351.619 104.176L324.267 104.176L324.267 84.207L346.943 84.207Q352.638 84.207 356.505 82.7305Q360.372 81.2188 362.376 78.125Q364.38 74.9961 364.38 70.1797Q364.38 65.293 362.376 62.0938Q360.372 58.8945 356.47 57.3125Q352.603 55.6953 346.908 55.6953L334.427 55.6953L334.427 140L309.15 140ZM368.107 92.1523L394.193 140L366.525 140L341.001 92.1523L368.107 92.1523ZM440.618 141.477Q428.278 141.477 419.384 136.414Q410.524 131.316 405.743 122.211Q400.962 113.07 400.962 100.977Q400.962 88.8477 405.743 79.7422Q410.524 70.6016 419.384 65.5391Q428.278 60.4414 440.618 60.4414Q452.993 60.4414 461.852 65.5391Q470.747 70.6016 475.528 79.7422Q480.309 88.8477 480.309 100.977Q480.309 113.07 475.528 122.211Q470.747 131.316 461.852 136.414Q452.993 141.477 440.618 141.477ZM440.794 122.598Q445.259 122.598 448.387 119.855Q451.516 117.113 453.169 112.227Q454.821 107.305 454.821 100.801Q454.821 94.2969 453.169 89.4102Q451.516 84.4883 448.387 81.7461Q445.259 78.9688 440.794 78.9688Q436.153 78.9688 432.919 81.7461Q429.719 84.4883 428.067 89.4102Q426.45 94.2969 426.45 100.801Q426.45 107.305 428.067 112.227Q429.719 117.113 432.919 119.855Q436.153 122.598 440.794 122.598ZM530.8 141.477Q518.39 141.477 509.495 136.379Q500.636 131.246 495.89 122.105Q491.143 112.965 491.143 100.977Q491.143 88.918 495.89 79.7773Q500.671 70.6367 509.53 65.5391Q518.425 60.4414 530.765 60.4414Q541.663 60.4414 549.749 64.3789Q557.87 68.3164 562.44 75.5234Q567.011 82.6953 567.257 92.3281L543.913 92.3281Q543.175 86.3164 539.835 82.9062Q536.495 79.4609 531.151 79.4609Q526.792 79.4609 523.522 81.8867Q520.253 84.3125 518.425 89.0586Q516.632 93.8047 516.632 100.73Q516.632 107.691 518.425 112.473Q520.218 117.219 523.487 119.68Q526.757 122.105 531.151 122.105Q534.561 122.105 537.233 120.629Q539.94 119.152 541.663 116.27Q543.421 113.352 543.913 109.238L567.257 109.238Q566.94 118.941 562.44 126.219Q557.975 133.461 549.925 137.469Q541.874 141.477 530.8 141.477ZM603.662 119.398L603.768 89.5508L607.213 89.5508L629.326 61.4609L657.662 61.4609L624.826 101.75L618.217 101.75L603.662 119.398ZM581.127 140L581.127 35.2695L606.123 35.2695L606.123 140L581.127 140ZM629.889 140L609.358 107.34L625.776 89.6562L658.822 140L629.889 140ZM736.233 85.4375L713.276 86.0352Q712.924 83.5742 711.342 81.6758Q709.76 79.7773 707.229 78.6875Q704.698 77.5625 701.393 77.5625Q697.034 77.5625 693.975 79.2852Q690.952 81.0078 690.987 83.9961Q690.952 86.2812 692.85 88.0039Q694.749 89.6914 699.741 90.7109L714.823 93.5586Q726.6 95.8438 732.366 101.047Q738.131 106.25 738.167 114.828Q738.131 122.914 733.385 128.926Q728.674 134.902 720.483 138.207Q712.292 141.477 701.745 141.477Q684.94 141.477 675.237 134.551Q665.569 127.59 664.198 115.953L688.913 115.355Q689.686 119.609 693.096 121.859Q696.542 124.109 701.885 124.109Q706.667 124.109 709.69 122.352Q712.713 120.559 712.749 117.57Q712.713 114.969 710.393 113.352Q708.073 111.734 703.221 110.785L689.475 108.219Q677.698 106.039 671.897 100.273Q666.131 94.4727 666.167 85.4375Q666.131 77.5625 670.35 71.9727Q674.604 66.3828 682.444 63.4297Q690.284 60.4414 700.901 60.4414Q716.827 60.4414 726.038 67.1211Q735.249 73.7656 736.233 85.4375Z" fill="rgb(26,26,26)" fill-rule="nonzero" />
	<path id="" d="M783.457 140L783.457 35.2695L826.699 35.2695Q838.476 35.2695 847.019 39.8398Q855.597 44.4102 860.238 52.6016Q864.914 60.7578 864.914 71.5156Q864.914 82.3789 860.168 90.5Q855.422 98.5859 846.668 103.051Q837.914 107.48 825.925 107.48L799.242 107.48L799.242 87.5469L821.25 87.5469Q826.945 87.5469 830.812 85.5781Q834.679 83.5742 836.683 79.9531Q838.687 76.332 838.687 71.5156Q838.687 66.6641 836.683 63.1133Q834.679 59.5625 830.777 57.6289Q826.91 55.6953 821.215 55.6953L808.734 55.6953L808.734 140L783.457 140ZM878.343 140L878.343 35.2695L921.585 35.2695Q933.363 35.2695 941.906 39.5234Q950.484 43.7422 955.124 51.582Q959.8 59.3867 959.8 70.1797Q959.8 81.0078 955.054 88.6367Q950.308 96.2305 941.554 100.203Q932.8 104.176 920.812 104.176L893.46 104.176L893.46 84.207L916.136 84.207Q921.831 84.207 925.699 82.7305Q929.566 81.2188 931.57 78.125Q933.574 74.9961 933.574 70.1797Q933.574 65.293 931.57 62.0938Q929.566 58.8945 925.663 57.3125Q921.796 55.6953 916.101 55.6953L903.62 55.6953L903.62 140L878.343 140ZM937.3 92.1523L963.386 140L935.718 140L910.195 92.1523L937.3 92.1523ZM1073.49 87.6523Q1073.49 104.949 1066.84 116.973Q1060.23 128.961 1048.88 135.219Q1037.56 141.441 1023.49 141.441Q1009.36 141.441 998.04 135.148Q986.755 128.855 980.11 116.867Q973.501 104.844 973.501 87.6523Q973.501 70.3203 980.11 58.332Q986.755 46.3086 998.04 40.0859Q1009.36 33.8281 1023.49 33.8281Q1037.56 33.8281 1048.88 40.0859Q1060.23 46.3086 1066.84 58.332Q1073.49 70.3203 1073.49 87.6523ZM1047.65 87.6523Q1047.65 77.3867 1044.73 70.3555Q1041.84 63.2891 1036.43 59.668Q1031.05 56.0117 1023.49 56.0117Q1015.93 56.0117 1010.52 59.668Q1005.14 63.2891 1002.26 70.3555Q999.376 77.3867 999.376 87.6523Q999.376 97.8828 1002.26 104.949Q1005.14 111.98 1010.52 115.637Q1015.93 119.258 1023.49 119.258Q1031.05 119.258 1036.43 115.637Q1041.84 111.98 1044.73 104.949Q1047.65 97.8828 1047.65 87.6523Z" fill="rgb(26,26,26)" fill-rule="nonzero" />
	<path id="" d="M783.457 140L783.457 35.2695L826.699 35.2695Q838.476 35.2695 847.019 39.8398Q855.597 44.4102 860.238 52.6016Q864.914 60.7578 864.914 71.5156Q864.914 82.3789 860.168 90.5Q855.422 98.5859 846.668 103.051Q837.914 107.48 825.925 107.48L799.242 107.48L799.242 87.5469L821.25 87.5469Q826.945 87.5469 830.812 85.5781Q834.679 83.5742 836.683 79.9531Q838.687 76.332 838.687 71.5156Q838.687 66.6641 836.683 63.1133Q834.679 59.5625 830.777 57.6289Q826.91 55.6953 821.215 55.6953L808.734 55.6953L808.734 140L783.457 140ZM878.343 140L878.343 35.2695L921.585 35.2695Q933.363 35.2695 941.906 39.5234Q950.484 43.7422 955.124 51.582Q959.8 59.3867 959.8 70.1797Q959.8 81.0078 955.054 88.6367Q950.308 96.2305 941.554 100.203Q932.8 104.176 920.812 104.176L893.46 104.176L893.46 84.207L916.136 84.207Q921.831 84.207 925.699 82.7305Q929.566 81.2188 931.57 78.125Q933.574 74.9961 933.574 70.1797Q933.574 65.293 931.57 62.0938Q929.566 58.8945 925.663 57.3125Q921.796 55.6953 916.101 55.6953L903.62 55.6953L903.62 140L878.343 140ZM937.3 92.1523L963.386 140L935.718 140L910.195 92.1523L937.3 92.1523ZM1073.49 87.6523Q1073.49 104.949 1066.84 116.973Q1060.23 128.961 1048.88 135.219Q1037.56 141.441 1023.49 141.441Q1009.36 141.441 998.04 135.148Q986.755 128.855 980.11 116.867Q973.501 104.844 973.501 87.6523Q973.501 70.3203 980.11 58.332Q986.755 46.3086 998.04 40.0859Q1009.36 33.8281 1023.49 33.8281Q1037.56 33.8281 1048.88 40.0859Q1060.23 46.3086 1066.84 58.332Q1073.49 70.3203 1073.49 87.6523ZM1047.65 87.6523Q1047.65 77.3867 1044.73 70.3555Q1041.84 63.2891 1036.43 59.668Q1031.05 56.0117 1023.49 56.0117Q1015.93 56.0117 1010.52 59.668Q1005.14 63.2891 1002.26 70.3555Q999.376 77.3867 999.376 87.6523Q999.376 97.8828 1002.26 104.949Q1005.14 111.98 1010.52 115.637Q1015.93 119.258 1023.49 119.258Q1031.05 119.258 1036.43 115.637Q1041.84 111.98 1044.73 104.949Q1047.65 97.8828 1047.65 87.6523Z" fill="rgb(218,41,28)" fill-rule="nonzero" />
</svg>
