<svg viewBox="0 0 300 100" xmlns="http://www.w3.org/2000/svg" xmlns:xlink="http://www.w3.org/1999/xlink" width="300.000000" height="100.000000" fill="none" clip-path="url(#clipPath_14)" customFrame="url(#clipPath_14)">
	<defs>
		<clipPath id="clipPath_14">
			<rect width="300.000000" height="100.000000" x="0.000000" y="0.000000" rx="25.000000" fill="rgb(255,255,255)" />
		</clipPath>
	</defs>
	<rect id="фрейм 1" width="300.000000" height="100.000000" x="0.000000" y="0.000000" rx="25.000000" fill="rgb(255,255,255)" fill-opacity="0" />
	<path id="" d="M42.7578 45.7832C42.7031 45.1543 42.4512 44.666 42.002 44.3184C41.5527 43.9668 40.916 43.791 40.0918 43.791C39.5488 43.791 39.0957 43.8633 38.7324 44.0078C38.3691 44.1484 38.0957 44.3438 37.9121 44.5938C37.7285 44.8398 37.6348 45.1191 37.6309 45.4316C37.623 45.6934 37.6758 45.9258 37.7891 46.1289C37.9062 46.3281 38.0762 46.5039 38.2988 46.6562C38.5254 46.8047 38.7969 46.9375 39.1133 47.0547C39.4336 47.168 39.793 47.2656 40.1914 47.3477L41.6914 47.6934C42.5547 47.8809 43.3164 48.1289 43.9766 48.4375C44.6406 48.7461 45.1973 49.1172 45.6465 49.5508C46.0996 49.9844 46.4434 50.4824 46.6777 51.0449C46.9121 51.6074 47.0312 52.2363 47.0352 52.9316C47.0312 54.041 46.752 54.9902 46.1973 55.7793C45.6465 56.5684 44.8555 57.1738 43.8242 57.5957C42.793 58.0137 41.5508 58.2227 40.0977 58.2227C38.6367 58.2227 37.3633 58.0039 36.2773 57.5664C35.1914 57.125 34.3477 56.459 33.7461 55.5684C33.1445 54.6738 32.8359 53.5488 32.8203 52.1934L36.8574 52.1934C36.8887 52.752 37.0391 53.2207 37.3086 53.5996C37.5781 53.9746 37.9453 54.2578 38.4102 54.4492C38.8789 54.6406 39.4238 54.7363 40.0449 54.7363C40.6113 54.7363 41.0938 54.6602 41.4922 54.5078C41.8945 54.3516 42.2031 54.1387 42.418 53.8691C42.6367 53.5957 42.748 53.2812 42.752 52.9258C42.748 52.5977 42.6465 52.3164 42.4473 52.082C42.248 51.8477 41.9434 51.6426 41.5332 51.4668C41.123 51.291 40.5977 51.1309 39.957 50.9863L38.1348 50.5586C36.627 50.2148 35.4375 49.6562 34.5664 48.8828C33.6953 48.1055 33.2617 47.0527 33.2656 45.7246C33.2617 44.6426 33.5527 43.6973 34.1387 42.8887C34.7246 42.0762 35.5332 41.4434 36.5645 40.9902C37.5996 40.5332 38.7812 40.3047 40.1094 40.3047C41.4609 40.3047 42.6348 40.5352 43.6309 40.9961C44.6309 41.4531 45.4043 42.0938 45.9512 42.918C46.502 43.7383 46.7832 44.6934 46.7949 45.7832L42.7578 45.7832ZM49.6023 43.9727L49.6023 40.5449L64.3562 40.5449L64.3562 43.9727L59.0593 43.9727L59.0593 58L54.8991 58L54.8991 43.9727L49.6023 43.9727ZM69.0151 58L64.4799 58L70.3745 40.5449L75.9936 40.5449L81.8823 58L77.3471 58L73.2514 44.9453L73.1167 44.9453L69.0151 58ZM68.4174 51.127L77.892 51.127L77.892 54.3379L68.4174 54.3379L68.4174 51.127ZM84.7674 58L84.7674 40.5449L91.9744 40.5449C93.283 40.5449 94.4119 40.7812 95.3611 41.2539C96.3143 41.7227 97.0486 42.3926 97.5643 43.2637C98.0838 44.1309 98.3436 45.1641 98.3436 46.3633C98.3436 47.5664 98.0799 48.5918 97.5526 49.4395C97.0252 50.2832 96.2752 50.9258 95.3026 51.3672C94.3299 51.8086 93.1776 52.0293 91.8455 52.0293L87.2869 52.0293L87.2869 48.7012L91.0662 48.7012C91.699 48.7012 92.2303 48.6191 92.66 48.4551C93.0897 48.2871 93.4158 48.0312 93.6385 47.6875C93.8611 47.3398 93.9725 46.8984 93.9725 46.3633C93.9725 45.8203 93.8611 45.3711 93.6385 45.0156C93.4158 44.6602 93.0877 44.3945 92.6541 44.2188C92.2244 44.0391 91.6932 43.9492 91.0604 43.9492L88.9803 43.9492L88.9803 58L84.7674 58ZM94.5936 50.0254L98.9412 58L94.3299 58L90.076 50.0254L94.5936 50.0254ZM101.654 58L101.654 40.5449L108.861 40.5449C110.169 40.5449 111.298 40.7812 112.248 41.2539C113.201 41.7227 113.935 42.3926 114.451 43.2637C114.97 44.1309 115.23 45.1641 115.23 46.3633C115.23 47.5664 114.966 48.5918 114.439 49.4395C113.912 50.2832 113.162 50.9258 112.189 51.3672C111.216 51.8086 110.064 52.0293 108.732 52.0293L104.173 52.0293L104.173 48.7012L107.953 48.7012C108.585 48.7012 109.117 48.6191 109.546 48.4551C109.976 48.2871 110.302 48.0312 110.525 47.6875C110.748 47.3398 110.859 46.8984 110.859 46.3633C110.859 45.8203 110.748 45.3711 110.525 45.0156C110.302 44.6602 109.974 44.3945 109.54 44.2188C109.111 44.0391 108.58 43.9492 107.947 43.9492L105.867 43.9492L105.867 58L101.654 58ZM111.48 50.0254L115.828 58L111.216 58L106.962 50.0254L111.48 50.0254Z" fill="rgb(26,26,26)" fill-rule="nonzero" />
	<path id="" d="M172.168 46.873L167.902 46.873C167.848 46.4316 167.73 46.0371 167.551 45.6895C167.375 45.3379 167.143 45.0371 166.854 44.7871C166.564 44.5332 166.223 44.3398 165.828 44.207C165.434 44.0703 164.996 44.002 164.516 44.002C163.668 44.002 162.939 44.2109 162.33 44.6289C161.721 45.043 161.254 45.6426 160.93 46.4277C160.605 47.2129 160.443 48.1621 160.443 49.2754C160.443 50.4316 160.607 51.4023 160.936 52.1875C161.268 52.9688 161.736 53.5566 162.342 53.9512C162.951 54.3457 163.668 54.543 164.492 54.543C164.957 54.543 165.381 54.4824 165.764 54.3613C166.15 54.2402 166.49 54.0645 166.783 53.834C167.076 53.6035 167.318 53.3223 167.51 52.9902C167.701 52.6582 167.832 52.2832 167.902 51.8652L172.168 51.8887C172.09 52.6582 171.865 53.4199 171.494 54.1738C171.127 54.9238 170.617 55.6074 169.965 56.2246C169.316 56.8379 168.527 57.3281 167.598 57.6953C166.672 58.0586 165.609 58.2402 164.41 58.2402C162.828 58.2402 161.414 57.8926 160.168 57.1973C158.922 56.502 157.938 55.4863 157.215 54.1504C156.492 52.8105 156.131 51.1855 156.131 49.2754C156.131 47.3496 156.496 45.7207 157.227 44.3887C157.961 43.0527 158.953 42.0391 160.203 41.3477C161.453 40.6523 162.855 40.3047 164.41 40.3047C165.469 40.3047 166.445 40.4512 167.34 40.7441C168.234 41.0371 169.023 41.4629 169.707 42.0215C170.395 42.5801 170.949 43.2676 171.371 44.084C171.797 44.8965 172.062 45.8262 172.168 46.873ZM175.571 58L175.571 40.5449L179.784 40.5449L179.784 47.9219L180.013 47.9219L185.784 40.5449L190.753 40.5449L184.571 48.3379L190.864 58L185.825 58L181.472 51.1387L179.784 53.2656L179.784 58L175.571 58ZM202.667 45.7832C202.612 45.1543 202.36 44.666 201.911 44.3184C201.462 43.9668 200.825 43.791 200.001 43.791C199.458 43.791 199.005 43.8633 198.642 44.0078C198.278 44.1484 198.005 44.3438 197.821 44.5938C197.638 44.8398 197.544 45.1191 197.54 45.4316C197.532 45.6934 197.585 45.9258 197.698 46.1289C197.815 46.3281 197.985 46.5039 198.208 46.6562C198.434 46.8047 198.706 46.9375 199.022 47.0547C199.343 47.168 199.702 47.2656 200.1 47.3477L201.6 47.6934C202.464 47.8809 203.225 48.1289 203.886 48.4375C204.55 48.7461 205.106 49.1172 205.556 49.5508C206.009 49.9844 206.352 50.4824 206.587 51.0449C206.821 51.6074 206.94 52.2363 206.944 52.9316C206.94 54.041 206.661 54.9902 206.106 55.7793C205.556 56.5684 204.765 57.1738 203.733 57.5957C202.702 58.0137 201.46 58.2227 200.007 58.2227C198.546 58.2227 197.272 58.0039 196.186 57.5664C195.1 57.125 194.257 56.459 193.655 55.5684C193.054 54.6738 192.745 53.5488 192.729 52.1934L196.767 52.1934C196.798 52.752 196.948 53.2207 197.218 53.5996C197.487 53.9746 197.854 54.2578 198.319 54.4492C198.788 54.6406 199.333 54.7363 199.954 54.7363C200.52 54.7363 201.003 54.6602 201.401 54.5078C201.804 54.3516 202.112 54.1387 202.327 53.8691C202.546 53.5957 202.657 53.2812 202.661 52.9258C202.657 52.5977 202.556 52.3164 202.356 52.082C202.157 51.8477 201.852 51.6426 201.442 51.4668C201.032 51.291 200.507 51.1309 199.866 50.9863L198.044 50.5586C196.536 50.2148 195.347 49.6562 194.475 48.8828C193.604 48.1055 193.171 47.0527 193.175 45.7246C193.171 44.6426 193.462 43.6973 194.048 42.8887C194.634 42.0762 195.442 41.4434 196.474 40.9902C197.509 40.5332 198.69 40.3047 200.018 40.3047C201.37 40.3047 202.544 40.5352 203.54 40.9961C204.54 41.4531 205.313 42.0938 205.86 42.918C206.411 43.7383 206.692 44.6934 206.704 45.7832L202.667 45.7832Z" fill="rgb(26,26,26)" fill-rule="nonzero" />
	<path id="" d="M216.25 58L216.25 40.5449L223.457 40.5449C224.766 40.5449 225.895 40.7988 226.844 41.3066C227.797 41.8145 228.532 42.5234 229.047 43.4336C229.567 44.3398 229.827 45.3906 229.827 46.5859C229.827 47.793 229.563 48.8477 229.036 49.75C228.508 50.6484 227.758 51.3457 226.786 51.8418C225.813 52.334 224.661 52.5801 223.328 52.5801L218.881 52.5801L218.881 49.2578L222.549 49.2578C223.182 49.2578 223.713 49.1484 224.143 48.9297C224.573 48.707 224.899 48.3945 225.121 47.9922C225.344 47.5898 225.455 47.1211 225.455 46.5859C225.455 46.0469 225.344 45.5801 225.121 45.1855C224.899 44.791 224.571 44.4863 224.137 44.2715C223.707 44.0566 223.176 43.9492 222.543 43.9492L220.463 43.9492L220.463 58L216.25 58ZM232.898 58L232.898 40.5449L240.105 40.5449C241.414 40.5449 242.543 40.7812 243.492 41.2539C244.445 41.7227 245.179 42.3926 245.695 43.2637C246.214 44.1309 246.474 45.1641 246.474 46.3633C246.474 47.5664 246.211 48.5918 245.683 49.4395C245.156 50.2832 244.406 50.9258 243.433 51.3672C242.461 51.8086 241.308 52.0293 239.976 52.0293L235.418 52.0293L235.418 48.7012L239.197 48.7012C239.83 48.7012 240.361 48.6191 240.791 48.4551C241.22 48.2871 241.547 48.0312 241.769 47.6875C241.992 47.3398 242.103 46.8984 242.103 46.3633C242.103 45.8203 241.992 45.3711 241.769 45.0156C241.547 44.6602 241.218 44.3945 240.785 44.2188C240.355 44.0391 239.824 43.9492 239.191 43.9492L237.111 43.9492L237.111 58L232.898 58ZM242.724 50.0254L247.072 58L242.461 58L238.207 50.0254L242.724 50.0254ZM266.255 49.2754C266.255 51.1973 265.886 52.8262 265.148 54.1621C264.413 55.4941 263.415 56.5078 262.154 57.2031C260.896 57.8945 259.486 58.2402 257.923 58.2402C256.353 58.2402 254.939 57.8906 253.681 57.1914C252.427 56.4922 251.431 55.4766 250.693 54.1445C249.958 52.8086 249.591 51.1855 249.591 49.2754C249.591 47.3496 249.958 45.7207 250.693 44.3887C251.431 43.0527 252.427 42.0391 253.681 41.3477C254.939 40.6523 256.353 40.3047 257.923 40.3047C259.486 40.3047 260.896 40.6523 262.154 41.3477C263.415 42.0391 264.413 43.0527 265.148 44.3887C265.886 45.7207 266.255 47.3496 266.255 49.2754ZM261.949 49.2754C261.949 48.1348 261.786 47.1738 261.462 46.3926C261.142 45.6074 260.681 45.0137 260.079 44.6113C259.482 44.2051 258.763 44.002 257.923 44.002C257.083 44.002 256.363 44.2051 255.761 44.6113C255.163 45.0137 254.704 45.6074 254.384 46.3926C254.064 47.1738 253.904 48.1348 253.904 49.2754C253.904 50.4121 254.064 51.373 254.384 52.1582C254.704 52.9395 255.163 53.5332 255.761 53.9395C256.363 54.3418 257.083 54.543 257.923 54.543C258.763 54.543 259.482 54.3418 260.079 53.9395C260.681 53.5332 261.142 52.9395 261.462 52.1582C261.786 51.373 261.949 50.4121 261.949 49.2754Z" fill="rgb(26,26,26)" fill-rule="nonzero" />
	<path id="" d="M216.25 58L216.25 40.5449L223.457 40.5449C224.766 40.5449 225.895 40.7988 226.844 41.3066C227.797 41.8145 228.532 42.5234 229.047 43.4336C229.567 44.3398 229.827 45.3906 229.827 46.5859C229.827 47.793 229.563 48.8477 229.036 49.75C228.508 50.6484 227.758 51.3457 226.786 51.8418C225.813 52.334 224.661 52.5801 223.328 52.5801L218.881 52.5801L218.881 49.2578L222.549 49.2578C223.182 49.2578 223.713 49.1484 224.143 48.9297C224.573 48.707 224.899 48.3945 225.121 47.9922C225.344 47.5898 225.455 47.1211 225.455 46.5859C225.455 46.0469 225.344 45.5801 225.121 45.1855C224.899 44.791 224.571 44.4863 224.137 44.2715C223.707 44.0566 223.176 43.9492 222.543 43.9492L220.463 43.9492L220.463 58L216.25 58ZM232.898 58L232.898 40.5449L240.105 40.5449C241.414 40.5449 242.543 40.7812 243.492 41.2539C244.445 41.7227 245.179 42.3926 245.695 43.2637C246.214 44.1309 246.474 45.1641 246.474 46.3633C246.474 47.5664 246.211 48.5918 245.683 49.4395C245.156 50.2832 244.406 50.9258 243.433 51.3672C242.461 51.8086 241.308 52.0293 239.976 52.0293L235.418 52.0293L235.418 48.7012L239.197 48.7012C239.83 48.7012 240.361 48.6191 240.791 48.4551C241.22 48.2871 241.547 48.0312 241.769 47.6875C241.992 47.3398 242.103 46.8984 242.103 46.3633C242.103 45.8203 241.992 45.3711 241.769 45.0156C241.547 44.6602 241.218 44.3945 240.785 44.2188C240.355 44.0391 239.824 43.9492 239.191 43.9492L237.111 43.9492L237.111 58L232.898 58ZM242.724 50.0254L247.072 58L242.461 58L238.207 50.0254L242.724 50.0254ZM266.255 49.2754C266.255 51.1973 265.886 52.8262 265.148 54.1621C264.413 55.4941 263.415 56.5078 262.154 57.2031C260.896 57.8945 259.486 58.2402 257.923 58.2402C256.353 58.2402 254.939 57.8906 253.681 57.1914C252.427 56.4922 251.431 55.4766 250.693 54.1445C249.958 52.8086 249.591 51.1855 249.591 49.2754C249.591 47.3496 249.958 45.7207 250.693 44.3887C251.431 43.0527 252.427 42.0391 253.681 41.3477C254.939 40.6523 256.353 40.3047 257.923 40.3047C259.486 40.3047 260.896 40.6523 262.154 41.3477C263.415 42.0391 264.413 43.0527 265.148 44.3887C265.886 45.7207 266.255 47.3496 266.255 49.2754ZM261.949 49.2754C261.949 48.1348 261.786 47.1738 261.462 46.3926C261.142 45.6074 260.681 45.0137 260.079 44.6113C259.482 44.2051 258.763 44.002 257.923 44.002C257.083 44.002 256.363 44.2051 255.761 44.6113C255.163 45.0137 254.704 45.6074 254.384 46.3926C254.064 47.1738 253.904 48.1348 253.904 49.2754C253.904 50.4121 254.064 51.373 254.384 52.1582C254.704 52.9395 255.163 53.5332 255.761 53.9395C256.363 54.3418 257.083 54.543 257.923 54.543C258.763 54.543 259.482 54.3418 260.079 53.9395C260.681 53.5332 261.142 52.9395 261.462 52.1582C261.786 51.373 261.949 50.4121 261.949 49.2754Z" fill="rgb(218,41,28)" fill-rule="nonzero" />
	<path id="Форма 1" d="M136.617 32L145 36.2645L153.383 40.5289L148.32 43.1041L136.617 37.1505L136.617 32ZM154 41.4711L154 50L154 58.5289L148.938 55.9536L148.938 44.0463L154 41.4711ZM153.383 59.471L145 63.7355L136.617 68L136.617 62.8494L148.32 56.8958L153.383 59.471ZM135.383 68L127 63.7355L118.617 59.4711L123.68 56.8958L135.383 62.8494L135.383 68ZM118 58.5289L118 50L118 41.4711L123.062 44.0463L123.062 55.9536L118 58.5289ZM118.617 40.5289L127 36.2645L135.383 32L135.383 37.1505L123.68 43.1041L118.617 40.5289ZM136 39.2233L125.408 44.6116L125.408 55.3883L136 60.7766L146.592 55.3883L146.592 44.6116L136 39.2233ZM136 40.7308L126.89 45.3654L126.89 54.6346L136 59.2692L145.11 54.6346L145.11 45.3654L136 40.7308Z" fill="rgb(218,41,28)" fill-rule="evenodd" />
</svg>
