<svg viewBox="0 0 300 100" xmlns="http://www.w3.org/2000/svg" xmlns:xlink="http://www.w3.org/1999/xlink" width="300.000000" height="100.000000" fill="none" clip-path="url(#clipPath_12)" customFrame="url(#clipPath_12)">
	<defs>
		<clipPath id="clipPath_12">
			<rect width="300.000000" height="100.000000" x="0.000000" y="0.000000" rx="25.000000" fill="rgb(255,255,255)" />
		</clipPath>
	</defs>
	<rect id="фрейм 1" width="300.000000" height="100.000000" x="0.000000" y="0.000000" rx="25.000000" fill="rgb(255,255,255)" fill-opacity="0" />
	<path id="" d="M65.7578 45.7832C65.7031 45.1543 65.4512 44.666 65.002 44.3184C64.5527 43.9668 63.916 43.791 63.0918 43.791C62.5488 43.791 62.0957 43.8633 61.7324 44.0078C61.3691 44.1484 61.0957 44.3438 60.9121 44.5938C60.7285 44.8398 60.6348 45.1191 60.6309 45.4316C60.623 45.6934 60.6758 45.9258 60.7891 46.1289C60.9062 46.3281 61.0762 46.5039 61.2988 46.6562C61.5254 46.8047 61.7969 46.9375 62.1133 47.0547C62.4336 47.168 62.793 47.2656 63.1914 47.3477L64.6914 47.6934C65.5547 47.8809 66.3164 48.1289 66.9766 48.4375C67.6406 48.7461 68.1973 49.1172 68.6465 49.5508C69.0996 49.9844 69.4434 50.4824 69.6777 51.0449C69.9121 51.6074 70.0312 52.2363 70.0352 52.9316C70.0312 54.041 69.752 54.9902 69.1973 55.7793C68.6465 56.5684 67.8555 57.1738 66.8242 57.5957C65.793 58.0137 64.5508 58.2227 63.0977 58.2227C61.6367 58.2227 60.3633 58.0039 59.2773 57.5664C58.1914 57.125 57.3477 56.459 56.7461 55.5684C56.1445 54.6738 55.8359 53.5488 55.8203 52.1934L59.8574 52.1934C59.8887 52.752 60.0391 53.2207 60.3086 53.5996C60.5781 53.9746 60.9453 54.2578 61.4102 54.4492C61.8789 54.6406 62.4238 54.7363 63.0449 54.7363C63.6113 54.7363 64.0938 54.6602 64.4922 54.5078C64.8945 54.3516 65.2031 54.1387 65.418 53.8691C65.6367 53.5957 65.748 53.2812 65.752 52.9258C65.748 52.5977 65.6465 52.3164 65.4473 52.082C65.248 51.8477 64.9434 51.6426 64.5332 51.4668C64.123 51.291 63.5977 51.1309 62.957 50.9863L61.1348 50.5586C59.627 50.2148 58.4375 49.6562 57.5664 48.8828C56.6953 48.1055 56.2617 47.0527 56.2656 45.7246C56.2617 44.6426 56.5527 43.6973 57.1387 42.8887C57.7246 42.0762 58.5332 41.4434 59.5645 40.9902C60.5996 40.5332 61.7812 40.3047 63.1094 40.3047C64.4609 40.3047 65.6348 40.5352 66.6309 40.9961C67.6309 41.4531 68.4043 42.0938 68.9512 42.918C69.502 43.7383 69.7832 44.6934 69.7949 45.7832L65.7578 45.7832ZM80.5593 44.9102L80.5593 47.9746L72.3034 47.9746L72.3034 44.9102L80.5593 44.9102ZM74.032 41.7754L78.198 41.7754L78.198 53.8809C78.198 54.1387 78.239 54.3457 78.321 54.502C78.407 54.6543 78.5281 54.7637 78.6843 54.8301C78.8445 54.8965 79.0359 54.9297 79.2585 54.9297C79.4148 54.9297 79.5827 54.9141 79.7624 54.8828C79.946 54.8516 80.0827 54.8242 80.1726 54.8008L80.7995 57.8066C80.6042 57.8691 80.3249 57.9414 79.9616 58.0234C79.6023 58.1094 79.1726 58.1621 78.6726 58.1816C77.6921 58.2285 76.8542 58.1152 76.1589 57.8418C75.4675 57.5684 74.9382 57.1387 74.571 56.5527C74.2038 55.9668 74.0241 55.2305 74.032 54.3438L74.032 41.7754ZM87.3819 58.2227C86.5499 58.2227 85.8097 58.082 85.1612 57.8008C84.5167 57.5156 84.0089 57.0879 83.6378 56.5176C83.2667 55.9473 83.0811 55.2305 83.0811 54.3672C83.0811 53.6445 83.2081 53.0332 83.462 52.5332C83.7159 52.0293 84.0675 51.6211 84.5167 51.3086C84.9659 50.9961 85.4835 50.7598 86.0694 50.5996C86.6554 50.4355 87.2804 50.3242 87.9444 50.2656C88.6905 50.2031 89.2901 50.1328 89.7433 50.0547C90.2003 49.9766 90.5304 49.8652 90.7335 49.7207C90.9405 49.5723 91.044 49.3652 91.044 49.0996L91.044 49.0586C91.044 48.6211 90.8936 48.2832 90.5929 48.0449C90.2921 47.8027 89.8858 47.6816 89.3741 47.6816C88.8233 47.6816 88.38 47.8027 88.044 48.0449C87.712 48.2871 87.5011 48.6172 87.4112 49.0352L83.5675 48.9004C83.6808 48.1035 83.9737 47.3906 84.4464 46.7617C84.9229 46.1328 85.5772 45.6387 86.4093 45.2793C87.2413 44.9199 88.2433 44.7402 89.4151 44.7402C90.2511 44.7402 91.0206 44.8379 91.7237 45.0332C92.4308 45.2246 93.044 45.5078 93.5636 45.8828C94.0831 46.2539 94.4874 46.7109 94.7765 47.2539C95.0655 47.793 95.2101 48.4082 95.2101 49.0996L95.2101 58L91.2901 58L91.2901 56.1719L91.1905 56.1719C90.9522 56.6211 90.6515 56.998 90.2882 57.3027C89.9288 57.6074 89.5069 57.8379 89.0226 57.9941C88.5382 58.1465 87.9913 58.2227 87.3819 58.2227ZM88.671 55.4922C89.1163 55.4922 89.5206 55.4023 89.8839 55.2227C90.2472 55.0391 90.5362 54.7871 90.7511 54.4668C90.9659 54.1465 91.0733 53.7715 91.0733 53.3418L91.0733 52.0996C90.9561 52.1621 90.8116 52.2207 90.6397 52.2754C90.4718 52.3262 90.2882 52.375 90.089 52.4219C89.8897 52.4648 89.6866 52.5039 89.4796 52.5391C89.2726 52.5742 89.0714 52.6055 88.8761 52.6328C88.4815 52.6914 88.1456 52.7871 87.8683 52.9199C87.5948 53.0527 87.3858 53.2227 87.2413 53.4297C87.1007 53.6367 87.0304 53.8828 87.0304 54.168C87.0304 54.5977 87.1847 54.9258 87.4933 55.1523C87.8018 55.3789 88.1944 55.4922 88.671 55.4922ZM98.7504 58L98.7504 44.9102L102.793 44.9102L102.793 47.2949L102.928 47.2949C103.166 46.4277 103.555 45.7852 104.094 45.3672C104.637 44.9453 105.266 44.7344 105.981 44.7344C106.176 44.7344 106.375 44.748 106.578 44.7754C106.786 44.7988 106.975 44.834 107.147 44.8809L107.147 48.502C106.948 48.4355 106.688 48.3828 106.368 48.3438C106.047 48.3047 105.762 48.2852 105.512 48.2852C105.016 48.2852 104.571 48.3945 104.176 48.6133C103.786 48.832 103.477 49.1367 103.25 49.5273C103.028 49.918 102.916 50.3711 102.916 50.8867L102.916 58L98.7504 58ZM109.858 58L109.858 40.5449L117.065 40.5449C118.374 40.5449 119.503 40.7812 120.452 41.2539C121.405 41.7227 122.14 42.3926 122.655 43.2637C123.175 44.1309 123.434 45.1641 123.434 46.3633C123.434 47.5664 123.171 48.5918 122.643 49.4395C122.116 50.2832 121.366 50.9258 120.393 51.3672C119.421 51.8086 118.268 52.0293 116.936 52.0293L112.378 52.0293L112.378 48.7012L116.157 48.7012C116.79 48.7012 117.321 48.6191 117.751 48.4551C118.181 48.2871 118.507 48.0312 118.729 47.6875C118.952 47.3398 119.063 46.8984 119.063 46.3633C119.063 45.8203 118.952 45.3711 118.729 45.0156C118.507 44.6602 118.179 44.3945 117.745 44.2188C117.315 44.0391 116.784 43.9492 116.151 43.9492L114.071 43.9492L114.071 58L109.858 58ZM119.684 50.0254L124.032 58L119.421 58L115.167 50.0254L119.684 50.0254ZM132.603 58.2461C131.232 58.2461 130.052 57.9648 129.064 57.4023C128.08 56.8359 127.322 56.0469 126.79 55.0352C126.259 54.0195 125.994 52.8398 125.994 51.4961C125.994 50.1484 126.259 48.9688 126.79 47.957C127.322 46.9414 128.08 46.1523 129.064 45.5898C130.052 45.0234 131.232 44.7402 132.603 44.7402C133.978 44.7402 135.158 45.0234 136.142 45.5898C137.13 46.1523 137.89 46.9414 138.421 47.957C138.953 48.9688 139.218 50.1484 139.218 51.4961C139.218 52.8398 138.953 54.0195 138.421 55.0352C137.89 56.0469 137.13 56.8359 136.142 57.4023C135.158 57.9648 133.978 58.2461 132.603 58.2461ZM132.632 55.0996C133.128 55.0996 133.55 54.9473 133.898 54.6426C134.246 54.3379 134.511 53.9141 134.695 53.3711C134.878 52.8242 134.97 52.1895 134.97 51.4668C134.97 50.7441 134.878 50.1113 134.695 49.5684C134.511 49.0215 134.246 48.5957 133.898 48.291C133.55 47.9824 133.128 47.8281 132.632 47.8281C132.117 47.8281 131.679 47.9824 131.32 48.291C130.964 48.5957 130.695 49.0215 130.511 49.5684C130.331 50.1113 130.242 50.7441 130.242 51.4668C130.242 52.1895 130.331 52.8242 130.511 53.3711C130.695 53.9141 130.964 54.3379 131.32 54.6426C131.679 54.9473 132.117 55.0996 132.632 55.0996ZM148.467 58.2461C147.088 58.2461 145.904 57.9629 144.916 57.3965C143.931 56.8262 143.176 56.0332 142.648 55.0176C142.121 54.002 141.857 52.8281 141.857 51.4961C141.857 50.1562 142.121 48.9785 142.648 47.9629C143.18 46.9473 143.937 46.1562 144.922 45.5898C145.91 45.0234 147.09 44.7402 148.461 44.7402C149.672 44.7402 150.726 44.959 151.625 45.3965C152.527 45.834 153.232 46.4531 153.74 47.2539C154.248 48.0508 154.515 48.9844 154.543 50.0547L150.652 50.0547C150.57 49.3867 150.344 48.8633 149.972 48.4844C149.601 48.1016 149.119 47.9102 148.525 47.9102C148.041 47.9102 147.617 48.0449 147.254 48.3145C146.89 48.584 146.607 48.9824 146.404 49.5098C146.205 50.0371 146.105 50.6855 146.105 51.4551C146.105 52.2285 146.205 52.8809 146.404 53.4121C146.603 53.9395 146.885 54.3398 147.248 54.6133C147.611 54.8828 148.037 55.0176 148.525 55.0176C148.904 55.0176 149.242 54.9355 149.539 54.7715C149.84 54.6074 150.086 54.3652 150.277 54.0449C150.472 53.7207 150.597 53.3301 150.652 52.873L154.543 52.873C154.508 53.9512 154.24 54.8945 153.74 55.7031C153.244 56.5078 152.549 57.1328 151.654 57.5781C150.76 58.0234 149.697 58.2461 148.467 58.2461ZM161.444 54.5664L161.461 49.5918L162.036 49.5918L165.721 44.9102L170.444 44.9102L164.971 51.625L163.87 51.625L161.444 54.5664ZM157.688 58L157.688 40.5449L161.854 40.5449L161.854 58L157.688 58ZM165.815 58L162.393 52.5566L165.129 49.6094L170.637 58L165.815 58ZM184.372 48.9062L180.546 49.0059C180.507 48.7324 180.4 48.4902 180.224 48.2793C180.048 48.0684 179.819 47.9023 179.538 47.7812C179.257 47.6562 178.933 47.5938 178.566 47.5938C178.081 47.5938 177.669 47.6895 177.329 47.8809C176.993 48.0723 176.827 48.334 176.831 48.666C176.827 48.9199 176.931 49.1426 177.142 49.334C177.353 49.5215 177.735 49.6719 178.29 49.7852L180.804 50.2598C182.112 50.5137 183.087 50.9297 183.728 51.5078C184.368 52.0859 184.691 52.8516 184.694 53.8047C184.691 54.7031 184.425 55.4863 183.898 56.1543C183.374 56.8184 182.657 57.334 181.747 57.7012C180.837 58.0645 179.796 58.2461 178.624 58.2461C176.757 58.2461 175.284 57.8613 174.206 57.0918C173.132 56.3184 172.519 55.2852 172.366 53.9922L176.485 53.8926C176.571 54.3652 176.804 54.7266 177.183 54.9766C177.566 55.2266 178.054 55.3516 178.648 55.3516C179.179 55.3516 179.612 55.2539 179.948 55.0586C180.284 54.8594 180.454 54.5938 180.458 54.2617C180.454 53.9727 180.323 53.7383 180.066 53.5586C179.808 53.3789 179.409 53.2363 178.87 53.1309L176.579 52.7031C175.271 52.4609 174.294 52.0195 173.65 51.3789C173.009 50.7344 172.691 49.9102 172.694 48.9062C172.691 48.0312 172.923 47.2832 173.392 46.6621C173.864 46.041 174.536 45.5664 175.407 45.2383C176.278 44.9062 177.304 44.7402 178.483 44.7402C180.253 44.7402 181.65 45.1113 182.673 45.8535C183.696 46.5918 184.263 47.6094 184.372 48.9062ZM193.909 58L193.909 40.5449L201.116 40.5449C202.425 40.5449 203.554 40.7988 204.503 41.3066C205.456 41.8145 206.191 42.5234 206.706 43.4336C207.226 44.3398 207.486 45.3906 207.486 46.5859C207.486 47.793 207.222 48.8477 206.695 49.75C206.167 50.6484 205.417 51.3457 204.445 51.8418C203.472 52.334 202.32 52.5801 200.988 52.5801L196.54 52.5801L196.54 49.2578L200.208 49.2578C200.841 49.2578 201.372 49.1484 201.802 48.9297C202.232 48.707 202.558 48.3945 202.781 47.9922C203.003 47.5898 203.115 47.1211 203.115 46.5859C203.115 46.0469 203.003 45.5801 202.781 45.1855C202.558 44.791 202.23 44.4863 201.796 44.2715C201.366 44.0566 200.835 43.9492 200.202 43.9492L198.122 43.9492L198.122 58L193.909 58ZM210.557 58L210.557 40.5449L217.764 40.5449C219.073 40.5449 220.202 40.7812 221.151 41.2539C222.104 41.7227 222.838 42.3926 223.354 43.2637C223.874 44.1309 224.133 45.1641 224.133 46.3633C224.133 47.5664 223.87 48.5918 223.342 49.4395C222.815 50.2832 222.065 50.9258 221.092 51.3672C220.12 51.8086 218.967 52.0293 217.635 52.0293L213.077 52.0293L213.077 48.7012L216.856 48.7012C217.489 48.7012 218.02 48.6191 218.45 48.4551C218.879 48.2871 219.206 48.0312 219.428 47.6875C219.651 47.3398 219.762 46.8984 219.762 46.3633C219.762 45.8203 219.651 45.3711 219.428 45.0156C219.206 44.6602 218.878 44.3945 218.444 44.2188C218.014 44.0391 217.483 43.9492 216.85 43.9492L214.77 43.9492L214.77 58L210.557 58ZM220.383 50.0254L224.731 58L220.12 58L215.866 50.0254L220.383 50.0254ZM243.914 49.2754C243.914 51.1973 243.545 52.8262 242.807 54.1621C242.072 55.4941 241.074 56.5078 239.813 57.2031C238.555 57.8945 237.145 58.2402 235.582 58.2402C234.012 58.2402 232.598 57.8906 231.34 57.1914C230.086 56.4922 229.09 55.4766 228.352 54.1445C227.617 52.8086 227.25 51.1855 227.25 49.2754C227.25 47.3496 227.617 45.7207 228.352 44.3887C229.09 43.0527 230.086 42.0391 231.34 41.3477C232.598 40.6523 234.012 40.3047 235.582 40.3047C237.145 40.3047 238.555 40.6523 239.813 41.3477C241.074 42.0391 242.072 43.0527 242.807 44.3887C243.545 45.7207 243.914 47.3496 243.914 49.2754ZM239.608 49.2754C239.608 48.1348 239.446 47.1738 239.121 46.3926C238.801 45.6074 238.34 45.0137 237.738 44.6113C237.141 44.2051 236.422 44.002 235.582 44.002C234.742 44.002 234.022 44.2051 233.42 44.6113C232.822 45.0137 232.363 45.6074 232.043 46.3926C231.723 47.1738 231.563 48.1348 231.563 49.2754C231.563 50.4121 231.723 51.373 232.043 52.1582C232.363 52.9395 232.822 53.5332 233.42 53.9395C234.022 54.3418 234.742 54.543 235.582 54.543C236.422 54.543 237.141 54.3418 237.738 53.9395C238.34 53.5332 238.801 52.9395 239.121 52.1582C239.446 51.373 239.608 50.4121 239.608 49.2754Z" fill="rgb(26,26,26)" fill-rule="nonzero" />
	<path id="" d="" fill="rgb(26,26,26)" fill-rule="nonzero" />
	<path id="" d="" fill="rgb(218,41,28)" fill-rule="nonzero" />
</svg>
