<svg viewBox="0 0 400 400" xmlns="http://www.w3.org/2000/svg" xmlns:xlink="http://www.w3.org/1999/xlink" width="400.000000" height="400.000000" fill="none" clip-path="url(#clipPath_3)" customFrame="url(#clipPath_3)">
	<defs>
		<clipPath id="clipPath_3">
			<rect width="400.000000" height="400.000000" x="0.000000" y="0.000000" rx="25.000000" fill="rgb(255,255,255)" />
		</clipPath>
	</defs>
	<rect id="фрейм 2" width="400.000000" height="400.000000" x="0.000000" y="0.000000" rx="25.000000" fill="rgb(26,26,26)" fill-opacity="0" />
	<path id="Форма 2" d="M206.859 0L300 47.3829L393.14 94.7657L336.894 123.379L206.859 57.2281L206.859 0ZM400 105.234L400 200L400 294.766L343.753 266.151L343.753 133.848L400 105.234ZM393.14 305.233L300 352.617L206.859 400L206.859 342.771L336.893 276.62L393.14 305.233ZM193.141 400L100 352.617L6.8595 305.235L63.1066 276.62L193.141 342.771L193.141 400ZM0 294.766L0 200L0 105.234L56.247 133.848L56.247 266.151L0 294.766ZM6.8595 94.7657L100 47.3829L193.141 0L193.141 57.2281L63.1059 123.379L6.8595 94.7657ZM200 80.2591L82.3128 140.129L82.3128 259.87L200 319.74L317.688 259.87L317.688 140.129L200 80.2591ZM200 97.0087L98.7751 148.505L98.7751 251.496L200 302.991L301.224 251.496L301.224 148.505L200 97.0087Z" fill="rgb(218,41,28)" fill-rule="evenodd" />
</svg>
