<svg viewBox="0 0 300 100" xmlns="http://www.w3.org/2000/svg" xmlns:xlink="http://www.w3.org/1999/xlink" width="300.000000" height="100.000000" fill="none" clip-path="url(#clipPath_0)" customFrame="url(#clipPath_0)">
	<defs>
		<clipPath id="clipPath_0">
			<rect width="300.000000" height="100.000000" x="0.000000" y="0.000000" rx="25.000000" fill="rgb(255,255,255)" />
		</clipPath>
	</defs>
	<rect id="фрейм 1" width="300.000000" height="100.000000" x="0.000000" y="0.000000" rx="25.000000" fill="rgb(255,255,255)" />
	<path id="" d="M88.7578 45.7832C88.7031 45.1543 88.4512 44.666 88.002 44.3184C87.5527 43.9668 86.916 43.791 86.0918 43.791C85.5488 43.791 85.0957 43.8633 84.7324 44.0078C84.3691 44.1484 84.0957 44.3438 83.9121 44.5938C83.7285 44.8398 83.6348 45.1191 83.6309 45.4316C83.623 45.6934 83.6758 45.9258 83.7891 46.1289C83.9062 46.3281 84.0762 46.5039 84.2988 46.6562C84.5254 46.8047 84.7969 46.9375 85.1133 47.0547C85.4336 47.168 85.793 47.2656 86.1914 47.3477L87.6914 47.6934C88.5547 47.8809 89.3164 48.1289 89.9766 48.4375C90.6406 48.7461 91.1973 49.1172 91.6465 49.5508C92.0996 49.9844 92.4434 50.4824 92.6777 51.0449C92.9121 51.6074 93.0312 52.2363 93.0352 52.9316C93.0312 54.041 92.752 54.9902 92.1973 55.7793C91.6465 56.5684 90.8555 57.1738 89.8242 57.5957C88.793 58.0137 87.5508 58.2227 86.0977 58.2227C84.6367 58.2227 83.3633 58.0039 82.2773 57.5664C81.1914 57.125 80.3477 56.459 79.7461 55.5684C79.1445 54.6738 78.8359 53.5488 78.8203 52.1934L82.8574 52.1934C82.8887 52.752 83.0391 53.2207 83.3086 53.5996C83.5781 53.9746 83.9453 54.2578 84.4102 54.4492C84.8789 54.6406 85.4238 54.7363 86.0449 54.7363C86.6113 54.7363 87.0938 54.6602 87.4922 54.5078C87.8945 54.3516 88.2031 54.1387 88.418 53.8691C88.6367 53.5957 88.748 53.2812 88.752 52.9258C88.748 52.5977 88.6465 52.3164 88.4473 52.082C88.248 51.8477 87.9434 51.6426 87.5332 51.4668C87.123 51.291 86.5977 51.1309 85.957 50.9863L84.1348 50.5586C82.627 50.2148 81.4375 49.6562 80.5664 48.8828C79.6953 48.1055 79.2617 47.0527 79.2656 45.7246C79.2617 44.6426 79.5527 43.6973 80.1387 42.8887C80.7246 42.0762 81.5332 41.4434 82.5645 40.9902C83.5996 40.5332 84.7812 40.3047 86.1094 40.3047C87.4609 40.3047 88.6348 40.5352 89.6309 40.9961C90.6309 41.4531 91.4043 42.0938 91.9512 42.918C92.502 43.7383 92.7832 44.6934 92.7949 45.7832L88.7578 45.7832ZM103.559 44.9102L103.559 47.9746L95.3034 47.9746L95.3034 44.9102L103.559 44.9102ZM97.032 41.7754L101.198 41.7754L101.198 53.8809C101.198 54.1387 101.239 54.3457 101.321 54.502C101.407 54.6543 101.528 54.7637 101.684 54.8301C101.844 54.8965 102.036 54.9297 102.259 54.9297C102.415 54.9297 102.583 54.9141 102.762 54.8828C102.946 54.8516 103.083 54.8242 103.173 54.8008L103.8 57.8066C103.604 57.8691 103.325 57.9414 102.962 58.0234C102.602 58.1094 102.173 58.1621 101.673 58.1816C100.692 58.2285 99.8542 58.1152 99.1589 57.8418C98.4675 57.5684 97.9382 57.1387 97.571 56.5527C97.2038 55.9668 97.0241 55.2305 97.032 54.3438L97.032 41.7754ZM110.382 58.2227C109.55 58.2227 108.81 58.082 108.161 57.8008C107.517 57.5156 107.009 57.0879 106.638 56.5176C106.267 55.9473 106.081 55.2305 106.081 54.3672C106.081 53.6445 106.208 53.0332 106.462 52.5332C106.716 52.0293 107.067 51.6211 107.517 51.3086C107.966 50.9961 108.483 50.7598 109.069 50.5996C109.655 50.4355 110.28 50.3242 110.944 50.2656C111.691 50.2031 112.29 50.1328 112.743 50.0547C113.2 49.9766 113.53 49.8652 113.733 49.7207C113.941 49.5723 114.044 49.3652 114.044 49.0996L114.044 49.0586C114.044 48.6211 113.894 48.2832 113.593 48.0449C113.292 47.8027 112.886 47.6816 112.374 47.6816C111.823 47.6816 111.38 47.8027 111.044 48.0449C110.712 48.2871 110.501 48.6172 110.411 49.0352L106.567 48.9004C106.681 48.1035 106.974 47.3906 107.446 46.7617C107.923 46.1328 108.577 45.6387 109.409 45.2793C110.241 44.9199 111.243 44.7402 112.415 44.7402C113.251 44.7402 114.021 44.8379 114.724 45.0332C115.431 45.2246 116.044 45.5078 116.564 45.8828C117.083 46.2539 117.487 46.7109 117.776 47.2539C118.066 47.793 118.21 48.4082 118.21 49.0996L118.21 58L114.29 58L114.29 56.1719L114.191 56.1719C113.952 56.6211 113.651 56.998 113.288 57.3027C112.929 57.6074 112.507 57.8379 112.023 57.9941C111.538 58.1465 110.991 58.2227 110.382 58.2227ZM111.671 55.4922C112.116 55.4922 112.521 55.4023 112.884 55.2227C113.247 55.0391 113.536 54.7871 113.751 54.4668C113.966 54.1465 114.073 53.7715 114.073 53.3418L114.073 52.0996C113.956 52.1621 113.812 52.2207 113.64 52.2754C113.472 52.3262 113.288 52.375 113.089 52.4219C112.89 52.4648 112.687 52.5039 112.48 52.5391C112.273 52.5742 112.071 52.6055 111.876 52.6328C111.482 52.6914 111.146 52.7871 110.868 52.9199C110.595 53.0527 110.386 53.2227 110.241 53.4297C110.101 53.6367 110.03 53.8828 110.03 54.168C110.03 54.5977 110.185 54.9258 110.493 55.1523C110.802 55.3789 111.194 55.4922 111.671 55.4922ZM121.75 58L121.75 44.9102L125.793 44.9102L125.793 47.2949L125.928 47.2949C126.166 46.4277 126.555 45.7852 127.094 45.3672C127.637 44.9453 128.266 44.7344 128.981 44.7344C129.176 44.7344 129.375 44.748 129.578 44.7754C129.786 44.7988 129.975 44.834 130.147 44.8809L130.147 48.502C129.948 48.4355 129.688 48.3828 129.368 48.3438C129.047 48.3047 128.762 48.2852 128.512 48.2852C128.016 48.2852 127.571 48.3945 127.176 48.6133C126.786 48.832 126.477 49.1367 126.25 49.5273C126.028 49.918 125.916 50.3711 125.916 50.8867L125.916 58L121.75 58ZM132.858 58L132.858 40.5449L140.065 40.5449C141.374 40.5449 142.503 40.7812 143.452 41.2539C144.405 41.7227 145.14 42.3926 145.655 43.2637C146.175 44.1309 146.434 45.1641 146.434 46.3633C146.434 47.5664 146.171 48.5918 145.643 49.4395C145.116 50.2832 144.366 50.9258 143.393 51.3672C142.421 51.8086 141.268 52.0293 139.936 52.0293L135.378 52.0293L135.378 48.7012L139.157 48.7012C139.79 48.7012 140.321 48.6191 140.751 48.4551C141.181 48.2871 141.507 48.0312 141.729 47.6875C141.952 47.3398 142.063 46.8984 142.063 46.3633C142.063 45.8203 141.952 45.3711 141.729 45.0156C141.507 44.6602 141.179 44.3945 140.745 44.2188C140.315 44.0391 139.784 43.9492 139.151 43.9492L137.071 43.9492L137.071 58L132.858 58ZM142.684 50.0254L147.032 58L142.421 58L138.167 50.0254L142.684 50.0254ZM155.603 58.2461C154.232 58.2461 153.052 57.9648 152.064 57.4023C151.08 56.8359 150.322 56.0469 149.79 55.0352C149.259 54.0195 148.994 52.8398 148.994 51.4961C148.994 50.1484 149.259 48.9688 149.79 47.957C150.322 46.9414 151.08 46.1523 152.064 45.5898C153.052 45.0234 154.232 44.7402 155.603 44.7402C156.978 44.7402 158.158 45.0234 159.142 45.5898C160.13 46.1523 160.89 46.9414 161.421 47.957C161.953 48.9688 162.218 50.1484 162.218 51.4961C162.218 52.8398 161.953 54.0195 161.421 55.0352C160.89 56.0469 160.13 56.8359 159.142 57.4023C158.158 57.9648 156.978 58.2461 155.603 58.2461ZM155.632 55.0996C156.128 55.0996 156.55 54.9473 156.898 54.6426C157.246 54.3379 157.511 53.9141 157.695 53.3711C157.878 52.8242 157.97 52.1895 157.97 51.4668C157.97 50.7441 157.878 50.1113 157.695 49.5684C157.511 49.0215 157.246 48.5957 156.898 48.291C156.55 47.9824 156.128 47.8281 155.632 47.8281C155.117 47.8281 154.679 47.9824 154.32 48.291C153.964 48.5957 153.695 49.0215 153.511 49.5684C153.331 50.1113 153.242 50.7441 153.242 51.4668C153.242 52.1895 153.331 52.8242 153.511 53.3711C153.695 53.9141 153.964 54.3379 154.32 54.6426C154.679 54.9473 155.117 55.0996 155.632 55.0996ZM171.467 58.2461C170.088 58.2461 168.904 57.9629 167.916 57.3965C166.931 56.8262 166.176 56.0332 165.648 55.0176C165.121 54.002 164.857 52.8281 164.857 51.4961C164.857 50.1562 165.121 48.9785 165.648 47.9629C166.18 46.9473 166.937 46.1562 167.922 45.5898C168.91 45.0234 170.09 44.7402 171.461 44.7402C172.672 44.7402 173.726 44.959 174.625 45.3965C175.527 45.834 176.232 46.4531 176.74 47.2539C177.248 48.0508 177.515 48.9844 177.543 50.0547L173.652 50.0547C173.57 49.3867 173.344 48.8633 172.972 48.4844C172.601 48.1016 172.119 47.9102 171.525 47.9102C171.041 47.9102 170.617 48.0449 170.254 48.3145C169.89 48.584 169.607 48.9824 169.404 49.5098C169.205 50.0371 169.105 50.6855 169.105 51.4551C169.105 52.2285 169.205 52.8809 169.404 53.4121C169.603 53.9395 169.885 54.3398 170.248 54.6133C170.611 54.8828 171.037 55.0176 171.525 55.0176C171.904 55.0176 172.242 54.9355 172.539 54.7715C172.84 54.6074 173.086 54.3652 173.277 54.0449C173.472 53.7207 173.597 53.3301 173.652 52.873L177.543 52.873C177.508 53.9512 177.24 54.8945 176.74 55.7031C176.244 56.5078 175.549 57.1328 174.654 57.5781C173.76 58.0234 172.697 58.2461 171.467 58.2461ZM184.444 54.5664L184.461 49.5918L185.036 49.5918L188.721 44.9102L193.444 44.9102L187.971 51.625L186.87 51.625L184.444 54.5664ZM180.688 58L180.688 40.5449L184.854 40.5449L184.854 58L180.688 58ZM188.815 58L185.393 52.5566L188.129 49.6094L193.637 58L188.815 58ZM207.372 48.9062L203.546 49.0059C203.507 48.7324 203.4 48.4902 203.224 48.2793C203.048 48.0684 202.819 47.9023 202.538 47.7812C202.257 47.6562 201.933 47.5938 201.566 47.5938C201.081 47.5938 200.669 47.6895 200.329 47.8809C199.993 48.0723 199.827 48.334 199.831 48.666C199.827 48.9199 199.931 49.1426 200.142 49.334C200.353 49.5215 200.735 49.6719 201.29 49.7852L203.804 50.2598C205.112 50.5137 206.087 50.9297 206.728 51.5078C207.368 52.0859 207.691 52.8516 207.694 53.8047C207.691 54.7031 207.425 55.4863 206.898 56.1543C206.374 56.8184 205.657 57.334 204.747 57.7012C203.837 58.0645 202.796 58.2461 201.624 58.2461C199.757 58.2461 198.284 57.8613 197.206 57.0918C196.132 56.3184 195.519 55.2852 195.366 53.9922L199.485 53.8926C199.571 54.3652 199.804 54.7266 200.183 54.9766C200.566 55.2266 201.054 55.3516 201.648 55.3516C202.179 55.3516 202.612 55.2539 202.948 55.0586C203.284 54.8594 203.454 54.5938 203.458 54.2617C203.454 53.9727 203.323 53.7383 203.066 53.5586C202.808 53.3789 202.409 53.2363 201.87 53.1309L199.579 52.7031C198.271 52.4609 197.294 52.0195 196.65 51.3789C196.009 50.7344 195.691 49.9102 195.694 48.9062C195.691 48.0312 195.923 47.2832 196.392 46.6621C196.864 46.041 197.536 45.5664 198.407 45.2383C199.278 44.9062 200.304 44.7402 201.483 44.7402C203.253 44.7402 204.65 45.1113 205.673 45.8535C206.696 46.5918 207.263 47.6094 207.372 48.9062Z" fill="rgb(26,26,26)" fill-rule="nonzero" />
	<path id="" d="M216.909 58L216.909 40.5449L224.116 40.5449C225.425 40.5449 226.554 40.7988 227.503 41.3066C228.456 41.8145 229.191 42.5234 229.706 43.4336C230.226 44.3398 230.486 45.3906 230.486 46.5859C230.486 47.793 230.222 48.8477 229.695 49.75C229.167 50.6484 228.417 51.3457 227.445 51.8418C226.472 52.334 225.32 52.5801 223.988 52.5801L219.54 52.5801L219.54 49.2578L223.208 49.2578C223.841 49.2578 224.372 49.1484 224.802 48.9297C225.232 48.707 225.558 48.3945 225.781 47.9922C226.003 47.5898 226.115 47.1211 226.115 46.5859C226.115 46.0469 226.003 45.5801 225.781 45.1855C225.558 44.791 225.23 44.4863 224.796 44.2715C224.366 44.0566 223.835 43.9492 223.202 43.9492L221.122 43.9492L221.122 58L216.909 58ZM233.557 58L233.557 40.5449L240.764 40.5449C242.073 40.5449 243.202 40.7812 244.151 41.2539C245.104 41.7227 245.838 42.3926 246.354 43.2637C246.874 44.1309 247.133 45.1641 247.133 46.3633C247.133 47.5664 246.87 48.5918 246.342 49.4395C245.815 50.2832 245.065 50.9258 244.092 51.3672C243.12 51.8086 241.967 52.0293 240.635 52.0293L236.077 52.0293L236.077 48.7012L239.856 48.7012C240.489 48.7012 241.02 48.6191 241.45 48.4551C241.879 48.2871 242.206 48.0312 242.428 47.6875C242.651 47.3398 242.762 46.8984 242.762 46.3633C242.762 45.8203 242.651 45.3711 242.428 45.0156C242.206 44.6602 241.878 44.3945 241.444 44.2188C241.014 44.0391 240.483 43.9492 239.85 43.9492L237.77 43.9492L237.77 58L233.557 58ZM243.383 50.0254L247.731 58L243.12 58L238.866 50.0254L243.383 50.0254ZM266.914 49.2754C266.914 51.1973 266.545 52.8262 265.807 54.1621C265.072 55.4941 264.074 56.5078 262.813 57.2031C261.555 57.8945 260.145 58.2402 258.582 58.2402C257.012 58.2402 255.598 57.8906 254.34 57.1914C253.086 56.4922 252.09 55.4766 251.352 54.1445C250.617 52.8086 250.25 51.1855 250.25 49.2754C250.25 47.3496 250.617 45.7207 251.352 44.3887C252.09 43.0527 253.086 42.0391 254.34 41.3477C255.598 40.6523 257.012 40.3047 258.582 40.3047C260.145 40.3047 261.555 40.6523 262.813 41.3477C264.074 42.0391 265.072 43.0527 265.807 44.3887C266.545 45.7207 266.914 47.3496 266.914 49.2754ZM262.608 49.2754C262.608 48.1348 262.445 47.1738 262.121 46.3926C261.801 45.6074 261.34 45.0137 260.738 44.6113C260.141 44.2051 259.422 44.002 258.582 44.002C257.742 44.002 257.022 44.2051 256.42 44.6113C255.822 45.0137 255.363 45.6074 255.043 46.3926C254.723 47.1738 254.563 48.1348 254.563 49.2754C254.563 50.4121 254.723 51.373 255.043 52.1582C255.363 52.9395 255.822 53.5332 256.42 53.9395C257.022 54.3418 257.742 54.543 258.582 54.543C259.422 54.543 260.141 54.3418 260.738 53.9395C261.34 53.5332 261.801 52.9395 262.121 52.1582C262.445 51.373 262.608 50.4121 262.608 49.2754Z" fill="rgb(26,26,26)" fill-rule="nonzero" />
	<path id="" d="M216.909 58L216.909 40.5449L224.116 40.5449C225.425 40.5449 226.554 40.7988 227.503 41.3066C228.456 41.8145 229.191 42.5234 229.706 43.4336C230.226 44.3398 230.486 45.3906 230.486 46.5859C230.486 47.793 230.222 48.8477 229.695 49.75C229.167 50.6484 228.417 51.3457 227.445 51.8418C226.472 52.334 225.32 52.5801 223.988 52.5801L219.54 52.5801L219.54 49.2578L223.208 49.2578C223.841 49.2578 224.372 49.1484 224.802 48.9297C225.232 48.707 225.558 48.3945 225.781 47.9922C226.003 47.5898 226.115 47.1211 226.115 46.5859C226.115 46.0469 226.003 45.5801 225.781 45.1855C225.558 44.791 225.23 44.4863 224.796 44.2715C224.366 44.0566 223.835 43.9492 223.202 43.9492L221.122 43.9492L221.122 58L216.909 58ZM233.557 58L233.557 40.5449L240.764 40.5449C242.073 40.5449 243.202 40.7812 244.151 41.2539C245.104 41.7227 245.838 42.3926 246.354 43.2637C246.874 44.1309 247.133 45.1641 247.133 46.3633C247.133 47.5664 246.87 48.5918 246.342 49.4395C245.815 50.2832 245.065 50.9258 244.092 51.3672C243.12 51.8086 241.967 52.0293 240.635 52.0293L236.077 52.0293L236.077 48.7012L239.856 48.7012C240.489 48.7012 241.02 48.6191 241.45 48.4551C241.879 48.2871 242.206 48.0312 242.428 47.6875C242.651 47.3398 242.762 46.8984 242.762 46.3633C242.762 45.8203 242.651 45.3711 242.428 45.0156C242.206 44.6602 241.878 44.3945 241.444 44.2188C241.014 44.0391 240.483 43.9492 239.85 43.9492L237.77 43.9492L237.77 58L233.557 58ZM243.383 50.0254L247.731 58L243.12 58L238.866 50.0254L243.383 50.0254ZM266.914 49.2754C266.914 51.1973 266.545 52.8262 265.807 54.1621C265.072 55.4941 264.074 56.5078 262.813 57.2031C261.555 57.8945 260.145 58.2402 258.582 58.2402C257.012 58.2402 255.598 57.8906 254.34 57.1914C253.086 56.4922 252.09 55.4766 251.352 54.1445C250.617 52.8086 250.25 51.1855 250.25 49.2754C250.25 47.3496 250.617 45.7207 251.352 44.3887C252.09 43.0527 253.086 42.0391 254.34 41.3477C255.598 40.6523 257.012 40.3047 258.582 40.3047C260.145 40.3047 261.555 40.6523 262.813 41.3477C264.074 42.0391 265.072 43.0527 265.807 44.3887C266.545 45.7207 266.914 47.3496 266.914 49.2754ZM262.608 49.2754C262.608 48.1348 262.445 47.1738 262.121 46.3926C261.801 45.6074 261.34 45.0137 260.738 44.6113C260.141 44.2051 259.422 44.002 258.582 44.002C257.742 44.002 257.022 44.2051 256.42 44.6113C255.822 45.0137 255.363 45.6074 255.043 46.3926C254.723 47.1738 254.563 48.1348 254.563 49.2754C254.563 50.4121 254.723 51.373 255.043 52.1582C255.363 52.9395 255.822 53.5332 256.42 53.9395C257.022 54.3418 257.742 54.543 258.582 54.543C259.422 54.543 260.141 54.3418 260.738 53.9395C261.34 53.5332 261.801 52.9395 262.121 52.1582C262.445 51.373 262.608 50.4121 262.608 49.2754Z" fill="rgb(218,41,28)" fill-rule="nonzero" />
	<path id="Форма 1" d="M53.6173 32L62 36.2645L70.3826 40.5289L65.3205 43.1041L53.6173 37.1505L53.6173 32ZM71 41.4711L71 50L71 58.5289L65.9378 55.9536L65.9378 44.0463L71 41.4711ZM70.3826 59.471L62 63.7355L53.6173 68L53.6173 62.8494L65.3204 56.8958L70.3826 59.471ZM52.3827 68L44 63.7355L35.6174 59.4711L40.6796 56.8958L52.3827 62.8494L52.3827 68ZM35 58.5289L35 50L35 41.4711L40.0622 44.0463L40.0622 55.9536L35 58.5289ZM35.6174 40.5289L44 36.2645L52.3827 32L52.3827 37.1505L40.6795 43.1041L35.6174 40.5289ZM53 39.2233L42.4081 44.6116L42.4081 55.3883L53 60.7766L63.5919 55.3883L63.5919 44.6116L53 39.2233ZM53 40.7308L43.8898 45.3654L43.8898 54.6346L53 59.2692L62.1102 54.6346L62.1102 45.3654L53 40.7308Z" fill="rgb(218,41,28)" fill-rule="evenodd" />
</svg>
