<svg viewBox="0 0 300 100" xmlns="http://www.w3.org/2000/svg" xmlns:xlink="http://www.w3.org/1999/xlink" width="300.000000" height="100.000000" fill="none" clip-path="url(#clipPath_9)" customFrame="url(#clipPath_9)">
	<defs>
		<clipPath id="clipPath_9">
			<rect width="300.000000" height="100.000000" x="0.000000" y="0.000000" rx="25.000000" fill="rgb(255,255,255)" />
		</clipPath>
	</defs>
	<rect id="фрейм 2" width="300.000000" height="100.000000" x="0.000000" y="0.000000" rx="25.000000" fill="rgb(26,26,26)" />
	<path id="" d="M65.7578 45.7832Q65.6758 44.8398 65.002 44.3184Q64.3281 43.791 63.0918 43.791Q62.2773 43.791 61.7324 44.0078Q61.1875 44.2188 60.9121 44.5938Q60.6367 44.9629 60.6309 45.4316Q60.6191 45.8242 60.7891 46.1289Q60.9648 46.4277 61.2988 46.6562Q61.6387 46.8789 62.1133 47.0547Q62.5938 47.2246 63.1914 47.3477L64.6914 47.6934Q65.9863 47.9746 66.9766 48.4375Q67.9727 48.9004 68.6465 49.5508Q69.3262 50.2012 69.6777 51.0449Q70.0293 51.8887 70.0352 52.9316Q70.0293 54.5957 69.1973 55.7793Q68.3711 56.9629 66.8242 57.5957Q65.2773 58.2227 63.0977 58.2227Q60.9062 58.2227 59.2773 57.5664Q57.6484 56.9043 56.7461 55.5684Q55.8438 54.2266 55.8203 52.1934L59.8574 52.1934Q59.9043 53.0312 60.3086 53.5996Q60.7129 54.1621 61.4102 54.4492Q62.1133 54.7363 63.0449 54.7363Q63.8945 54.7363 64.4922 54.5078Q65.0957 54.2734 65.418 53.8691Q65.7461 53.459 65.752 52.9258Q65.7461 52.4336 65.4473 52.082Q65.1484 51.7305 64.5332 51.4668Q63.918 51.2031 62.957 50.9863L61.1348 50.5586Q58.873 50.043 57.5664 48.8828Q56.2598 47.7168 56.2656 45.7246Q56.2598 44.1016 57.1387 42.8887Q58.0176 41.6699 59.5645 40.9902Q61.1172 40.3047 63.1094 40.3047Q65.1367 40.3047 66.6309 40.9961Q68.1309 41.6816 68.9512 42.918Q69.7773 44.1484 69.7949 45.7832L65.7578 45.7832ZM80.5593 44.9102L80.5593 47.9746L72.3034 47.9746L72.3034 44.9102L80.5593 44.9102ZM74.032 41.7754L78.198 41.7754L78.198 53.8809Q78.198 54.2676 78.321 54.502Q78.4499 54.7305 78.6843 54.8301Q78.9245 54.9297 79.2585 54.9297Q79.4929 54.9297 79.7624 54.8828Q80.0378 54.8359 80.1726 54.8008L80.7995 57.8066Q80.5066 57.9004 79.9616 58.0234Q79.4226 58.1523 78.6726 58.1816Q77.2019 58.252 76.1589 57.8418Q75.1218 57.4316 74.571 56.5527Q74.0202 55.6738 74.032 54.3438L74.032 41.7754ZM87.3819 58.2227Q86.1339 58.2227 85.1612 57.8008Q84.1944 57.373 83.6378 56.5176Q83.0811 55.6621 83.0811 54.3672Q83.0811 53.2832 83.462 52.5332Q83.8429 51.7773 84.5167 51.3086Q85.1905 50.8398 86.0694 50.5996Q86.9483 50.3535 87.9444 50.2656Q89.0636 50.1719 89.7433 50.0547Q90.4288 49.9375 90.7335 49.7207Q91.044 49.498 91.044 49.0996L91.044 49.0586Q91.044 48.4023 90.5929 48.0449Q90.1417 47.6816 89.3741 47.6816Q88.5479 47.6816 88.044 48.0449Q87.546 48.4082 87.4112 49.0352L83.5675 48.9004Q83.7374 47.7051 84.4464 46.7617Q85.1612 45.8184 86.4093 45.2793Q87.6573 44.7402 89.4151 44.7402Q90.669 44.7402 91.7237 45.0332Q92.7843 45.3203 93.5636 45.8828Q94.3429 46.4395 94.7765 47.2539Q95.2101 48.0625 95.2101 49.0996L95.2101 58L91.2901 58L91.2901 56.1719L91.1905 56.1719Q90.8331 56.8457 90.2882 57.3027Q89.7491 57.7598 89.0226 57.9941Q88.296 58.2227 87.3819 58.2227ZM88.671 55.4922Q89.339 55.4922 89.8839 55.2227Q90.4288 54.9473 90.7511 54.4668Q91.0733 53.9863 91.0733 53.3418L91.0733 52.0996Q90.8976 52.1934 90.6397 52.2754Q90.3878 52.3516 90.089 52.4219Q89.7901 52.4863 89.4796 52.5391Q89.169 52.5918 88.8761 52.6328Q88.2843 52.7207 87.8683 52.9199Q87.4581 53.1191 87.2413 53.4297Q87.0304 53.7402 87.0304 54.168Q87.0304 54.8125 87.4933 55.1523Q87.9561 55.4922 88.671 55.4922ZM98.7504 58L98.7504 44.9102L102.793 44.9102L102.793 47.2949L102.928 47.2949Q103.286 45.9941 104.094 45.3672Q104.909 44.7344 105.981 44.7344Q106.274 44.7344 106.578 44.7754Q106.889 44.8105 107.147 44.8809L107.147 48.502Q106.848 48.4023 106.368 48.3438Q105.887 48.2852 105.512 48.2852Q104.768 48.2852 104.176 48.6133Q103.59 48.9414 103.25 49.5273Q102.916 50.1133 102.916 50.8867L102.916 58L98.7504 58ZM109.858 58L109.858 40.5449L117.065 40.5449Q119.028 40.5449 120.452 41.2539Q121.882 41.957 122.655 43.2637Q123.434 44.5645 123.434 46.3633Q123.434 48.168 122.643 49.4395Q121.852 50.7051 120.393 51.3672Q118.934 52.0293 116.936 52.0293L112.378 52.0293L112.378 48.7012L116.157 48.7012Q117.106 48.7012 117.751 48.4551Q118.395 48.2031 118.729 47.6875Q119.063 47.166 119.063 46.3633Q119.063 45.5488 118.729 45.0156Q118.395 44.4824 117.745 44.2188Q117.1 43.9492 116.151 43.9492L114.071 43.9492L114.071 58L109.858 58ZM119.684 50.0254L124.032 58L119.421 58L115.167 50.0254L119.684 50.0254ZM132.603 58.2461Q130.546 58.2461 129.064 57.4023Q127.587 56.5527 126.79 55.0352Q125.994 53.5117 125.994 51.4961Q125.994 49.4746 126.79 47.957Q127.587 46.4336 129.064 45.5898Q130.546 44.7402 132.603 44.7402Q134.665 44.7402 136.142 45.5898Q137.624 46.4336 138.421 47.957Q139.218 49.4746 139.218 51.4961Q139.218 53.5117 138.421 55.0352Q137.624 56.5527 136.142 57.4023Q134.665 58.2461 132.603 58.2461ZM132.632 55.0996Q133.376 55.0996 133.898 54.6426Q134.419 54.1855 134.695 53.3711Q134.97 52.5508 134.97 51.4668Q134.97 50.3828 134.695 49.5684Q134.419 48.748 133.898 48.291Q133.376 47.8281 132.632 47.8281Q131.859 47.8281 131.32 48.291Q130.787 48.748 130.511 49.5684Q130.242 50.3828 130.242 51.4668Q130.242 52.5508 130.511 53.3711Q130.787 54.1855 131.32 54.6426Q131.859 55.0996 132.632 55.0996ZM148.467 58.2461Q146.398 58.2461 144.916 57.3965Q143.439 56.541 142.648 55.0176Q141.857 53.4941 141.857 51.4961Q141.857 49.4863 142.648 47.9629Q143.445 46.4395 144.922 45.5898Q146.404 44.7402 148.461 44.7402Q150.277 44.7402 151.625 45.3965Q152.978 46.0527 153.74 47.2539Q154.502 48.4492 154.543 50.0547L150.652 50.0547Q150.529 49.0527 149.972 48.4844Q149.416 47.9102 148.525 47.9102Q147.799 47.9102 147.254 48.3145Q146.709 48.7188 146.404 49.5098Q146.105 50.3008 146.105 51.4551Q146.105 52.6152 146.404 53.4121Q146.703 54.2031 147.248 54.6133Q147.793 55.0176 148.525 55.0176Q149.094 55.0176 149.539 54.7715Q149.99 54.5254 150.277 54.0449Q150.57 53.5586 150.652 52.873L154.543 52.873Q154.49 54.4902 153.74 55.7031Q152.996 56.9102 151.654 57.5781Q150.312 58.2461 148.467 58.2461ZM161.444 54.5664L161.461 49.5918L162.036 49.5918L165.721 44.9102L170.444 44.9102L164.971 51.625L163.87 51.625L161.444 54.5664ZM157.688 58L157.688 40.5449L161.854 40.5449L161.854 58L157.688 58ZM165.815 58L162.393 52.5566L165.129 49.6094L170.637 58L165.815 58ZM184.372 48.9062L180.546 49.0059Q180.487 48.5957 180.224 48.2793Q179.96 47.9629 179.538 47.7812Q179.116 47.5938 178.566 47.5938Q177.839 47.5938 177.329 47.8809Q176.825 48.168 176.831 48.666Q176.825 49.0469 177.142 49.334Q177.458 49.6152 178.29 49.7852L180.804 50.2598Q182.767 50.6406 183.728 51.5078Q184.689 52.375 184.694 53.8047Q184.689 55.1523 183.898 56.1543Q183.112 57.1504 181.747 57.7012Q180.382 58.2461 178.624 58.2461Q175.823 58.2461 174.206 57.0918Q172.595 55.9316 172.366 53.9922L176.485 53.8926Q176.614 54.6016 177.183 54.9766Q177.757 55.3516 178.648 55.3516Q179.444 55.3516 179.948 55.0586Q180.452 54.7598 180.458 54.2617Q180.452 53.8281 180.066 53.5586Q179.679 53.2891 178.87 53.1309L176.579 52.7031Q174.616 52.3398 173.65 51.3789Q172.689 50.4121 172.694 48.9062Q172.689 47.5938 173.392 46.6621Q174.101 45.7305 175.407 45.2383Q176.714 44.7402 178.483 44.7402Q181.138 44.7402 182.673 45.8535Q184.208 46.9609 184.372 48.9062ZM193.909 58L193.909 40.5449L201.116 40.5449Q203.079 40.5449 204.503 41.3066Q205.933 42.0684 206.706 43.4336Q207.486 44.793 207.486 46.5859Q207.486 48.3965 206.695 49.75Q205.904 51.0977 204.445 51.8418Q202.986 52.5801 200.988 52.5801L196.54 52.5801L196.54 49.2578L200.208 49.2578Q201.158 49.2578 201.802 48.9297Q202.447 48.5957 202.781 47.9922Q203.115 47.3887 203.115 46.5859Q203.115 45.7773 202.781 45.1855Q202.447 44.5938 201.796 44.2715Q201.152 43.9492 200.202 43.9492L198.122 43.9492L198.122 58L193.909 58ZM210.557 58L210.557 40.5449L217.764 40.5449Q219.727 40.5449 221.151 41.2539Q222.581 41.957 223.354 43.2637Q224.133 44.5645 224.133 46.3633Q224.133 48.168 223.342 49.4395Q222.551 50.7051 221.092 51.3672Q219.633 52.0293 217.635 52.0293L213.077 52.0293L213.077 48.7012L216.856 48.7012Q217.805 48.7012 218.45 48.4551Q219.094 48.2031 219.428 47.6875Q219.762 47.166 219.762 46.3633Q219.762 45.5488 219.428 45.0156Q219.094 44.4824 218.444 44.2188Q217.799 43.9492 216.85 43.9492L214.77 43.9492L214.77 58L210.557 58ZM220.383 50.0254L224.731 58L220.12 58L215.866 50.0254L220.383 50.0254ZM243.914 49.2754Q243.914 52.1582 242.807 54.1621Q241.705 56.1602 239.813 57.2031Q237.926 58.2402 235.582 58.2402Q233.227 58.2402 231.34 57.1914Q229.459 56.1426 228.352 54.1445Q227.25 52.1406 227.25 49.2754Q227.25 46.3867 228.352 44.3887Q229.459 42.3848 231.34 41.3477Q233.227 40.3047 235.582 40.3047Q237.926 40.3047 239.813 41.3477Q241.705 42.3848 242.807 44.3887Q243.914 46.3867 243.914 49.2754ZM239.608 49.2754Q239.608 47.5645 239.121 46.3926Q238.641 45.2148 237.738 44.6113Q236.842 44.002 235.582 44.002Q234.322 44.002 233.42 44.6113Q232.524 45.2148 232.043 46.3926Q231.563 47.5645 231.563 49.2754Q231.563 50.9805 232.043 52.1582Q232.524 53.3301 233.42 53.9395Q234.322 54.543 235.582 54.543Q236.842 54.543 237.738 53.9395Q238.641 53.3301 239.121 52.1582Q239.608 50.9805 239.608 49.2754Z" fill="rgb(245,247,250)" fill-rule="nonzero" />
	<path id="" d="" fill="rgb(245,247,250)" fill-rule="nonzero" />
	<path id="" d="" fill="rgb(218,41,28)" fill-rule="nonzero" />
</svg>
