<svg viewBox="0 0 300 100" xmlns="http://www.w3.org/2000/svg" xmlns:xlink="http://www.w3.org/1999/xlink" width="300.000000" height="100.000000" fill="none" clip-path="url(#clipPath_3)" customFrame="url(#clipPath_3)">
	<defs>
		<clipPath id="clipPath_3">
			<rect width="300.000000" height="100.000000" x="0.000000" y="0.000000" rx="25.000000" fill="rgb(255,255,255)" />
		</clipPath>
	</defs>
	<rect id="фрейм 1" width="300.000000" height="100.000000" x="0.000000" y="0.000000" rx="25.000000" fill="rgb(255,255,255)" />
	<path id="" d="M42.7578 45.7832Q42.6758 44.8398 42.002 44.3184Q41.3281 43.791 40.0918 43.791Q39.2773 43.791 38.7324 44.0078Q38.1875 44.2188 37.9121 44.5938Q37.6367 44.9629 37.6309 45.4316Q37.6191 45.8242 37.7891 46.1289Q37.9648 46.4277 38.2988 46.6562Q38.6387 46.8789 39.1133 47.0547Q39.5938 47.2246 40.1914 47.3477L41.6914 47.6934Q42.9863 47.9746 43.9766 48.4375Q44.9727 48.9004 45.6465 49.5508Q46.3262 50.2012 46.6777 51.0449Q47.0293 51.8887 47.0352 52.9316Q47.0293 54.5957 46.1973 55.7793Q45.3711 56.9629 43.8242 57.5957Q42.2773 58.2227 40.0977 58.2227Q37.9062 58.2227 36.2773 57.5664Q34.6484 56.9043 33.7461 55.5684Q32.8438 54.2266 32.8203 52.1934L36.8574 52.1934Q36.9043 53.0312 37.3086 53.5996Q37.7129 54.1621 38.4102 54.4492Q39.1133 54.7363 40.0449 54.7363Q40.8945 54.7363 41.4922 54.5078Q42.0957 54.2734 42.418 53.8691Q42.7461 53.459 42.752 52.9258Q42.7461 52.4336 42.4473 52.082Q42.1484 51.7305 41.5332 51.4668Q40.918 51.2031 39.957 50.9863L38.1348 50.5586Q35.873 50.043 34.5664 48.8828Q33.2598 47.7168 33.2656 45.7246Q33.2598 44.1016 34.1387 42.8887Q35.0176 41.6699 36.5645 40.9902Q38.1172 40.3047 40.1094 40.3047Q42.1367 40.3047 43.6309 40.9961Q45.1309 41.6816 45.9512 42.918Q46.7773 44.1484 46.7949 45.7832L42.7578 45.7832ZM49.6023 43.9727L49.6023 40.5449L64.3562 40.5449L64.3562 43.9727L59.0593 43.9727L59.0593 58L54.8991 58L54.8991 43.9727L49.6023 43.9727ZM69.0151 58L64.4799 58L70.3745 40.5449L75.9936 40.5449L81.8823 58L77.3471 58L73.2514 44.9453L73.1167 44.9453L69.0151 58ZM68.4174 51.127L77.892 51.127L77.892 54.3379L68.4174 54.3379L68.4174 51.127ZM84.7674 58L84.7674 40.5449L91.9744 40.5449Q93.9373 40.5449 95.3611 41.2539Q96.7908 41.957 97.5643 43.2637Q98.3436 44.5645 98.3436 46.3633Q98.3436 48.168 97.5526 49.4395Q96.7615 50.7051 95.3026 51.3672Q93.8436 52.0293 91.8455 52.0293L87.2869 52.0293L87.2869 48.7012L91.0662 48.7012Q92.0154 48.7012 92.66 48.4551Q93.3045 48.2031 93.6385 47.6875Q93.9725 47.166 93.9725 46.3633Q93.9725 45.5488 93.6385 45.0156Q93.3045 44.4824 92.6541 44.2188Q92.0096 43.9492 91.0604 43.9492L88.9803 43.9492L88.9803 58L84.7674 58ZM94.5936 50.0254L98.9412 58L94.3299 58L90.076 50.0254L94.5936 50.0254ZM101.654 58L101.654 40.5449L108.861 40.5449Q110.824 40.5449 112.248 41.2539Q113.677 41.957 114.451 43.2637Q115.23 44.5645 115.23 46.3633Q115.23 48.168 114.439 49.4395Q113.648 50.7051 112.189 51.3672Q110.73 52.0293 108.732 52.0293L104.173 52.0293L104.173 48.7012L107.953 48.7012Q108.902 48.7012 109.546 48.4551Q110.191 48.2031 110.525 47.6875Q110.859 47.166 110.859 46.3633Q110.859 45.5488 110.525 45.0156Q110.191 44.4824 109.54 44.2188Q108.896 43.9492 107.947 43.9492L105.867 43.9492L105.867 58L101.654 58ZM111.48 50.0254L115.828 58L111.216 58L106.962 50.0254L111.48 50.0254Z" fill="rgb(26,26,26)" fill-rule="nonzero" />
	<path id="" d="M172.168 46.873L167.902 46.873Q167.82 46.2109 167.551 45.6895Q167.287 45.1621 166.854 44.7871Q166.42 44.4062 165.828 44.207Q165.236 44.002 164.516 44.002Q163.244 44.002 162.33 44.6289Q161.416 45.25 160.93 46.4277Q160.443 47.6055 160.443 49.2754Q160.443 51.0098 160.936 52.1875Q161.434 53.3594 162.342 53.9512Q163.256 54.543 164.492 54.543Q165.189 54.543 165.764 54.3613Q166.344 54.1797 166.783 53.834Q167.223 53.4883 167.51 52.9902Q167.797 52.4922 167.902 51.8652L172.168 51.8887Q172.051 53.043 171.494 54.1738Q170.943 55.2988 169.965 56.2246Q168.992 57.1445 167.598 57.6953Q166.209 58.2402 164.41 58.2402Q162.037 58.2402 160.168 57.1973Q158.299 56.1543 157.215 54.1504Q156.131 52.1406 156.131 49.2754Q156.131 46.3867 157.227 44.3887Q158.328 42.3848 160.203 41.3477Q162.078 40.3047 164.41 40.3047Q165.998 40.3047 167.34 40.7441Q168.682 41.1836 169.707 42.0215Q170.738 42.8594 171.371 44.084Q172.01 45.3027 172.168 46.873ZM175.571 58L175.571 40.5449L179.784 40.5449L179.784 47.9219L180.013 47.9219L185.784 40.5449L190.753 40.5449L184.571 48.3379L190.864 58L185.825 58L181.472 51.1387L179.784 53.2656L179.784 58L175.571 58ZM202.667 45.7832Q202.585 44.8398 201.911 44.3184Q201.237 43.791 200.001 43.791Q199.186 43.791 198.642 44.0078Q198.097 44.2188 197.821 44.5938Q197.546 44.9629 197.54 45.4316Q197.528 45.8242 197.698 46.1289Q197.874 46.4277 198.208 46.6562Q198.548 46.8789 199.022 47.0547Q199.503 47.2246 200.1 47.3477L201.6 47.6934Q202.895 47.9746 203.886 48.4375Q204.882 48.9004 205.556 49.5508Q206.235 50.2012 206.587 51.0449Q206.938 51.8887 206.944 52.9316Q206.938 54.5957 206.106 55.7793Q205.28 56.9629 203.733 57.5957Q202.186 58.2227 200.007 58.2227Q197.815 58.2227 196.186 57.5664Q194.558 56.9043 193.655 55.5684Q192.753 54.2266 192.729 52.1934L196.767 52.1934Q196.813 53.0312 197.218 53.5996Q197.622 54.1621 198.319 54.4492Q199.022 54.7363 199.954 54.7363Q200.804 54.7363 201.401 54.5078Q202.005 54.2734 202.327 53.8691Q202.655 53.459 202.661 52.9258Q202.655 52.4336 202.356 52.082Q202.058 51.7305 201.442 51.4668Q200.827 51.2031 199.866 50.9863L198.044 50.5586Q195.782 50.043 194.475 48.8828Q193.169 47.7168 193.175 45.7246Q193.169 44.1016 194.048 42.8887Q194.927 41.6699 196.474 40.9902Q198.026 40.3047 200.018 40.3047Q202.046 40.3047 203.54 40.9961Q205.04 41.6816 205.86 42.918Q206.686 44.1484 206.704 45.7832L202.667 45.7832Z" fill="rgb(26,26,26)" fill-rule="nonzero" />
	<path id="" d="M216.25 58L216.25 40.5449L223.457 40.5449Q225.42 40.5449 226.844 41.3066Q228.274 42.0684 229.047 43.4336Q229.827 44.793 229.827 46.5859Q229.827 48.3965 229.036 49.75Q228.244 51.0977 226.786 51.8418Q225.327 52.5801 223.328 52.5801L218.881 52.5801L218.881 49.2578L222.549 49.2578Q223.498 49.2578 224.143 48.9297Q224.787 48.5957 225.121 47.9922Q225.455 47.3887 225.455 46.5859Q225.455 45.7773 225.121 45.1855Q224.787 44.5938 224.137 44.2715Q223.493 43.9492 222.543 43.9492L220.463 43.9492L220.463 58L216.25 58ZM232.898 58L232.898 40.5449L240.105 40.5449Q242.068 40.5449 243.492 41.2539Q244.922 41.957 245.695 43.2637Q246.474 44.5645 246.474 46.3633Q246.474 48.168 245.683 49.4395Q244.892 50.7051 243.433 51.3672Q241.974 52.0293 239.976 52.0293L235.418 52.0293L235.418 48.7012L239.197 48.7012Q240.146 48.7012 240.791 48.4551Q241.435 48.2031 241.769 47.6875Q242.103 47.166 242.103 46.3633Q242.103 45.5488 241.769 45.0156Q241.435 44.4824 240.785 44.2188Q240.14 43.9492 239.191 43.9492L237.111 43.9492L237.111 58L232.898 58ZM242.724 50.0254L247.072 58L242.461 58L238.207 50.0254L242.724 50.0254ZM266.255 49.2754Q266.255 52.1582 265.148 54.1621Q264.046 56.1602 262.154 57.2031Q260.267 58.2402 257.923 58.2402Q255.568 58.2402 253.681 57.1914Q251.8 56.1426 250.693 54.1445Q249.591 52.1406 249.591 49.2754Q249.591 46.3867 250.693 44.3887Q251.8 42.3848 253.681 41.3477Q255.568 40.3047 257.923 40.3047Q260.267 40.3047 262.154 41.3477Q264.046 42.3848 265.148 44.3887Q266.255 46.3867 266.255 49.2754ZM261.949 49.2754Q261.949 47.5645 261.462 46.3926Q260.982 45.2148 260.079 44.6113Q259.183 44.002 257.923 44.002Q256.663 44.002 255.761 44.6113Q254.865 45.2148 254.384 46.3926Q253.904 47.5645 253.904 49.2754Q253.904 50.9805 254.384 52.1582Q254.865 53.3301 255.761 53.9395Q256.663 54.543 257.923 54.543Q259.183 54.543 260.079 53.9395Q260.982 53.3301 261.462 52.1582Q261.949 50.9805 261.949 49.2754Z" fill="rgb(26,26,26)" fill-rule="nonzero" />
	<path id="" d="M216.25 58L216.25 40.5449L223.457 40.5449Q225.42 40.5449 226.844 41.3066Q228.274 42.0684 229.047 43.4336Q229.827 44.793 229.827 46.5859Q229.827 48.3965 229.036 49.75Q228.244 51.0977 226.786 51.8418Q225.327 52.5801 223.328 52.5801L218.881 52.5801L218.881 49.2578L222.549 49.2578Q223.498 49.2578 224.143 48.9297Q224.787 48.5957 225.121 47.9922Q225.455 47.3887 225.455 46.5859Q225.455 45.7773 225.121 45.1855Q224.787 44.5938 224.137 44.2715Q223.493 43.9492 222.543 43.9492L220.463 43.9492L220.463 58L216.25 58ZM232.898 58L232.898 40.5449L240.105 40.5449Q242.068 40.5449 243.492 41.2539Q244.922 41.957 245.695 43.2637Q246.474 44.5645 246.474 46.3633Q246.474 48.168 245.683 49.4395Q244.892 50.7051 243.433 51.3672Q241.974 52.0293 239.976 52.0293L235.418 52.0293L235.418 48.7012L239.197 48.7012Q240.146 48.7012 240.791 48.4551Q241.435 48.2031 241.769 47.6875Q242.103 47.166 242.103 46.3633Q242.103 45.5488 241.769 45.0156Q241.435 44.4824 240.785 44.2188Q240.14 43.9492 239.191 43.9492L237.111 43.9492L237.111 58L232.898 58ZM242.724 50.0254L247.072 58L242.461 58L238.207 50.0254L242.724 50.0254ZM266.255 49.2754Q266.255 52.1582 265.148 54.1621Q264.046 56.1602 262.154 57.2031Q260.267 58.2402 257.923 58.2402Q255.568 58.2402 253.681 57.1914Q251.8 56.1426 250.693 54.1445Q249.591 52.1406 249.591 49.2754Q249.591 46.3867 250.693 44.3887Q251.8 42.3848 253.681 41.3477Q255.568 40.3047 257.923 40.3047Q260.267 40.3047 262.154 41.3477Q264.046 42.3848 265.148 44.3887Q266.255 46.3867 266.255 49.2754ZM261.949 49.2754Q261.949 47.5645 261.462 46.3926Q260.982 45.2148 260.079 44.6113Q259.183 44.002 257.923 44.002Q256.663 44.002 255.761 44.6113Q254.865 45.2148 254.384 46.3926Q253.904 47.5645 253.904 49.2754Q253.904 50.9805 254.384 52.1582Q254.865 53.3301 255.761 53.9395Q256.663 54.543 257.923 54.543Q259.183 54.543 260.079 53.9395Q260.982 53.3301 261.462 52.1582Q261.949 50.9805 261.949 49.2754Z" fill="rgb(218,41,28)" fill-rule="nonzero" />
	<path id="Форма 1" d="M136.617 32L145 36.2645L153.383 40.5289L148.32 43.1041L136.617 37.1505L136.617 32ZM154 41.4711L154 50L154 58.5289L148.938 55.9536L148.938 44.0463L154 41.4711ZM153.383 59.471L145 63.7355L136.617 68L136.617 62.8494L148.32 56.8958L153.383 59.471ZM135.383 68L127 63.7355L118.617 59.4711L123.68 56.8958L135.383 62.8494L135.383 68ZM118 58.5289L118 50L118 41.4711L123.062 44.0463L123.062 55.9536L118 58.5289ZM118.617 40.5289L127 36.2645L135.383 32L135.383 37.1505L123.68 43.1041L118.617 40.5289ZM136 39.2233L125.408 44.6116L125.408 55.3883L136 60.7766L146.592 55.3883L146.592 44.6116L136 39.2233ZM136 40.7308L126.89 45.3654L126.89 54.6346L136 59.2692L145.11 54.6346L145.11 45.3654L136 40.7308Z" fill="rgb(218,41,28)" fill-rule="evenodd" />
</svg>
