<svg viewBox="0 0 300 100" xmlns="http://www.w3.org/2000/svg" xmlns:xlink="http://www.w3.org/1999/xlink" width="300.000000" height="100.000000" fill="none" clip-path="url(#clipPath_6)" customFrame="url(#clipPath_6)">
	<defs>
		<clipPath id="clipPath_6">
			<rect width="300.000000" height="100.000000" x="0.000000" y="0.000000" rx="25.000000" fill="rgb(255,255,255)" />
		</clipPath>
	</defs>
	<rect id="фрейм 1" width="300.000000" height="100.000000" x="0.000000" y="0.000000" rx="25.000000" fill="rgb(255,255,255)" />
	<path id="" d="M88.7578 45.7832Q88.6758 44.8398 88.002 44.3184Q87.3281 43.791 86.0918 43.791Q85.2773 43.791 84.7324 44.0078Q84.1875 44.2188 83.9121 44.5938Q83.6367 44.9629 83.6309 45.4316Q83.6191 45.8242 83.7891 46.1289Q83.9648 46.4277 84.2988 46.6562Q84.6387 46.8789 85.1133 47.0547Q85.5938 47.2246 86.1914 47.3477L87.6914 47.6934Q88.9863 47.9746 89.9766 48.4375Q90.9727 48.9004 91.6465 49.5508Q92.3262 50.2012 92.6777 51.0449Q93.0293 51.8887 93.0352 52.9316Q93.0293 54.5957 92.1973 55.7793Q91.3711 56.9629 89.8242 57.5957Q88.2773 58.2227 86.0977 58.2227Q83.9062 58.2227 82.2773 57.5664Q80.6484 56.9043 79.7461 55.5684Q78.8438 54.2266 78.8203 52.1934L82.8574 52.1934Q82.9043 53.0312 83.3086 53.5996Q83.7129 54.1621 84.4102 54.4492Q85.1133 54.7363 86.0449 54.7363Q86.8945 54.7363 87.4922 54.5078Q88.0957 54.2734 88.418 53.8691Q88.7461 53.459 88.752 52.9258Q88.7461 52.4336 88.4473 52.082Q88.1484 51.7305 87.5332 51.4668Q86.918 51.2031 85.957 50.9863L84.1348 50.5586Q81.873 50.043 80.5664 48.8828Q79.2598 47.7168 79.2656 45.7246Q79.2598 44.1016 80.1387 42.8887Q81.0176 41.6699 82.5645 40.9902Q84.1172 40.3047 86.1094 40.3047Q88.1367 40.3047 89.6309 40.9961Q91.1309 41.6816 91.9512 42.918Q92.7773 44.1484 92.7949 45.7832L88.7578 45.7832ZM103.559 44.9102L103.559 47.9746L95.3034 47.9746L95.3034 44.9102L103.559 44.9102ZM97.032 41.7754L101.198 41.7754L101.198 53.8809Q101.198 54.2676 101.321 54.502Q101.45 54.7305 101.684 54.8301Q101.925 54.9297 102.259 54.9297Q102.493 54.9297 102.762 54.8828Q103.038 54.8359 103.173 54.8008L103.8 57.8066Q103.507 57.9004 102.962 58.0234Q102.423 58.1523 101.673 58.1816Q100.202 58.252 99.1589 57.8418Q98.1218 57.4316 97.571 56.5527Q97.0202 55.6738 97.032 54.3438L97.032 41.7754ZM110.382 58.2227Q109.134 58.2227 108.161 57.8008Q107.194 57.373 106.638 56.5176Q106.081 55.6621 106.081 54.3672Q106.081 53.2832 106.462 52.5332Q106.843 51.7773 107.517 51.3086Q108.191 50.8398 109.069 50.5996Q109.948 50.3535 110.944 50.2656Q112.064 50.1719 112.743 50.0547Q113.429 49.9375 113.733 49.7207Q114.044 49.498 114.044 49.0996L114.044 49.0586Q114.044 48.4023 113.593 48.0449Q113.142 47.6816 112.374 47.6816Q111.548 47.6816 111.044 48.0449Q110.546 48.4082 110.411 49.0352L106.567 48.9004Q106.737 47.7051 107.446 46.7617Q108.161 45.8184 109.409 45.2793Q110.657 44.7402 112.415 44.7402Q113.669 44.7402 114.724 45.0332Q115.784 45.3203 116.564 45.8828Q117.343 46.4395 117.776 47.2539Q118.21 48.0625 118.21 49.0996L118.21 58L114.29 58L114.29 56.1719L114.191 56.1719Q113.833 56.8457 113.288 57.3027Q112.749 57.7598 112.023 57.9941Q111.296 58.2227 110.382 58.2227ZM111.671 55.4922Q112.339 55.4922 112.884 55.2227Q113.429 54.9473 113.751 54.4668Q114.073 53.9863 114.073 53.3418L114.073 52.0996Q113.898 52.1934 113.64 52.2754Q113.388 52.3516 113.089 52.4219Q112.79 52.4863 112.48 52.5391Q112.169 52.5918 111.876 52.6328Q111.284 52.7207 110.868 52.9199Q110.458 53.1191 110.241 53.4297Q110.03 53.7402 110.03 54.168Q110.03 54.8125 110.493 55.1523Q110.956 55.4922 111.671 55.4922ZM121.75 58L121.75 44.9102L125.793 44.9102L125.793 47.2949L125.928 47.2949Q126.286 45.9941 127.094 45.3672Q127.909 44.7344 128.981 44.7344Q129.274 44.7344 129.578 44.7754Q129.889 44.8105 130.147 44.8809L130.147 48.502Q129.848 48.4023 129.368 48.3438Q128.887 48.2852 128.512 48.2852Q127.768 48.2852 127.176 48.6133Q126.59 48.9414 126.25 49.5273Q125.916 50.1133 125.916 50.8867L125.916 58L121.75 58ZM132.858 58L132.858 40.5449L140.065 40.5449Q142.028 40.5449 143.452 41.2539Q144.882 41.957 145.655 43.2637Q146.434 44.5645 146.434 46.3633Q146.434 48.168 145.643 49.4395Q144.852 50.7051 143.393 51.3672Q141.934 52.0293 139.936 52.0293L135.378 52.0293L135.378 48.7012L139.157 48.7012Q140.106 48.7012 140.751 48.4551Q141.395 48.2031 141.729 47.6875Q142.063 47.166 142.063 46.3633Q142.063 45.5488 141.729 45.0156Q141.395 44.4824 140.745 44.2188Q140.1 43.9492 139.151 43.9492L137.071 43.9492L137.071 58L132.858 58ZM142.684 50.0254L147.032 58L142.421 58L138.167 50.0254L142.684 50.0254ZM155.603 58.2461Q153.546 58.2461 152.064 57.4023Q150.587 56.5527 149.79 55.0352Q148.994 53.5117 148.994 51.4961Q148.994 49.4746 149.79 47.957Q150.587 46.4336 152.064 45.5898Q153.546 44.7402 155.603 44.7402Q157.665 44.7402 159.142 45.5898Q160.624 46.4336 161.421 47.957Q162.218 49.4746 162.218 51.4961Q162.218 53.5117 161.421 55.0352Q160.624 56.5527 159.142 57.4023Q157.665 58.2461 155.603 58.2461ZM155.632 55.0996Q156.376 55.0996 156.898 54.6426Q157.419 54.1855 157.695 53.3711Q157.97 52.5508 157.97 51.4668Q157.97 50.3828 157.695 49.5684Q157.419 48.748 156.898 48.291Q156.376 47.8281 155.632 47.8281Q154.859 47.8281 154.32 48.291Q153.787 48.748 153.511 49.5684Q153.242 50.3828 153.242 51.4668Q153.242 52.5508 153.511 53.3711Q153.787 54.1855 154.32 54.6426Q154.859 55.0996 155.632 55.0996ZM171.467 58.2461Q169.398 58.2461 167.916 57.3965Q166.439 56.541 165.648 55.0176Q164.857 53.4941 164.857 51.4961Q164.857 49.4863 165.648 47.9629Q166.445 46.4395 167.922 45.5898Q169.404 44.7402 171.461 44.7402Q173.277 44.7402 174.625 45.3965Q175.978 46.0527 176.74 47.2539Q177.502 48.4492 177.543 50.0547L173.652 50.0547Q173.529 49.0527 172.972 48.4844Q172.416 47.9102 171.525 47.9102Q170.799 47.9102 170.254 48.3145Q169.709 48.7188 169.404 49.5098Q169.105 50.3008 169.105 51.4551Q169.105 52.6152 169.404 53.4121Q169.703 54.2031 170.248 54.6133Q170.793 55.0176 171.525 55.0176Q172.094 55.0176 172.539 54.7715Q172.99 54.5254 173.277 54.0449Q173.57 53.5586 173.652 52.873L177.543 52.873Q177.49 54.4902 176.74 55.7031Q175.996 56.9102 174.654 57.5781Q173.312 58.2461 171.467 58.2461ZM184.444 54.5664L184.461 49.5918L185.036 49.5918L188.721 44.9102L193.444 44.9102L187.971 51.625L186.87 51.625L184.444 54.5664ZM180.688 58L180.688 40.5449L184.854 40.5449L184.854 58L180.688 58ZM188.815 58L185.393 52.5566L188.129 49.6094L193.637 58L188.815 58ZM207.372 48.9062L203.546 49.0059Q203.487 48.5957 203.224 48.2793Q202.96 47.9629 202.538 47.7812Q202.116 47.5938 201.566 47.5938Q200.839 47.5938 200.329 47.8809Q199.825 48.168 199.831 48.666Q199.825 49.0469 200.142 49.334Q200.458 49.6152 201.29 49.7852L203.804 50.2598Q205.767 50.6406 206.728 51.5078Q207.689 52.375 207.694 53.8047Q207.689 55.1523 206.898 56.1543Q206.112 57.1504 204.747 57.7012Q203.382 58.2461 201.624 58.2461Q198.823 58.2461 197.206 57.0918Q195.595 55.9316 195.366 53.9922L199.485 53.8926Q199.614 54.6016 200.183 54.9766Q200.757 55.3516 201.648 55.3516Q202.444 55.3516 202.948 55.0586Q203.452 54.7598 203.458 54.2617Q203.452 53.8281 203.066 53.5586Q202.679 53.2891 201.87 53.1309L199.579 52.7031Q197.616 52.3398 196.65 51.3789Q195.689 50.4121 195.694 48.9062Q195.689 47.5938 196.392 46.6621Q197.101 45.7305 198.407 45.2383Q199.714 44.7402 201.483 44.7402Q204.138 44.7402 205.673 45.8535Q207.208 46.9609 207.372 48.9062ZM216.909 58L216.909 40.5449L224.116 40.5449Q226.079 40.5449 227.503 41.3066Q228.933 42.0684 229.706 43.4336Q230.486 44.793 230.486 46.5859Q230.486 48.3965 229.695 49.75Q228.904 51.0977 227.445 51.8418Q225.986 52.5801 223.988 52.5801L219.54 52.5801L219.54 49.2578L223.208 49.2578Q224.158 49.2578 224.802 48.9297Q225.447 48.5957 225.781 47.9922Q226.115 47.3887 226.115 46.5859Q226.115 45.7773 225.781 45.1855Q225.447 44.5938 224.796 44.2715Q224.152 43.9492 223.202 43.9492L221.122 43.9492L221.122 58L216.909 58ZM233.557 58L233.557 40.5449L240.764 40.5449Q242.727 40.5449 244.151 41.2539Q245.581 41.957 246.354 43.2637Q247.133 44.5645 247.133 46.3633Q247.133 48.168 246.342 49.4395Q245.551 50.7051 244.092 51.3672Q242.633 52.0293 240.635 52.0293L236.077 52.0293L236.077 48.7012L239.856 48.7012Q240.805 48.7012 241.45 48.4551Q242.094 48.2031 242.428 47.6875Q242.762 47.166 242.762 46.3633Q242.762 45.5488 242.428 45.0156Q242.094 44.4824 241.444 44.2188Q240.799 43.9492 239.85 43.9492L237.77 43.9492L237.77 58L233.557 58ZM243.383 50.0254L247.731 58L243.12 58L238.866 50.0254L243.383 50.0254ZM266.914 49.2754Q266.914 52.1582 265.807 54.1621Q264.705 56.1602 262.813 57.2031Q260.926 58.2402 258.582 58.2402Q256.227 58.2402 254.34 57.1914Q252.459 56.1426 251.352 54.1445Q250.25 52.1406 250.25 49.2754Q250.25 46.3867 251.352 44.3887Q252.459 42.3848 254.34 41.3477Q256.227 40.3047 258.582 40.3047Q260.926 40.3047 262.813 41.3477Q264.705 42.3848 265.807 44.3887Q266.914 46.3867 266.914 49.2754ZM262.608 49.2754Q262.608 47.5645 262.121 46.3926Q261.641 45.2148 260.738 44.6113Q259.842 44.002 258.582 44.002Q257.322 44.002 256.42 44.6113Q255.524 45.2148 255.043 46.3926Q254.563 47.5645 254.563 49.2754Q254.563 50.9805 255.043 52.1582Q255.524 53.3301 256.42 53.9395Q257.322 54.543 258.582 54.543Q259.842 54.543 260.738 53.9395Q261.641 53.3301 262.121 52.1582Q262.608 50.9805 262.608 49.2754Z" fill="rgb(26,26,26)" fill-rule="nonzero" />
	<path id="" d="" fill="rgb(26,26,26)" fill-rule="nonzero" />
	<path id="" d="" fill="rgb(218,41,28)" fill-rule="nonzero" />
	<path id="Форма 1" d="M53.6173 32L62 36.2645L70.3826 40.5289L65.3205 43.1041L53.6173 37.1505L53.6173 32ZM71 41.4711L71 50L71 58.5289L65.9378 55.9536L65.9378 44.0463L71 41.4711ZM70.3826 59.471L62 63.7355L53.6173 68L53.6173 62.8494L65.3204 56.8958L70.3826 59.471ZM52.3827 68L44 63.7355L35.6174 59.4711L40.6796 56.8958L52.3827 62.8494L52.3827 68ZM35 58.5289L35 50L35 41.4711L40.0622 44.0463L40.0622 55.9536L35 58.5289ZM35.6174 40.5289L44 36.2645L52.3827 32L52.3827 37.1505L40.6795 43.1041L35.6174 40.5289ZM53 39.2233L42.4081 44.6116L42.4081 55.3883L53 60.7766L63.5919 55.3883L63.5919 44.6116L53 39.2233ZM53 40.7308L43.8898 45.3654L43.8898 54.6346L53 59.2692L62.1102 54.6346L62.1102 45.3654L53 40.7308Z" fill="rgb(26,26,26)" fill-rule="evenodd" />
</svg>
