<svg viewBox="0 0 100 100" xmlns="http://www.w3.org/2000/svg" xmlns:xlink="http://www.w3.org/1999/xlink" width="100.000000" height="100.000000" fill="none" clip-path="url(#clipPath_1)" customFrame="url(#clipPath_1)">
	<defs>
		<clipPath id="clipPath_1">
			<rect width="100.000000" height="100.000000" x="0.000000" y="0.000000" rx="25.000000" fill="rgb(255,255,255)" />
		</clipPath>
	</defs>
	<rect id="фрейм 1" width="100.000000" height="100.000000" x="0.000000" y="0.000000" rx="25.000000" fill="rgb(26,26,26)" />
	<path id="Форма 1" d="M51.6146 17L66.75 24.6997L81.8853 32.3994L72.7453 37.0491L51.6146 26.2996L51.6146 17ZM83 34.1005L83 49.5L83 64.8994L73.8599 60.2496L73.8599 38.7503L83 34.1005ZM81.8853 66.6004L66.75 74.3002L51.6146 82L51.6146 72.7003L72.7452 61.9508L81.8853 66.6004ZM49.3854 82L34.25 74.3002L19.1147 66.6006L28.2548 61.9508L49.3854 72.7003L49.3854 82ZM18 64.8994L18 49.5L18 34.1005L27.1401 38.7503L27.1401 60.2496L18 64.8994ZM19.1147 32.3994L34.25 24.6997L49.3854 17L49.3854 26.2996L28.2547 37.0491L19.1147 32.3994ZM50.5 30.0421L31.3758 39.771L31.3758 59.2289L50.5 68.9578L69.6243 59.2289L69.6243 39.771L50.5 30.0421ZM50.5 32.7639L34.051 41.132L34.051 57.8681L50.5 66.2361L66.949 57.8681L66.949 41.132L50.5 32.7639Z" fill="rgb(218,41,28)" fill-rule="evenodd" />
</svg>
