<svg viewBox="0 0 300 100" xmlns="http://www.w3.org/2000/svg" xmlns:xlink="http://www.w3.org/1999/xlink" width="300.000000" height="100.000000" fill="none" clip-path="url(#clipPath_1)" customFrame="url(#clipPath_1)">
	<defs>
		<clipPath id="clipPath_1">
			<rect width="300.000000" height="100.000000" x="0.000000" y="0.000000" rx="25.000000" fill="rgb(255,255,255)" />
		</clipPath>
	</defs>
	<rect id="фрейм 2" width="300.000000" height="100.000000" x="0.000000" y="0.000000" rx="25.000000" fill="rgb(26,26,26)" />
	<path id="" d="M87.7578 46.7832C87.7031 46.1543 87.4512 45.666 87.002 45.3184C86.5527 44.9668 85.916 44.791 85.0918 44.791C84.5488 44.791 84.0957 44.8633 83.7324 45.0078C83.3691 45.1484 83.0957 45.3438 82.9121 45.5938C82.7285 45.8398 82.6348 46.1191 82.6309 46.4316C82.623 46.6934 82.6758 46.9258 82.7891 47.1289C82.9062 47.3281 83.0762 47.5039 83.2988 47.6562C83.5254 47.8047 83.7969 47.9375 84.1133 48.0547C84.4336 48.168 84.793 48.2656 85.1914 48.3477L86.6914 48.6934C87.5547 48.8809 88.3164 49.1289 88.9766 49.4375C89.6406 49.7461 90.1973 50.1172 90.6465 50.5508C91.0996 50.9844 91.4434 51.4824 91.6777 52.0449C91.9121 52.6074 92.0312 53.2363 92.0352 53.9316C92.0312 55.041 91.752 55.9902 91.1973 56.7793C90.6465 57.5684 89.8555 58.1738 88.8242 58.5957C87.793 59.0137 86.5508 59.2227 85.0977 59.2227C83.6367 59.2227 82.3633 59.0039 81.2773 58.5664C80.1914 58.125 79.3477 57.459 78.7461 56.5684C78.1445 55.6738 77.8359 54.5488 77.8203 53.1934L81.8574 53.1934C81.8887 53.752 82.0391 54.2207 82.3086 54.5996C82.5781 54.9746 82.9453 55.2578 83.4102 55.4492C83.8789 55.6406 84.4238 55.7363 85.0449 55.7363C85.6113 55.7363 86.0938 55.6602 86.4922 55.5078C86.8945 55.3516 87.2031 55.1387 87.418 54.8691C87.6367 54.5957 87.748 54.2812 87.752 53.9258C87.748 53.5977 87.6465 53.3164 87.4473 53.082C87.248 52.8477 86.9434 52.6426 86.5332 52.4668C86.123 52.291 85.5977 52.1309 84.957 51.9863L83.1348 51.5586C81.627 51.2148 80.4375 50.6562 79.5664 49.8828C78.6953 49.1055 78.2617 48.0527 78.2656 46.7246C78.2617 45.6426 78.5527 44.6973 79.1387 43.8887C79.7246 43.0762 80.5332 42.4434 81.5645 41.9902C82.5996 41.5332 83.7812 41.3047 85.1094 41.3047C86.4609 41.3047 87.6348 41.5352 88.6309 41.9961C89.6309 42.4531 90.4043 43.0938 90.9512 43.918C91.502 44.7383 91.7832 45.6934 91.7949 46.7832L87.7578 46.7832ZM102.559 45.9102L102.559 48.9746L94.3034 48.9746L94.3034 45.9102L102.559 45.9102ZM96.032 42.7754L100.198 42.7754L100.198 54.8809C100.198 55.1387 100.239 55.3457 100.321 55.502C100.407 55.6543 100.528 55.7637 100.684 55.8301C100.844 55.8965 101.036 55.9297 101.259 55.9297C101.415 55.9297 101.583 55.9141 101.762 55.8828C101.946 55.8516 102.083 55.8242 102.173 55.8008L102.8 58.8066C102.604 58.8691 102.325 58.9414 101.962 59.0234C101.602 59.1094 101.173 59.1621 100.673 59.1816C99.6921 59.2285 98.8542 59.1152 98.1589 58.8418C97.4675 58.5684 96.9382 58.1387 96.571 57.5527C96.2038 56.9668 96.0241 56.2305 96.032 55.3438L96.032 42.7754ZM109.382 59.2227C108.55 59.2227 107.81 59.082 107.161 58.8008C106.517 58.5156 106.009 58.0879 105.638 57.5176C105.267 56.9473 105.081 56.2305 105.081 55.3672C105.081 54.6445 105.208 54.0332 105.462 53.5332C105.716 53.0293 106.067 52.6211 106.517 52.3086C106.966 51.9961 107.483 51.7598 108.069 51.5996C108.655 51.4355 109.28 51.3242 109.944 51.2656C110.691 51.2031 111.29 51.1328 111.743 51.0547C112.2 50.9766 112.53 50.8652 112.733 50.7207C112.941 50.5723 113.044 50.3652 113.044 50.0996L113.044 50.0586C113.044 49.6211 112.894 49.2832 112.593 49.0449C112.292 48.8027 111.886 48.6816 111.374 48.6816C110.823 48.6816 110.38 48.8027 110.044 49.0449C109.712 49.2871 109.501 49.6172 109.411 50.0352L105.567 49.9004C105.681 49.1035 105.974 48.3906 106.446 47.7617C106.923 47.1328 107.577 46.6387 108.409 46.2793C109.241 45.9199 110.243 45.7402 111.415 45.7402C112.251 45.7402 113.021 45.8379 113.724 46.0332C114.431 46.2246 115.044 46.5078 115.564 46.8828C116.083 47.2539 116.487 47.7109 116.776 48.2539C117.066 48.793 117.21 49.4082 117.21 50.0996L117.21 59L113.29 59L113.29 57.1719L113.191 57.1719C112.952 57.6211 112.651 57.998 112.288 58.3027C111.929 58.6074 111.507 58.8379 111.023 58.9941C110.538 59.1465 109.991 59.2227 109.382 59.2227ZM110.671 56.4922C111.116 56.4922 111.521 56.4023 111.884 56.2227C112.247 56.0391 112.536 55.7871 112.751 55.4668C112.966 55.1465 113.073 54.7715 113.073 54.3418L113.073 53.0996C112.956 53.1621 112.812 53.2207 112.64 53.2754C112.472 53.3262 112.288 53.375 112.089 53.4219C111.89 53.4648 111.687 53.5039 111.48 53.5391C111.273 53.5742 111.071 53.6055 110.876 53.6328C110.482 53.6914 110.146 53.7871 109.868 53.9199C109.595 54.0527 109.386 54.2227 109.241 54.4297C109.101 54.6367 109.03 54.8828 109.03 55.168C109.03 55.5977 109.185 55.9258 109.493 56.1523C109.802 56.3789 110.194 56.4922 110.671 56.4922ZM120.75 59L120.75 45.9102L124.793 45.9102L124.793 48.2949L124.928 48.2949C125.166 47.4277 125.555 46.7852 126.094 46.3672C126.637 45.9453 127.266 45.7344 127.981 45.7344C128.176 45.7344 128.375 45.748 128.578 45.7754C128.786 45.7988 128.975 45.834 129.147 45.8809L129.147 49.502C128.948 49.4355 128.688 49.3828 128.368 49.3438C128.047 49.3047 127.762 49.2852 127.512 49.2852C127.016 49.2852 126.571 49.3945 126.176 49.6133C125.786 49.832 125.477 50.1367 125.25 50.5273C125.028 50.918 124.916 51.3711 124.916 51.8867L124.916 59L120.75 59ZM131.858 59L131.858 41.5449L139.065 41.5449C140.374 41.5449 141.503 41.7812 142.452 42.2539C143.405 42.7227 144.14 43.3926 144.655 44.2637C145.175 45.1309 145.434 46.1641 145.434 47.3633C145.434 48.5664 145.171 49.5918 144.643 50.4395C144.116 51.2832 143.366 51.9258 142.393 52.3672C141.421 52.8086 140.268 53.0293 138.936 53.0293L134.378 53.0293L134.378 49.7012L138.157 49.7012C138.79 49.7012 139.321 49.6191 139.751 49.4551C140.181 49.2871 140.507 49.0312 140.729 48.6875C140.952 48.3398 141.063 47.8984 141.063 47.3633C141.063 46.8203 140.952 46.3711 140.729 46.0156C140.507 45.6602 140.179 45.3945 139.745 45.2188C139.315 45.0391 138.784 44.9492 138.151 44.9492L136.071 44.9492L136.071 59L131.858 59ZM141.684 51.0254L146.032 59L141.421 59L137.167 51.0254L141.684 51.0254ZM154.603 59.2461C153.232 59.2461 152.052 58.9648 151.064 58.4023C150.08 57.8359 149.322 57.0469 148.79 56.0352C148.259 55.0195 147.994 53.8398 147.994 52.4961C147.994 51.1484 148.259 49.9688 148.79 48.957C149.322 47.9414 150.08 47.1523 151.064 46.5898C152.052 46.0234 153.232 45.7402 154.603 45.7402C155.978 45.7402 157.158 46.0234 158.142 46.5898C159.13 47.1523 159.89 47.9414 160.421 48.957C160.953 49.9688 161.218 51.1484 161.218 52.4961C161.218 53.8398 160.953 55.0195 160.421 56.0352C159.89 57.0469 159.13 57.8359 158.142 58.4023C157.158 58.9648 155.978 59.2461 154.603 59.2461ZM154.632 56.0996C155.128 56.0996 155.55 55.9473 155.898 55.6426C156.246 55.3379 156.511 54.9141 156.695 54.3711C156.878 53.8242 156.97 53.1895 156.97 52.4668C156.97 51.7441 156.878 51.1113 156.695 50.5684C156.511 50.0215 156.246 49.5957 155.898 49.291C155.55 48.9824 155.128 48.8281 154.632 48.8281C154.117 48.8281 153.679 48.9824 153.32 49.291C152.964 49.5957 152.695 50.0215 152.511 50.5684C152.331 51.1113 152.242 51.7441 152.242 52.4668C152.242 53.1895 152.331 53.8242 152.511 54.3711C152.695 54.9141 152.964 55.3379 153.32 55.6426C153.679 55.9473 154.117 56.0996 154.632 56.0996ZM170.467 59.2461C169.088 59.2461 167.904 58.9629 166.916 58.3965C165.931 57.8262 165.176 57.0332 164.648 56.0176C164.121 55.002 163.857 53.8281 163.857 52.4961C163.857 51.1562 164.121 49.9785 164.648 48.9629C165.18 47.9473 165.937 47.1562 166.922 46.5898C167.91 46.0234 169.09 45.7402 170.461 45.7402C171.672 45.7402 172.726 45.959 173.625 46.3965C174.527 46.834 175.232 47.4531 175.74 48.2539C176.248 49.0508 176.515 49.9844 176.543 51.0547L172.652 51.0547C172.57 50.3867 172.344 49.8633 171.972 49.4844C171.601 49.1016 171.119 48.9102 170.525 48.9102C170.041 48.9102 169.617 49.0449 169.254 49.3145C168.89 49.584 168.607 49.9824 168.404 50.5098C168.205 51.0371 168.105 51.6855 168.105 52.4551C168.105 53.2285 168.205 53.8809 168.404 54.4121C168.603 54.9395 168.885 55.3398 169.248 55.6133C169.611 55.8828 170.037 56.0176 170.525 56.0176C170.904 56.0176 171.242 55.9355 171.539 55.7715C171.84 55.6074 172.086 55.3652 172.277 55.0449C172.472 54.7207 172.597 54.3301 172.652 53.873L176.543 53.873C176.508 54.9512 176.24 55.8945 175.74 56.7031C175.244 57.5078 174.549 58.1328 173.654 58.5781C172.76 59.0234 171.697 59.2461 170.467 59.2461ZM183.444 55.5664L183.461 50.5918L184.036 50.5918L187.721 45.9102L192.444 45.9102L186.971 52.625L185.87 52.625L183.444 55.5664ZM179.688 59L179.688 41.5449L183.854 41.5449L183.854 59L179.688 59ZM187.815 59L184.393 53.5566L187.129 50.6094L192.637 59L187.815 59ZM206.372 49.9062L202.546 50.0059C202.507 49.7324 202.4 49.4902 202.224 49.2793C202.048 49.0684 201.819 48.9023 201.538 48.7812C201.257 48.6562 200.933 48.5938 200.566 48.5938C200.081 48.5938 199.669 48.6895 199.329 48.8809C198.993 49.0723 198.827 49.334 198.831 49.666C198.827 49.9199 198.931 50.1426 199.142 50.334C199.353 50.5215 199.735 50.6719 200.29 50.7852L202.804 51.2598C204.112 51.5137 205.087 51.9297 205.728 52.5078C206.368 53.0859 206.691 53.8516 206.694 54.8047C206.691 55.7031 206.425 56.4863 205.898 57.1543C205.374 57.8184 204.657 58.334 203.747 58.7012C202.837 59.0645 201.796 59.2461 200.624 59.2461C198.757 59.2461 197.284 58.8613 196.206 58.0918C195.132 57.3184 194.519 56.2852 194.366 54.9922L198.485 54.8926C198.571 55.3652 198.804 55.7266 199.183 55.9766C199.566 56.2266 200.054 56.3516 200.648 56.3516C201.179 56.3516 201.612 56.2539 201.948 56.0586C202.284 55.8594 202.454 55.5938 202.458 55.2617C202.454 54.9727 202.323 54.7383 202.066 54.5586C201.808 54.3789 201.409 54.2363 200.87 54.1309L198.579 53.7031C197.271 53.4609 196.294 53.0195 195.65 52.3789C195.009 51.7344 194.691 50.9102 194.694 49.9062C194.691 49.0312 194.923 48.2832 195.392 47.6621C195.864 47.041 196.536 46.5664 197.407 46.2383C198.278 45.9062 199.304 45.7402 200.483 45.7402C202.253 45.7402 203.65 46.1113 204.673 46.8535C205.696 47.5918 206.263 48.6094 206.372 49.9062Z" fill="rgb(245,247,250)" fill-rule="nonzero" />
	<path id="" d="M215.909 59L215.909 41.5449L223.116 41.5449C224.425 41.5449 225.554 41.7988 226.503 42.3066C227.456 42.8145 228.191 43.5234 228.706 44.4336C229.226 45.3398 229.486 46.3906 229.486 47.5859C229.486 48.793 229.222 49.8477 228.695 50.75C228.167 51.6484 227.417 52.3457 226.445 52.8418C225.472 53.334 224.32 53.5801 222.988 53.5801L218.54 53.5801L218.54 50.2578L222.208 50.2578C222.841 50.2578 223.372 50.1484 223.802 49.9297C224.232 49.707 224.558 49.3945 224.781 48.9922C225.003 48.5898 225.115 48.1211 225.115 47.5859C225.115 47.0469 225.003 46.5801 224.781 46.1855C224.558 45.791 224.23 45.4863 223.796 45.2715C223.366 45.0566 222.835 44.9492 222.202 44.9492L220.122 44.9492L220.122 59L215.909 59ZM232.557 59L232.557 41.5449L239.764 41.5449C241.073 41.5449 242.202 41.7812 243.151 42.2539C244.104 42.7227 244.838 43.3926 245.354 44.2637C245.874 45.1309 246.133 46.1641 246.133 47.3633C246.133 48.5664 245.87 49.5918 245.342 50.4395C244.815 51.2832 244.065 51.9258 243.092 52.3672C242.12 52.8086 240.967 53.0293 239.635 53.0293L235.077 53.0293L235.077 49.7012L238.856 49.7012C239.489 49.7012 240.02 49.6191 240.45 49.4551C240.879 49.2871 241.206 49.0312 241.428 48.6875C241.651 48.3398 241.762 47.8984 241.762 47.3633C241.762 46.8203 241.651 46.3711 241.428 46.0156C241.206 45.6602 240.878 45.3945 240.444 45.2188C240.014 45.0391 239.483 44.9492 238.85 44.9492L236.77 44.9492L236.77 59L232.557 59ZM242.383 51.0254L246.731 59L242.12 59L237.866 51.0254L242.383 51.0254ZM265.914 50.2754C265.914 52.1973 265.545 53.8262 264.807 55.1621C264.072 56.4941 263.074 57.5078 261.813 58.2031C260.555 58.8945 259.145 59.2402 257.582 59.2402C256.012 59.2402 254.598 58.8906 253.34 58.1914C252.086 57.4922 251.09 56.4766 250.352 55.1445C249.617 53.8086 249.25 52.1855 249.25 50.2754C249.25 48.3496 249.617 46.7207 250.352 45.3887C251.09 44.0527 252.086 43.0391 253.34 42.3477C254.598 41.6523 256.012 41.3047 257.582 41.3047C259.145 41.3047 260.555 41.6523 261.813 42.3477C263.074 43.0391 264.072 44.0527 264.807 45.3887C265.545 46.7207 265.914 48.3496 265.914 50.2754ZM261.608 50.2754C261.608 49.1348 261.445 48.1738 261.121 47.3926C260.801 46.6074 260.34 46.0137 259.738 45.6113C259.141 45.2051 258.422 45.002 257.582 45.002C256.742 45.002 256.022 45.2051 255.42 45.6113C254.822 46.0137 254.363 46.6074 254.043 47.3926C253.723 48.1738 253.563 49.1348 253.563 50.2754C253.563 51.4121 253.723 52.373 254.043 53.1582C254.363 53.9395 254.822 54.5332 255.42 54.9395C256.022 55.3418 256.742 55.543 257.582 55.543C258.422 55.543 259.141 55.3418 259.738 54.9395C260.34 54.5332 260.801 53.9395 261.121 53.1582C261.445 52.373 261.608 51.4121 261.608 50.2754Z" fill="rgb(245,247,250)" fill-rule="nonzero" />
	<path id="" d="M215.909 59L215.909 41.5449L223.116 41.5449C224.425 41.5449 225.554 41.7988 226.503 42.3066C227.456 42.8145 228.191 43.5234 228.706 44.4336C229.226 45.3398 229.486 46.3906 229.486 47.5859C229.486 48.793 229.222 49.8477 228.695 50.75C228.167 51.6484 227.417 52.3457 226.445 52.8418C225.472 53.334 224.32 53.5801 222.988 53.5801L218.54 53.5801L218.54 50.2578L222.208 50.2578C222.841 50.2578 223.372 50.1484 223.802 49.9297C224.232 49.707 224.558 49.3945 224.781 48.9922C225.003 48.5898 225.115 48.1211 225.115 47.5859C225.115 47.0469 225.003 46.5801 224.781 46.1855C224.558 45.791 224.23 45.4863 223.796 45.2715C223.366 45.0566 222.835 44.9492 222.202 44.9492L220.122 44.9492L220.122 59L215.909 59ZM232.557 59L232.557 41.5449L239.764 41.5449C241.073 41.5449 242.202 41.7812 243.151 42.2539C244.104 42.7227 244.838 43.3926 245.354 44.2637C245.874 45.1309 246.133 46.1641 246.133 47.3633C246.133 48.5664 245.87 49.5918 245.342 50.4395C244.815 51.2832 244.065 51.9258 243.092 52.3672C242.12 52.8086 240.967 53.0293 239.635 53.0293L235.077 53.0293L235.077 49.7012L238.856 49.7012C239.489 49.7012 240.02 49.6191 240.45 49.4551C240.879 49.2871 241.206 49.0312 241.428 48.6875C241.651 48.3398 241.762 47.8984 241.762 47.3633C241.762 46.8203 241.651 46.3711 241.428 46.0156C241.206 45.6602 240.878 45.3945 240.444 45.2188C240.014 45.0391 239.483 44.9492 238.85 44.9492L236.77 44.9492L236.77 59L232.557 59ZM242.383 51.0254L246.731 59L242.12 59L237.866 51.0254L242.383 51.0254ZM265.914 50.2754C265.914 52.1973 265.545 53.8262 264.807 55.1621C264.072 56.4941 263.074 57.5078 261.813 58.2031C260.555 58.8945 259.145 59.2402 257.582 59.2402C256.012 59.2402 254.598 58.8906 253.34 58.1914C252.086 57.4922 251.09 56.4766 250.352 55.1445C249.617 53.8086 249.25 52.1855 249.25 50.2754C249.25 48.3496 249.617 46.7207 250.352 45.3887C251.09 44.0527 252.086 43.0391 253.34 42.3477C254.598 41.6523 256.012 41.3047 257.582 41.3047C259.145 41.3047 260.555 41.6523 261.813 42.3477C263.074 43.0391 264.072 44.0527 264.807 45.3887C265.545 46.7207 265.914 48.3496 265.914 50.2754ZM261.608 50.2754C261.608 49.1348 261.445 48.1738 261.121 47.3926C260.801 46.6074 260.34 46.0137 259.738 45.6113C259.141 45.2051 258.422 45.002 257.582 45.002C256.742 45.002 256.022 45.2051 255.42 45.6113C254.822 46.0137 254.363 46.6074 254.043 47.3926C253.723 48.1738 253.563 49.1348 253.563 50.2754C253.563 51.4121 253.723 52.373 254.043 53.1582C254.363 53.9395 254.822 54.5332 255.42 54.9395C256.022 55.3418 256.742 55.543 257.582 55.543C258.422 55.543 259.141 55.3418 259.738 54.9395C260.34 54.5332 260.801 53.9395 261.121 53.1582C261.445 52.373 261.608 51.4121 261.608 50.2754Z" fill="rgb(218,41,28)" fill-rule="nonzero" />
	<path id="Форма 2" d="M51.6173 32L60 36.2645L68.3826 40.5289L63.3205 43.1041L51.6173 37.1505L51.6173 32ZM69 41.4711L69 50L69 58.5289L63.9378 55.9536L63.9378 44.0463L69 41.4711ZM68.3826 59.471L60 63.7355L51.6173 68L51.6173 62.8494L63.3204 56.8958L68.3826 59.471ZM50.3827 68L42 63.7355L33.6174 59.4711L38.6796 56.8958L50.3827 62.8494L50.3827 68ZM33 58.5289L33 50L33 41.4711L38.0622 44.0463L38.0622 55.9536L33 58.5289ZM33.6174 40.5289L42 36.2645L50.3827 32L50.3827 37.1505L38.6795 43.1041L33.6174 40.5289ZM51 39.2233L40.4081 44.6116L40.4081 55.3883L51 60.7766L61.5919 55.3883L61.5919 44.6116L51 39.2233ZM51 40.7308L41.8898 45.3654L41.8898 54.6346L51 59.2692L60.1102 54.6346L60.1102 45.3654L51 40.7308Z" fill="rgb(218,41,28)" fill-rule="evenodd" />
</svg>
