<svg viewBox="0 0 300 100" xmlns="http://www.w3.org/2000/svg" xmlns:xlink="http://www.w3.org/1999/xlink" width="300.000000" height="100.000000" fill="none" clip-path="url(#clipPath_9)" customFrame="url(#clipPath_9)">
	<defs>
		<clipPath id="clipPath_9">
			<rect width="300.000000" height="100.000000" x="0.000000" y="0.000000" rx="25.000000" fill="rgb(255,255,255)" />
		</clipPath>
	</defs>
	<rect id="фрейм 2" width="300.000000" height="100.000000" x="0.000000" y="0.000000" rx="25.000000" fill="rgb(26,26,26)" />
	<path id="" d="M87.7578 46.7832Q87.6758 45.8398 87.002 45.3184Q86.3281 44.791 85.0918 44.791Q84.2773 44.791 83.7324 45.0078Q83.1875 45.2188 82.9121 45.5938Q82.6367 45.9629 82.6309 46.4316Q82.6191 46.8242 82.7891 47.1289Q82.9648 47.4277 83.2988 47.6562Q83.6387 47.8789 84.1133 48.0547Q84.5938 48.2246 85.1914 48.3477L86.6914 48.6934Q87.9863 48.9746 88.9766 49.4375Q89.9727 49.9004 90.6465 50.5508Q91.3262 51.2012 91.6777 52.0449Q92.0293 52.8887 92.0352 53.9316Q92.0293 55.5957 91.1973 56.7793Q90.3711 57.9629 88.8242 58.5957Q87.2773 59.2227 85.0977 59.2227Q82.9062 59.2227 81.2773 58.5664Q79.6484 57.9043 78.7461 56.5684Q77.8438 55.2266 77.8203 53.1934L81.8574 53.1934Q81.9043 54.0312 82.3086 54.5996Q82.7129 55.1621 83.4102 55.4492Q84.1133 55.7363 85.0449 55.7363Q85.8945 55.7363 86.4922 55.5078Q87.0957 55.2734 87.418 54.8691Q87.7461 54.459 87.752 53.9258Q87.7461 53.4336 87.4473 53.082Q87.1484 52.7305 86.5332 52.4668Q85.918 52.2031 84.957 51.9863L83.1348 51.5586Q80.873 51.043 79.5664 49.8828Q78.2598 48.7168 78.2656 46.7246Q78.2598 45.1016 79.1387 43.8887Q80.0176 42.6699 81.5645 41.9902Q83.1172 41.3047 85.1094 41.3047Q87.1367 41.3047 88.6309 41.9961Q90.1309 42.6816 90.9512 43.918Q91.7773 45.1484 91.7949 46.7832L87.7578 46.7832ZM102.559 45.9102L102.559 48.9746L94.3034 48.9746L94.3034 45.9102L102.559 45.9102ZM96.032 42.7754L100.198 42.7754L100.198 54.8809Q100.198 55.2676 100.321 55.502Q100.45 55.7305 100.684 55.8301Q100.925 55.9297 101.259 55.9297Q101.493 55.9297 101.762 55.8828Q102.038 55.8359 102.173 55.8008L102.8 58.8066Q102.507 58.9004 101.962 59.0234Q101.423 59.1523 100.673 59.1816Q99.2019 59.252 98.1589 58.8418Q97.1218 58.4316 96.571 57.5527Q96.0202 56.6738 96.032 55.3438L96.032 42.7754ZM109.382 59.2227Q108.134 59.2227 107.161 58.8008Q106.194 58.373 105.638 57.5176Q105.081 56.6621 105.081 55.3672Q105.081 54.2832 105.462 53.5332Q105.843 52.7773 106.517 52.3086Q107.191 51.8398 108.069 51.5996Q108.948 51.3535 109.944 51.2656Q111.064 51.1719 111.743 51.0547Q112.429 50.9375 112.733 50.7207Q113.044 50.498 113.044 50.0996L113.044 50.0586Q113.044 49.4023 112.593 49.0449Q112.142 48.6816 111.374 48.6816Q110.548 48.6816 110.044 49.0449Q109.546 49.4082 109.411 50.0352L105.567 49.9004Q105.737 48.7051 106.446 47.7617Q107.161 46.8184 108.409 46.2793Q109.657 45.7402 111.415 45.7402Q112.669 45.7402 113.724 46.0332Q114.784 46.3203 115.564 46.8828Q116.343 47.4395 116.776 48.2539Q117.21 49.0625 117.21 50.0996L117.21 59L113.29 59L113.29 57.1719L113.191 57.1719Q112.833 57.8457 112.288 58.3027Q111.749 58.7598 111.023 58.9941Q110.296 59.2227 109.382 59.2227ZM110.671 56.4922Q111.339 56.4922 111.884 56.2227Q112.429 55.9473 112.751 55.4668Q113.073 54.9863 113.073 54.3418L113.073 53.0996Q112.898 53.1934 112.64 53.2754Q112.388 53.3516 112.089 53.4219Q111.79 53.4863 111.48 53.5391Q111.169 53.5918 110.876 53.6328Q110.284 53.7207 109.868 53.9199Q109.458 54.1191 109.241 54.4297Q109.03 54.7402 109.03 55.168Q109.03 55.8125 109.493 56.1523Q109.956 56.4922 110.671 56.4922ZM120.75 59L120.75 45.9102L124.793 45.9102L124.793 48.2949L124.928 48.2949Q125.286 46.9941 126.094 46.3672Q126.909 45.7344 127.981 45.7344Q128.274 45.7344 128.578 45.7754Q128.889 45.8105 129.147 45.8809L129.147 49.502Q128.848 49.4023 128.368 49.3438Q127.887 49.2852 127.512 49.2852Q126.768 49.2852 126.176 49.6133Q125.59 49.9414 125.25 50.5273Q124.916 51.1133 124.916 51.8867L124.916 59L120.75 59ZM131.858 59L131.858 41.5449L139.065 41.5449Q141.028 41.5449 142.452 42.2539Q143.882 42.957 144.655 44.2637Q145.434 45.5645 145.434 47.3633Q145.434 49.168 144.643 50.4395Q143.852 51.7051 142.393 52.3672Q140.934 53.0293 138.936 53.0293L134.378 53.0293L134.378 49.7012L138.157 49.7012Q139.106 49.7012 139.751 49.4551Q140.395 49.2031 140.729 48.6875Q141.063 48.166 141.063 47.3633Q141.063 46.5488 140.729 46.0156Q140.395 45.4824 139.745 45.2188Q139.1 44.9492 138.151 44.9492L136.071 44.9492L136.071 59L131.858 59ZM141.684 51.0254L146.032 59L141.421 59L137.167 51.0254L141.684 51.0254ZM154.603 59.2461Q152.546 59.2461 151.064 58.4023Q149.587 57.5527 148.79 56.0352Q147.994 54.5117 147.994 52.4961Q147.994 50.4746 148.79 48.957Q149.587 47.4336 151.064 46.5898Q152.546 45.7402 154.603 45.7402Q156.665 45.7402 158.142 46.5898Q159.624 47.4336 160.421 48.957Q161.218 50.4746 161.218 52.4961Q161.218 54.5117 160.421 56.0352Q159.624 57.5527 158.142 58.4023Q156.665 59.2461 154.603 59.2461ZM154.632 56.0996Q155.376 56.0996 155.898 55.6426Q156.419 55.1855 156.695 54.3711Q156.97 53.5508 156.97 52.4668Q156.97 51.3828 156.695 50.5684Q156.419 49.748 155.898 49.291Q155.376 48.8281 154.632 48.8281Q153.859 48.8281 153.32 49.291Q152.787 49.748 152.511 50.5684Q152.242 51.3828 152.242 52.4668Q152.242 53.5508 152.511 54.3711Q152.787 55.1855 153.32 55.6426Q153.859 56.0996 154.632 56.0996ZM170.467 59.2461Q168.398 59.2461 166.916 58.3965Q165.439 57.541 164.648 56.0176Q163.857 54.4941 163.857 52.4961Q163.857 50.4863 164.648 48.9629Q165.445 47.4395 166.922 46.5898Q168.404 45.7402 170.461 45.7402Q172.277 45.7402 173.625 46.3965Q174.978 47.0527 175.74 48.2539Q176.502 49.4492 176.543 51.0547L172.652 51.0547Q172.529 50.0527 171.972 49.4844Q171.416 48.9102 170.525 48.9102Q169.799 48.9102 169.254 49.3145Q168.709 49.7188 168.404 50.5098Q168.105 51.3008 168.105 52.4551Q168.105 53.6152 168.404 54.4121Q168.703 55.2031 169.248 55.6133Q169.793 56.0176 170.525 56.0176Q171.094 56.0176 171.539 55.7715Q171.99 55.5254 172.277 55.0449Q172.57 54.5586 172.652 53.873L176.543 53.873Q176.49 55.4902 175.74 56.7031Q174.996 57.9102 173.654 58.5781Q172.312 59.2461 170.467 59.2461ZM183.444 55.5664L183.461 50.5918L184.036 50.5918L187.721 45.9102L192.444 45.9102L186.971 52.625L185.87 52.625L183.444 55.5664ZM179.688 59L179.688 41.5449L183.854 41.5449L183.854 59L179.688 59ZM187.815 59L184.393 53.5566L187.129 50.6094L192.637 59L187.815 59ZM206.372 49.9062L202.546 50.0059Q202.487 49.5957 202.224 49.2793Q201.96 48.9629 201.538 48.7812Q201.116 48.5938 200.566 48.5938Q199.839 48.5938 199.329 48.8809Q198.825 49.168 198.831 49.666Q198.825 50.0469 199.142 50.334Q199.458 50.6152 200.29 50.7852L202.804 51.2598Q204.767 51.6406 205.728 52.5078Q206.689 53.375 206.694 54.8047Q206.689 56.1523 205.898 57.1543Q205.112 58.1504 203.747 58.7012Q202.382 59.2461 200.624 59.2461Q197.823 59.2461 196.206 58.0918Q194.595 56.9316 194.366 54.9922L198.485 54.8926Q198.614 55.6016 199.183 55.9766Q199.757 56.3516 200.648 56.3516Q201.444 56.3516 201.948 56.0586Q202.452 55.7598 202.458 55.2617Q202.452 54.8281 202.066 54.5586Q201.679 54.2891 200.87 54.1309L198.579 53.7031Q196.616 53.3398 195.65 52.3789Q194.689 51.4121 194.694 49.9062Q194.689 48.5938 195.392 47.6621Q196.101 46.7305 197.407 46.2383Q198.714 45.7402 200.483 45.7402Q203.138 45.7402 204.673 46.8535Q206.208 47.9609 206.372 49.9062Z" fill="rgb(109,212,1)" fill-rule="nonzero" />
	<path id="" d="M215.909 59L215.909 41.5449L223.116 41.5449Q225.079 41.5449 226.503 42.3066Q227.933 43.0684 228.706 44.4336Q229.486 45.793 229.486 47.5859Q229.486 49.3965 228.695 50.75Q227.904 52.0977 226.445 52.8418Q224.986 53.5801 222.988 53.5801L218.54 53.5801L218.54 50.2578L222.208 50.2578Q223.158 50.2578 223.802 49.9297Q224.447 49.5957 224.781 48.9922Q225.115 48.3887 225.115 47.5859Q225.115 46.7773 224.781 46.1855Q224.447 45.5938 223.796 45.2715Q223.152 44.9492 222.202 44.9492L220.122 44.9492L220.122 59L215.909 59ZM232.557 59L232.557 41.5449L239.764 41.5449Q241.727 41.5449 243.151 42.2539Q244.581 42.957 245.354 44.2637Q246.133 45.5645 246.133 47.3633Q246.133 49.168 245.342 50.4395Q244.551 51.7051 243.092 52.3672Q241.633 53.0293 239.635 53.0293L235.077 53.0293L235.077 49.7012L238.856 49.7012Q239.805 49.7012 240.45 49.4551Q241.094 49.2031 241.428 48.6875Q241.762 48.166 241.762 47.3633Q241.762 46.5488 241.428 46.0156Q241.094 45.4824 240.444 45.2188Q239.799 44.9492 238.85 44.9492L236.77 44.9492L236.77 59L232.557 59ZM242.383 51.0254L246.731 59L242.12 59L237.866 51.0254L242.383 51.0254ZM265.914 50.2754Q265.914 53.1582 264.807 55.1621Q263.705 57.1602 261.813 58.2031Q259.926 59.2402 257.582 59.2402Q255.227 59.2402 253.34 58.1914Q251.459 57.1426 250.352 55.1445Q249.25 53.1406 249.25 50.2754Q249.25 47.3867 250.352 45.3887Q251.459 43.3848 253.34 42.3477Q255.227 41.3047 257.582 41.3047Q259.926 41.3047 261.813 42.3477Q263.705 43.3848 264.807 45.3887Q265.914 47.3867 265.914 50.2754ZM261.608 50.2754Q261.608 48.5645 261.121 47.3926Q260.641 46.2148 259.738 45.6113Q258.842 45.002 257.582 45.002Q256.322 45.002 255.42 45.6113Q254.524 46.2148 254.043 47.3926Q253.563 48.5645 253.563 50.2754Q253.563 51.9805 254.043 53.1582Q254.524 54.3301 255.42 54.9395Q256.322 55.543 257.582 55.543Q258.842 55.543 259.738 54.9395Q260.641 54.3301 261.121 53.1582Q261.608 51.9805 261.608 50.2754Z" fill="rgb(109,212,1)" fill-rule="nonzero" />
	<path id="" d="M215.909 59L215.909 41.5449L223.116 41.5449Q225.079 41.5449 226.503 42.3066Q227.933 43.0684 228.706 44.4336Q229.486 45.793 229.486 47.5859Q229.486 49.3965 228.695 50.75Q227.904 52.0977 226.445 52.8418Q224.986 53.5801 222.988 53.5801L218.54 53.5801L218.54 50.2578L222.208 50.2578Q223.158 50.2578 223.802 49.9297Q224.447 49.5957 224.781 48.9922Q225.115 48.3887 225.115 47.5859Q225.115 46.7773 224.781 46.1855Q224.447 45.5938 223.796 45.2715Q223.152 44.9492 222.202 44.9492L220.122 44.9492L220.122 59L215.909 59ZM232.557 59L232.557 41.5449L239.764 41.5449Q241.727 41.5449 243.151 42.2539Q244.581 42.957 245.354 44.2637Q246.133 45.5645 246.133 47.3633Q246.133 49.168 245.342 50.4395Q244.551 51.7051 243.092 52.3672Q241.633 53.0293 239.635 53.0293L235.077 53.0293L235.077 49.7012L238.856 49.7012Q239.805 49.7012 240.45 49.4551Q241.094 49.2031 241.428 48.6875Q241.762 48.166 241.762 47.3633Q241.762 46.5488 241.428 46.0156Q241.094 45.4824 240.444 45.2188Q239.799 44.9492 238.85 44.9492L236.77 44.9492L236.77 59L232.557 59ZM242.383 51.0254L246.731 59L242.12 59L237.866 51.0254L242.383 51.0254ZM265.914 50.2754Q265.914 53.1582 264.807 55.1621Q263.705 57.1602 261.813 58.2031Q259.926 59.2402 257.582 59.2402Q255.227 59.2402 253.34 58.1914Q251.459 57.1426 250.352 55.1445Q249.25 53.1406 249.25 50.2754Q249.25 47.3867 250.352 45.3887Q251.459 43.3848 253.34 42.3477Q255.227 41.3047 257.582 41.3047Q259.926 41.3047 261.813 42.3477Q263.705 43.3848 264.807 45.3887Q265.914 47.3867 265.914 50.2754ZM261.608 50.2754Q261.608 48.5645 261.121 47.3926Q260.641 46.2148 259.738 45.6113Q258.842 45.002 257.582 45.002Q256.322 45.002 255.42 45.6113Q254.524 46.2148 254.043 47.3926Q253.563 48.5645 253.563 50.2754Q253.563 51.9805 254.043 53.1582Q254.524 54.3301 255.42 54.9395Q256.322 55.543 257.582 55.543Q258.842 55.543 259.738 54.9395Q260.641 54.3301 261.121 53.1582Q261.608 51.9805 261.608 50.2754Z" fill="rgb(109,212,1)" fill-rule="nonzero" />
	<path id="Форма 2" d="M51.6173 32L60 36.2645L68.3826 40.5289L63.3205 43.1041L51.6173 37.1505L51.6173 32ZM69 41.4711L69 50L69 58.5289L63.9378 55.9536L63.9378 44.0463L69 41.4711ZM68.3826 59.471L60 63.7355L51.6173 68L51.6173 62.8494L63.3204 56.8958L68.3826 59.471ZM50.3827 68L42 63.7355L33.6174 59.4711L38.6796 56.8958L50.3827 62.8494L50.3827 68ZM33 58.5289L33 50L33 41.4711L38.0622 44.0463L38.0622 55.9536L33 58.5289ZM33.6174 40.5289L42 36.2645L50.3827 32L50.3827 37.1505L38.6795 43.1041L33.6174 40.5289ZM51 39.2233L40.4081 44.6116L40.4081 55.3883L51 60.7766L61.5919 55.3883L61.5919 44.6116L51 39.2233ZM51 40.7308L41.8898 45.3654L41.8898 54.6346L51 59.2692L60.1102 54.6346L60.1102 45.3654L51 40.7308Z" fill="rgb(109,212,1)" fill-rule="evenodd" />
</svg>
