<svg viewBox="0 0 100 100" xmlns="http://www.w3.org/2000/svg" xmlns:xlink="http://www.w3.org/1999/xlink" width="100.000000" height="100.000000" fill="none" clip-path="url(#clipPath_11)" customFrame="url(#clipPath_11)">
	<defs>
		<clipPath id="clipPath_11">
			<rect width="100.000000" height="100.000000" x="0.000000" y="0.000000" rx="25.000000" fill="rgb(255,255,255)" />
		</clipPath>
	</defs>
	<rect id="фрейм 1" width="100.000000" height="100.000000" x="0.000000" y="0.000000" rx="25.000000" fill="rgb(255,255,255)" />
	<path id="Форма 1" d="M51.786 27L69.25 32.3306L86.7137 37.6611L76.1677 40.8802L51.786 33.4382L51.786 27ZM88 38.8388L88 49.5L88 60.1611L77.4537 56.942L77.4537 42.0579L88 38.8388ZM86.7137 61.3388L69.25 66.6694L51.786 72L51.786 65.5618L76.1675 58.1198L86.7137 61.3388ZM49.214 72L31.75 66.6694L14.2862 61.3389L24.8325 58.1198L49.214 65.5618L49.214 72ZM13 60.1611L13 49.5L13 38.8388L23.5463 42.0579L23.5463 56.942L13 60.1611ZM14.2862 37.6611L31.75 32.3306L49.214 27L49.214 33.4382L24.8324 40.8802L14.2862 37.6611ZM50.5 36.0291L28.4336 42.7645L28.4336 56.2354L50.5 62.9708L72.5665 56.2354L72.5665 42.7645L50.5 36.0291ZM50.5 37.9135L31.5203 43.7068L31.5203 55.2933L50.5 61.0865L69.4796 55.2933L69.4796 43.7068L50.5 37.9135Z" fill="rgb(218,41,28)" fill-rule="evenodd" />
</svg>
