<svg viewBox="0 0 300 100" xmlns="http://www.w3.org/2000/svg" xmlns:xlink="http://www.w3.org/1999/xlink" width="300.000000" height="100.000000" fill="none" clip-path="url(#clipPath_6)" customFrame="url(#clipPath_6)">
	<defs>
		<clipPath id="clipPath_6">
			<rect width="300.000000" height="100.000000" x="0.000000" y="0.000000" rx="25.000000" fill="rgb(255,255,255)" />
		</clipPath>
	</defs>
	<rect id="фрейм 2" width="300.000000" height="100.000000" x="0.000000" y="0.000000" rx="25.000000" fill="rgb(26,26,26)" fill-opacity="0" />
	<path id="" d="M67.457 45.2383Q67.4746 43.9434 66.6309 43.2637Q65.793 42.584 64.293 42.584Q63.2207 42.584 62.377 42.918Q61.5391 43.252 61.0117 43.8379Q60.4902 44.4238 60.3672 45.168Q60.2617 45.7891 60.4844 46.2402Q60.707 46.6855 61.1348 46.9902Q61.5684 47.2949 62.0898 47.4941Q62.6113 47.6934 63.0977 47.8223L64.7383 48.2617Q65.5293 48.4668 66.3438 48.8184Q67.1641 49.1699 67.8145 49.7441Q68.4707 50.3125 68.793 51.1562Q69.1211 52 68.9219 53.1777Q68.6758 54.6543 67.7266 55.8086Q66.7773 56.9629 65.2246 57.625Q63.6777 58.2871 61.627 58.2871Q59.6758 58.2871 58.3398 57.666Q57.0039 57.0449 56.3828 55.9023Q55.7617 54.7539 55.9434 53.1719L58.5859 53.1719Q58.498 54.1211 58.9316 54.748Q59.3711 55.3691 60.1738 55.6797Q60.9766 55.9844 61.9902 55.9844Q63.1094 55.9844 64.041 55.6328Q64.9727 55.2754 65.5762 54.6426Q66.1797 54.0039 66.3203 53.1543Q66.4551 52.3809 66.0977 51.8828Q65.7461 51.3848 65.043 51.0625Q64.3457 50.7402 63.4492 50.4941L61.4746 49.9258Q59.4766 49.3516 58.4395 48.2441Q57.4082 47.1367 57.7012 45.3203Q57.959 43.8086 58.9609 42.6836Q59.9688 41.5586 61.4688 40.9316Q62.9688 40.3047 64.7207 40.3047Q66.4961 40.3047 67.7441 40.9375Q68.9922 41.5645 69.584 42.6777Q70.1816 43.7852 70 45.2383L67.457 45.2383ZM80.3612 44.9102L80.0272 46.9551L72.8729 46.9551L73.2069 44.9102L80.3612 44.9102ZM75.6385 41.7754L78.1873 41.7754L76.1248 54.1562Q76.0076 54.8945 76.1658 55.2695Q76.324 55.6445 76.6639 55.7734Q77.0037 55.9023 77.4197 55.9023Q77.7244 55.9023 77.9529 55.8613Q78.1873 55.8203 78.3221 55.7969L78.4569 57.9004Q78.199 57.9824 77.7654 58.0703Q77.3377 58.1641 76.7283 58.1758Q75.7205 58.1875 74.9119 57.8125Q74.1033 57.4316 73.7049 56.6523Q73.3065 55.8672 73.5057 54.6836L75.6385 41.7754ZM85.7669 58.2871Q84.5188 58.2871 83.5872 57.8242Q82.6614 57.3613 82.2161 56.4766Q81.7766 55.5859 81.9876 54.3027Q82.1809 53.1895 82.7259 52.4746Q83.2766 51.7598 84.0676 51.3438Q84.8587 50.9219 85.7844 50.7109Q86.7161 50.4941 87.6653 50.3887Q88.8548 50.2539 89.5989 50.1602Q90.3489 50.0664 90.7239 49.8672Q91.0989 49.6621 91.1751 49.2051L91.1751 49.1406Q91.3567 48.0391 90.8587 47.4238Q90.3606 46.8027 89.1301 46.8027Q87.8528 46.8027 86.9856 47.3652Q86.1184 47.9277 85.7141 48.625L83.4348 48.0801Q84.0442 46.8848 84.9934 46.1523Q85.9426 45.4141 87.0735 45.0801Q88.2102 44.7402 89.3938 44.7402Q90.1731 44.7402 91.0169 44.9277Q91.8665 45.1094 92.5579 45.5957Q93.2551 46.0762 93.595 46.9785Q93.9348 47.875 93.7005 49.3047L92.2532 58L89.7688 58L90.0735 56.2129L89.9739 56.2129Q89.6516 56.6992 89.0774 57.1797Q88.5032 57.6602 87.677 57.9766Q86.8509 58.2871 85.7669 58.2871ZM86.6399 56.248Q87.6946 56.248 88.5149 55.832Q89.3411 55.4102 89.8509 54.7363Q90.3665 54.0566 90.4954 53.2832L90.7766 51.5898Q90.6126 51.7305 90.2083 51.8418Q89.804 51.9531 89.3001 52.0352Q88.7962 52.1172 88.3157 52.1816Q87.8411 52.2402 87.5247 52.2871Q86.7688 52.3867 86.1126 52.6035Q85.4622 52.8203 85.0286 53.2363Q84.595 53.6523 84.4895 54.332Q84.3313 55.2754 84.9407 55.7617Q85.5501 56.248 86.6399 56.248ZM96.6495 58L98.8292 44.9102L101.302 44.9102L100.944 46.9902L101.079 46.9902Q101.607 45.9355 102.62 45.3262Q103.64 44.7109 104.788 44.7109Q105.034 44.7109 105.351 44.7227Q105.667 44.7344 105.866 44.7754L105.456 47.2129Q105.31 47.166 104.923 47.1133Q104.542 47.0547 104.138 47.0547Q103.235 47.0547 102.468 47.4355Q101.7 47.8164 101.179 48.4844Q100.663 49.1523 100.517 50.0078L99.1983 58L96.6495 58ZM107.11 58L110.005 40.5449L116.233 40.5449Q118.255 40.5449 119.479 41.2422Q120.71 41.9336 121.167 43.1699Q121.63 44.4004 121.366 46.0117Q121.102 47.6172 120.224 48.8301Q119.351 50.0371 117.892 50.7168Q116.438 51.3906 114.417 51.3906L109.7 51.3906L110.093 49.1289L114.569 49.1289Q115.852 49.1289 116.714 48.7598Q117.581 48.3906 118.067 47.6934Q118.554 46.9961 118.712 46.0117Q118.876 45.0156 118.618 44.3008Q118.36 43.5801 117.616 43.1934Q116.878 42.8008 115.583 42.8008L112.278 42.8008L109.747 58L107.11 58ZM117.03 50.125L120.036 58L117.042 58L114.112 50.125L117.03 50.125ZM128.85 58.2637Q126.975 58.2637 125.727 57.4082Q124.479 56.5469 123.969 55.0059Q123.459 53.459 123.787 51.4082Q124.115 49.3926 125.1 47.8926Q126.084 46.3926 127.572 45.5664Q129.061 44.7402 130.883 44.7402Q132.752 44.7402 133.994 45.6016Q135.242 46.4629 135.758 48.0098Q136.274 49.5566 135.94 51.625Q135.612 53.623 134.615 55.1172Q133.625 56.6113 132.143 57.4375Q130.666 58.2637 128.85 58.2637ZM128.99 56.125Q130.221 56.125 131.135 55.4805Q132.049 54.8301 132.629 53.7578Q133.209 52.6797 133.426 51.4023Q133.619 50.1719 133.42 49.1406Q133.221 48.1094 132.565 47.4883Q131.908 46.8672 130.737 46.8672Q129.512 46.8672 128.586 47.5234Q127.66 48.1738 127.086 49.2578Q126.512 50.3359 126.307 51.6191Q126.108 52.8438 126.301 53.8691Q126.5 54.8945 127.156 55.5098Q127.819 56.125 128.99 56.125ZM144.205 58.2637Q142.3 58.2637 141.082 57.4023Q139.863 56.5352 139.382 55.0117Q138.902 53.4883 139.23 51.5137Q139.552 49.5156 140.554 47.9922Q141.562 46.4629 143.074 45.6016Q144.586 44.7402 146.431 44.7402Q147.92 44.7402 148.992 45.291Q150.07 45.8359 150.627 46.8262Q151.183 47.8164 151.101 49.1348L148.617 49.1348Q148.564 48.2148 147.943 47.5527Q147.322 46.8848 146.109 46.8848Q145.043 46.8848 144.146 47.4473Q143.25 48.0039 142.634 49.0293Q142.025 50.0547 141.802 51.4551Q141.562 52.8848 141.826 53.9277Q142.089 54.9648 142.798 55.5332Q143.507 56.1016 144.58 56.1016Q145.318 56.1016 145.951 55.8379Q146.584 55.5684 147.07 55.0703Q147.562 54.5664 147.843 53.8516L150.322 53.8516Q149.959 55.1289 149.097 56.125Q148.242 57.1211 147 57.6953Q145.757 58.2637 144.205 58.2637ZM156.43 53.5586L156.917 50.4531L157.368 50.4531L163.526 44.9102L166.573 44.9102L159.583 51.2148L159.184 51.2148L156.43 53.5586ZM153.354 58L156.249 40.5449L158.803 40.5449L155.903 58L153.354 58ZM161.622 58L157.977 51.7832L160.016 49.9961L164.745 58L161.622 58ZM179.17 48.1094L176.797 48.5137Q176.721 48.0684 176.481 47.6641Q176.246 47.2598 175.772 47.0078Q175.297 46.7559 174.506 46.7559Q173.404 46.7559 172.578 47.2598Q171.758 47.7578 171.641 48.5371Q171.529 49.1699 171.94 49.5566Q172.35 49.9434 173.375 50.2012L175.391 50.6758Q177.131 51.0977 177.887 51.9766Q178.643 52.8555 178.408 54.2676Q178.209 55.4395 177.383 56.3418Q176.563 57.2441 175.285 57.7539Q174.008 58.2637 172.438 58.2637Q170.205 58.2637 168.963 57.3203Q167.721 56.3711 167.686 54.6426L170.211 54.2617Q170.276 55.2285 170.897 55.7207Q171.524 56.2129 172.643 56.2129Q173.92 56.2188 174.781 55.6738Q175.643 55.1289 175.76 54.3496Q175.865 53.7461 175.496 53.3477Q175.127 52.9492 174.201 52.7383L172.086 52.2461Q170.305 51.8301 169.572 50.9043Q168.84 49.9727 169.08 48.5664Q169.274 47.418 170.059 46.5566Q170.844 45.6953 172.057 45.2207Q173.27 44.7402 174.729 44.7402Q176.873 44.7402 177.945 45.6543Q179.018 46.5684 179.17 48.1094Z" fill="rgb(245,247,250)" fill-rule="nonzero" />
	<path id="" d="M189.133 58L192.028 40.5449L198.256 40.5449Q200.278 40.5449 201.496 41.2891Q202.715 42.0273 203.166 43.3105Q203.623 44.5879 203.354 46.1992Q203.09 47.8047 202.205 49.0879Q201.326 50.3711 199.856 51.1211Q198.391 51.8652 196.363 51.8652L192.086 51.8652L192.455 49.627L196.487 49.627Q197.776 49.627 198.654 49.1816Q199.539 48.7305 200.037 47.957Q200.541 47.1777 200.705 46.1992Q200.863 45.2031 200.617 44.4414Q200.371 43.6738 199.639 43.2402Q198.906 42.8008 197.606 42.8008L194.301 42.8008L191.77 58L189.133 58ZM205.448 58L208.343 40.5449L214.571 40.5449Q216.593 40.5449 217.817 41.2422Q219.048 41.9336 219.505 43.1699Q219.968 44.4004 219.704 46.0117Q219.441 47.6172 218.562 48.8301Q217.689 50.0371 216.23 50.7168Q214.776 51.3906 212.755 51.3906L208.038 51.3906L208.431 49.1289L212.907 49.1289Q214.191 49.1289 215.052 48.7598Q215.919 48.3906 216.405 47.6934Q216.892 46.9961 217.05 46.0117Q217.214 45.0156 216.956 44.3008Q216.698 43.5801 215.954 43.1934Q215.216 42.8008 213.921 42.8008L210.616 42.8008L208.085 58L205.448 58ZM215.368 50.125L218.374 58L215.38 58L212.45 50.125L215.368 50.125ZM238.565 49.4453Q238.102 52.1934 236.772 54.168Q235.447 56.1367 233.537 57.1914Q231.627 58.2402 229.406 58.2402Q227.104 58.2402 225.469 57.1387Q223.834 56.0312 223.125 53.9922Q222.422 51.9473 222.891 49.1172Q223.348 46.3633 224.672 44.3887Q226.002 42.4141 227.924 41.3594Q229.846 40.3047 232.078 40.3047Q234.369 40.3047 235.992 41.4121Q237.615 42.5137 238.324 44.5645Q239.033 46.6094 238.565 49.4453ZM235.998 49.1172Q236.35 47.0312 235.916 45.6074Q235.488 44.1777 234.457 43.4453Q233.426 42.7129 231.967 42.7129Q230.414 42.7129 229.061 43.498Q227.707 44.2773 226.752 45.7773Q225.803 47.2773 225.451 49.4453Q225.1 51.5312 225.533 52.9551Q225.967 54.3789 226.998 55.1055Q228.035 55.832 229.494 55.832Q231.041 55.832 232.389 55.0586Q233.742 54.2793 234.692 52.7793Q235.647 51.2793 235.998 49.1172Z" fill="rgb(245,247,250)" fill-rule="nonzero" />
	<path id="" d="M189.133 58L192.028 40.5449L198.256 40.5449Q200.278 40.5449 201.496 41.2891Q202.715 42.0273 203.166 43.3105Q203.623 44.5879 203.354 46.1992Q203.09 47.8047 202.205 49.0879Q201.326 50.3711 199.856 51.1211Q198.391 51.8652 196.363 51.8652L192.086 51.8652L192.455 49.627L196.487 49.627Q197.776 49.627 198.654 49.1816Q199.539 48.7305 200.037 47.957Q200.541 47.1777 200.705 46.1992Q200.863 45.2031 200.617 44.4414Q200.371 43.6738 199.639 43.2402Q198.906 42.8008 197.606 42.8008L194.301 42.8008L191.77 58L189.133 58ZM205.448 58L208.343 40.5449L214.571 40.5449Q216.593 40.5449 217.817 41.2422Q219.048 41.9336 219.505 43.1699Q219.968 44.4004 219.704 46.0117Q219.441 47.6172 218.562 48.8301Q217.689 50.0371 216.23 50.7168Q214.776 51.3906 212.755 51.3906L208.038 51.3906L208.431 49.1289L212.907 49.1289Q214.191 49.1289 215.052 48.7598Q215.919 48.3906 216.405 47.6934Q216.892 46.9961 217.05 46.0117Q217.214 45.0156 216.956 44.3008Q216.698 43.5801 215.954 43.1934Q215.216 42.8008 213.921 42.8008L210.616 42.8008L208.085 58L205.448 58ZM215.368 50.125L218.374 58L215.38 58L212.45 50.125L215.368 50.125ZM238.565 49.4453Q238.102 52.1934 236.772 54.168Q235.447 56.1367 233.537 57.1914Q231.627 58.2402 229.406 58.2402Q227.104 58.2402 225.469 57.1387Q223.834 56.0312 223.125 53.9922Q222.422 51.9473 222.891 49.1172Q223.348 46.3633 224.672 44.3887Q226.002 42.4141 227.924 41.3594Q229.846 40.3047 232.078 40.3047Q234.369 40.3047 235.992 41.4121Q237.615 42.5137 238.324 44.5645Q239.033 46.6094 238.565 49.4453ZM235.998 49.1172Q236.35 47.0312 235.916 45.6074Q235.488 44.1777 234.457 43.4453Q233.426 42.7129 231.967 42.7129Q230.414 42.7129 229.061 43.498Q227.707 44.2773 226.752 45.7773Q225.803 47.2773 225.451 49.4453Q225.1 51.5312 225.533 52.9551Q225.967 54.3789 226.998 55.1055Q228.035 55.832 229.494 55.832Q231.041 55.832 232.389 55.0586Q233.742 54.2793 234.692 52.7793Q235.647 51.2793 235.998 49.1172Z" fill="rgb(218,41,28)" fill-rule="nonzero" />
</svg>
