<svg viewBox="0 0 300 100" xmlns="http://www.w3.org/2000/svg" xmlns:xlink="http://www.w3.org/1999/xlink" width="300.000000" height="100.000000" fill="none" clip-path="url(#clipPath_10)" customFrame="url(#clipPath_10)">
	<defs>
		<clipPath id="clipPath_10">
			<rect width="300.000000" height="100.000000" x="0.000000" y="0.000000" rx="25.000000" fill="rgb(255,255,255)" />
		</clipPath>
	</defs>
	<rect id="фрейм 2" width="300.000000" height="100.000000" x="0.000000" y="0.000000" rx="25.000000" fill="rgb(26,26,26)" />
	<path id="" d="M66.9414 45.6191Q66.9824 44.5469 66.3203 43.9668Q65.6582 43.3867 64.334 43.3867Q63.4316 43.3867 62.7637 43.6387Q62.1016 43.8906 61.7031 44.3359Q61.3047 44.7754 61.2109 45.3438Q61.123 45.8066 61.2754 46.1582Q61.4336 46.5098 61.7793 46.7676Q62.125 47.0195 62.5996 47.2012Q63.0742 47.377 63.6191 47.5059L65.1191 47.8809Q66.2148 48.1387 67.0938 48.5664Q67.9785 48.9883 68.5762 49.6152Q69.1797 50.2363 69.4258 51.0801Q69.6777 51.9238 69.4961 53.0137Q69.2266 54.6133 68.2246 55.791Q67.2285 56.9629 65.6113 57.6074Q63.9941 58.2461 61.8613 58.2461Q59.7461 58.2461 58.2871 57.5957Q56.834 56.9453 56.1719 55.6738Q55.5098 54.4023 55.7793 52.5156L59.3477 52.5156Q59.2539 53.3945 59.6055 53.9805Q59.9629 54.5664 60.666 54.8594Q61.3691 55.1523 62.3301 55.1523Q63.2734 55.1523 64.0117 54.8828Q64.75 54.6074 65.207 54.127Q65.6699 53.6406 65.7754 53.002Q65.875 52.4219 65.5938 52.0176Q65.3184 51.6133 64.6973 51.332Q64.0762 51.0449 63.1621 50.8223L61.3398 50.3477Q59.2305 49.8086 58.1465 48.666Q57.0625 47.5234 57.373 45.5898Q57.6367 44.002 58.6914 42.8184Q59.7461 41.6289 61.3516 40.9668Q62.957 40.3047 64.873 40.3047Q66.8184 40.3047 68.1543 40.9727Q69.4902 41.6406 70.0996 42.8359Q70.7148 44.0312 70.4746 45.6191L66.9414 45.6191ZM81.2198 44.9102L80.7628 47.6348L72.8761 47.6348L73.3331 44.9102L81.2198 44.9102ZM75.6358 41.7754L79.2628 41.7754L77.2354 53.9746Q77.1534 54.4785 77.2647 54.7598Q77.3761 55.0352 77.6339 55.1465Q77.8976 55.2578 78.2608 55.2578Q78.5128 55.2578 78.7765 55.2109Q79.0401 55.1582 79.1866 55.1348L79.3214 57.8418Q79.0167 57.9297 78.5011 58.041Q77.9854 58.1523 77.2823 58.1816Q75.9522 58.2285 75.0265 57.8242Q74.1065 57.4199 73.7081 56.5762Q73.3097 55.7324 73.5382 54.4551L75.6358 41.7754ZM86.0945 58.2461Q84.8523 58.2461 83.9441 57.8125Q83.0359 57.373 82.6081 56.5059Q82.1863 55.6328 82.4031 54.3438Q82.5847 53.2539 83.1062 52.5156Q83.6277 51.7773 84.3894 51.3262Q85.157 50.8691 86.0769 50.6348Q87.0027 50.4004 87.987 50.3066Q89.1355 50.1953 89.8503 50.084Q90.571 49.9727 90.9284 49.7617Q91.2859 49.5508 91.362 49.1348L91.362 49.0879Q91.4909 48.2793 91.0691 47.834Q90.6472 47.3887 89.7214 47.3887Q88.7546 47.3887 88.0808 47.8164Q87.407 48.2441 87.114 48.9004L83.8034 48.625Q84.2488 47.4297 85.1452 46.5566Q86.0417 45.6836 87.3132 45.2148Q88.5906 44.7402 90.1609 44.7402Q91.2507 44.7402 92.1999 44.998Q93.155 45.25 93.8464 45.7891Q94.5437 46.3223 94.8542 47.1602Q95.1706 47.998 94.9714 49.1699L93.5007 58L90.0554 58L90.3659 56.1836L90.2605 56.1836Q89.8445 56.7988 89.2409 57.2617Q88.6374 57.7246 87.8523 57.9883Q87.0671 58.2461 86.0945 58.2461ZM87.5534 55.7441Q88.3503 55.7441 89.0124 55.4219Q89.6804 55.0996 90.1199 54.5547Q90.5652 54.0098 90.6765 53.3242L90.905 51.9297Q90.7292 52.041 90.4128 52.1289Q90.0964 52.2168 89.7214 52.2871Q89.3523 52.3574 88.9773 52.416Q88.6023 52.4688 88.3034 52.5156Q87.6472 52.6094 87.1257 52.8145Q86.6101 53.0195 86.2878 53.3652Q85.9656 53.7109 85.8835 54.2207Q85.7663 54.9648 86.2351 55.3574Q86.7097 55.7441 87.5534 55.7441ZM97.3292 58L99.5089 44.9102L103.025 44.9102L102.644 47.1953L102.784 47.1953Q103.341 45.9766 104.29 45.3496Q105.239 44.7227 106.341 44.7227Q106.616 44.7227 106.915 44.7578Q107.22 44.7871 107.46 44.8398L106.915 48.0742Q106.675 47.9863 106.235 47.9336Q105.796 47.875 105.398 47.875Q104.607 47.875 103.927 48.2207Q103.253 48.5664 102.784 49.1816Q102.316 49.791 102.175 50.5938L100.956 58L97.3292 58ZM108.22 58L111.121 40.5449L118 40.5449Q119.986 40.5449 121.263 41.248Q122.547 41.9453 123.068 43.2285Q123.595 44.5117 123.308 46.2461Q123.027 47.9863 122.066 49.2344Q121.105 50.4766 119.576 51.1504Q118.047 51.8184 116.037 51.8184L111.425 51.8184L111.929 48.8418L115.943 48.8418Q117.004 48.8418 117.748 48.5547Q118.492 48.2676 118.931 47.6934Q119.371 47.1133 119.511 46.2461Q119.652 45.373 119.406 44.7812Q119.16 44.1836 118.509 43.8789Q117.865 43.5684 116.804 43.5684L114.32 43.5684L111.912 58L108.22 58ZM118.961 50.0547L121.984 58L117.912 58L114.976 50.0547L118.961 50.0547ZM130.753 58.252Q128.749 58.252 127.437 57.4023Q126.124 56.5469 125.591 55.0117Q125.064 53.4766 125.392 51.4492Q125.72 49.4336 126.739 47.9277Q127.765 46.416 129.341 45.5781Q130.917 44.7402 132.892 44.7402Q134.89 44.7402 136.202 45.5957Q137.515 46.4453 138.048 47.9805Q138.587 49.5156 138.253 51.5547Q137.925 53.5586 136.894 55.0703Q135.862 56.5762 134.292 57.4141Q132.728 58.252 130.753 58.252ZM131.116 55.4453Q132.036 55.4453 132.745 54.9238Q133.46 54.3965 133.929 53.4883Q134.398 52.5801 134.591 51.4258Q134.773 50.2949 134.614 49.416Q134.456 48.5312 133.941 48.0215Q133.425 47.5059 132.534 47.5059Q131.614 47.5059 130.894 48.0332Q130.179 48.5605 129.71 49.4688Q129.241 50.377 129.054 51.5371Q128.872 52.6621 129.025 53.5469Q129.183 54.4258 129.698 54.9355Q130.22 55.4453 131.116 55.4453ZM146.433 58.252Q144.412 58.252 143.111 57.3965Q141.81 56.541 141.295 55.0176Q140.779 53.4941 141.113 51.502Q141.435 49.498 142.467 47.9746Q143.504 46.4453 145.092 45.5957Q146.68 44.7402 148.666 44.7402Q150.377 44.7402 151.56 45.3613Q152.744 45.9824 153.301 47.1133Q153.857 48.2383 153.681 49.75L150.26 49.75Q150.271 48.7773 149.756 48.1738Q149.24 47.5703 148.25 47.5703Q147.406 47.5703 146.691 48.0273Q145.982 48.4785 145.49 49.3516Q144.998 50.2188 144.805 51.4551Q144.599 52.7031 144.799 53.582Q144.998 54.4609 145.549 54.9238Q146.099 55.3809 146.943 55.3809Q147.576 55.3809 148.115 55.1289Q148.654 54.8711 149.064 54.3848Q149.474 53.8926 149.697 53.2012L153.119 53.2012Q152.779 54.707 151.859 55.8438Q150.939 56.9805 149.556 57.6191Q148.18 58.252 146.433 58.252ZM159.555 54.2266L160.282 49.8789L160.815 49.8789L165.848 44.9102L170.014 44.9102L163.3 51.4902L162.438 51.4902L159.555 54.2266ZM155.653 58L158.548 40.5449L162.175 40.5449L159.28 58L155.653 58ZM163.827 58L160.926 52.2988L163.774 49.7383L168.081 58L163.827 58ZM183.041 48.6367L179.742 48.8418Q179.719 48.4141 179.508 48.0684Q179.303 47.7227 178.904 47.5234Q178.506 47.3184 177.914 47.3184Q177.012 47.3184 176.314 47.7227Q175.617 48.127 175.529 48.7656Q175.453 49.1816 175.74 49.4629Q176.027 49.7441 176.906 49.9434L179.209 50.418Q181.049 50.8047 181.869 51.7188Q182.695 52.627 182.455 54.1094Q182.244 55.3574 181.359 56.2949Q180.475 57.2266 179.104 57.7422Q177.738 58.252 176.08 58.252Q173.414 58.252 172.025 57.1621Q170.637 56.0723 170.684 54.209L174.234 54.0156Q174.275 54.8184 174.791 55.2285Q175.312 55.6328 176.215 55.6387Q177.229 55.6562 177.938 55.2227Q178.652 54.7832 178.746 54.1504Q178.811 53.7051 178.488 53.4355Q178.172 53.1602 177.334 52.9844L175.154 52.5332Q173.291 52.1465 172.482 51.1621Q171.674 50.1719 171.926 48.6426Q172.137 47.418 172.945 46.5449Q173.76 45.6719 175.049 45.209Q176.344 44.7402 177.973 44.7402Q180.516 44.7402 181.805 45.7891Q183.1 46.832 183.041 48.6367Z" fill="rgb(245,247,250)" fill-rule="nonzero" />
	<path id="" d="M191.726 58L194.626 40.5449L201.505 40.5449Q203.492 40.5449 204.763 41.3008Q206.035 42.0508 206.55 43.3867Q207.072 44.7227 206.785 46.457Q206.498 48.2031 205.531 49.5332Q204.564 50.8574 203.017 51.6016Q201.47 52.3398 199.455 52.3398L195.06 52.3398L195.552 49.3809L199.343 49.3809Q200.415 49.3809 201.177 49.0117Q201.939 48.6426 202.39 47.9863Q202.847 47.3242 202.982 46.457Q203.123 45.584 202.888 44.9395Q202.654 44.2891 202.015 43.9316Q201.376 43.5684 200.31 43.5684L197.826 43.5684L195.417 58L191.726 58ZM208.254 58L211.155 40.5449L218.034 40.5449Q220.02 40.5449 221.297 41.248Q222.581 41.9453 223.102 43.2285Q223.629 44.5117 223.342 46.2461Q223.061 47.9863 222.1 49.2344Q221.139 50.4766 219.61 51.1504Q218.081 51.8184 216.071 51.8184L211.46 51.8184L211.963 48.8418L215.977 48.8418Q217.038 48.8418 217.782 48.5547Q218.526 48.2676 218.965 47.6934Q219.405 47.1133 219.545 46.2461Q219.686 45.373 219.44 44.7812Q219.194 44.1836 218.544 43.8789Q217.899 43.5684 216.838 43.5684L214.354 43.5684L211.946 58L208.254 58ZM218.995 50.0547L222.018 58L217.946 58L215.01 50.0547L218.995 50.0547ZM242.599 49.5098Q242.13 52.3105 240.759 54.2617Q239.388 56.207 237.419 57.2266Q235.456 58.2402 233.194 58.2402Q230.815 58.2402 229.093 57.1562Q227.376 56.0723 226.608 54.0215Q225.841 51.9707 226.321 49.0762Q226.784 46.2754 228.155 44.3184Q229.526 42.3613 231.501 41.3359Q233.481 40.3047 235.761 40.3047Q238.122 40.3047 239.833 41.3945Q241.55 42.4844 242.311 44.5469Q243.079 46.6035 242.599 49.5098ZM238.931 49.0762Q239.224 47.2832 238.907 46.0586Q238.591 44.8281 237.747 44.2012Q236.903 43.5742 235.62 43.5742Q234.214 43.5742 233.048 44.2715Q231.888 44.9688 231.091 46.293Q230.294 47.6172 229.995 49.5098Q229.679 51.3145 230.007 52.5273Q230.341 53.7402 231.196 54.3555Q232.052 54.9707 233.329 54.9707Q234.718 54.9707 235.872 54.2852Q237.032 53.5996 237.823 52.2871Q238.62 50.9688 238.931 49.0762Z" fill="rgb(245,247,250)" fill-rule="nonzero" />
	<path id="" d="M191.726 58L194.626 40.5449L201.505 40.5449Q203.492 40.5449 204.763 41.3008Q206.035 42.0508 206.55 43.3867Q207.072 44.7227 206.785 46.457Q206.498 48.2031 205.531 49.5332Q204.564 50.8574 203.017 51.6016Q201.47 52.3398 199.455 52.3398L195.06 52.3398L195.552 49.3809L199.343 49.3809Q200.415 49.3809 201.177 49.0117Q201.939 48.6426 202.39 47.9863Q202.847 47.3242 202.982 46.457Q203.123 45.584 202.888 44.9395Q202.654 44.2891 202.015 43.9316Q201.376 43.5684 200.31 43.5684L197.826 43.5684L195.417 58L191.726 58ZM208.254 58L211.155 40.5449L218.034 40.5449Q220.02 40.5449 221.297 41.248Q222.581 41.9453 223.102 43.2285Q223.629 44.5117 223.342 46.2461Q223.061 47.9863 222.1 49.2344Q221.139 50.4766 219.61 51.1504Q218.081 51.8184 216.071 51.8184L211.46 51.8184L211.963 48.8418L215.977 48.8418Q217.038 48.8418 217.782 48.5547Q218.526 48.2676 218.965 47.6934Q219.405 47.1133 219.545 46.2461Q219.686 45.373 219.44 44.7812Q219.194 44.1836 218.544 43.8789Q217.899 43.5684 216.838 43.5684L214.354 43.5684L211.946 58L208.254 58ZM218.995 50.0547L222.018 58L217.946 58L215.01 50.0547L218.995 50.0547ZM242.599 49.5098Q242.13 52.3105 240.759 54.2617Q239.388 56.207 237.419 57.2266Q235.456 58.2402 233.194 58.2402Q230.815 58.2402 229.093 57.1562Q227.376 56.0723 226.608 54.0215Q225.841 51.9707 226.321 49.0762Q226.784 46.2754 228.155 44.3184Q229.526 42.3613 231.501 41.3359Q233.481 40.3047 235.761 40.3047Q238.122 40.3047 239.833 41.3945Q241.55 42.4844 242.311 44.5469Q243.079 46.6035 242.599 49.5098ZM238.931 49.0762Q239.224 47.2832 238.907 46.0586Q238.591 44.8281 237.747 44.2012Q236.903 43.5742 235.62 43.5742Q234.214 43.5742 233.048 44.2715Q231.888 44.9688 231.091 46.293Q230.294 47.6172 229.995 49.5098Q229.679 51.3145 230.007 52.5273Q230.341 53.7402 231.196 54.3555Q232.052 54.9707 233.329 54.9707Q234.718 54.9707 235.872 54.2852Q237.032 53.5996 237.823 52.2871Q238.62 50.9688 238.931 49.0762Z" fill="rgb(218,41,28)" fill-rule="nonzero" />
</svg>
